<svg xmlns="http://www.w3.org/2000/svg" xmlns:xlink="http://www.w3.org/1999/xlink" width="614.4" height="460.8" viewBox="0 0 460.8 345.6"><path d="M0 345.6h460.8V0H0z" fill="#fff"/><path d="M57.6 307.584h357.12V41.472H57.6z" fill="#fff"/><path stroke-width=".8" stroke-linejoin="round" fill="none" stroke="#000" d="M87.36 307.584v3.5"/><symbol id="a"><path transform="matrix(.001 0 0 .001 -.087 .013)" d="M87 729h99V286c0-78 14-135 42-169s74-51 138-51c63 0 109 17 137 51s43 91 43 169v443h99V274c0-96-24-167-71-215S458-13 366-13 204 11 157 59 87 178 87 274v455z"/></symbol><symbol id="b"><path transform="translate(-.098) scale(.001)" d="M98 729h99V83h355V0H98v729z"/></symbol><symbol id="c"><path transform="translate(-.098) scale(.001)" d="M197 648V374h124c46 0 81 11 106 35s38 58 38 102-13 77-38 101-60 36-106 36H197zm-99 81h223c81 0 143-19 185-56s63-91 63-162c0-72-21-127-63-163-42-37-104-55-185-55H197V0H98v729z"/></symbol><use xlink:href="#a" transform="matrix(10 0 0 -10 78.761 322.308)"/><use xlink:href="#b" transform="matrix(10 0 0 -10 86.191 322.178)"/><use xlink:href="#c" transform="matrix(10 0 0 -10 91.761 322.178)"/><path stroke-width=".8" stroke-linejoin="round" fill="none" stroke="#000" d="M146.88 307.584v3.5"/><symbol id="d"><path transform="translate(-.098) scale(.001)" d="M98 729h99V0H98v729z"/></symbol><symbol id="e"><path transform="matrix(.001 0 0 .001 -.056 .013)" d="M394 662c-72 0-129-27-171-80-42-54-63-126-63-218s21-165 63-218c42-54 99-80 171-80 71 0 128 26 170 80 42 53 63 126 63 218s-21 164-63 218c-42 53-99 80-170 80zm0 80c102 0 183-35 245-103 61-68 92-160 92-275 0-116-31-207-92-275C577 21 496-13 394-13 291-13 209 21 148 89c-62 68-92 159-92 275 0 115 30 207 92 275 61 68 143 103 246 103z"/></symbol><symbol id="f"><path transform="translate(-.098) scale(.001)" d="M98 729h147l186-496 187 496h147V0h-96v640L481 140h-99L194 640V0H98v729z"/></symbol><use xlink:href="#d" transform="matrix(10 0 0 -10 132.516 322.178)"/><use xlink:href="#c" transform="matrix(10 0 0 -10 135.466 322.178)"/><use xlink:href="#b" transform="matrix(10 0 0 -10 141.496 322.178)"/><use xlink:href="#e" transform="matrix(10 0 0 -10 146.303 322.308)"/><use xlink:href="#f" transform="matrix(10 0 0 -10 154.593 322.178)"/><path stroke-width=".8" stroke-linejoin="round" fill="none" stroke="#000" d="M206.4 307.584v3.5"/><symbol id="g"><path transform="matrix(.001 0 0 .001 -.066 .013)" d="M535 705v-96c-38 18-73 31-106 40-34 8-66 13-96 13-54 0-96-11-125-31-29-21-43-51-43-89 0-32 9-57 29-73 19-17 56-30 110-40l60-12c73-14 127-39 162-74 35-36 53-83 53-142 0-71-24-124-71-160-48-36-117-54-208-54-35 0-72 4-111 11S110 16 69 32v102c40-23 79-40 117-51 38-12 76-17 114-17 56 0 99 11 130 33 30 22 46 53 46 95 0 36-11 64-33 84s-58 35-108 45l-60 12c-74 14-127 37-160 69-33 31-49 74-49 130 0 64 22 115 68 152 45 37 108 56 188 56 34 0 68-3 104-9 35-6 71-16 109-28z"/></symbol><symbol id="h"><path transform="matrix(.001 0 0 .001 -.091 .207)" d="M181 82v-289H91v754h90v-83c18 32 42 56 71 72s64 24 104 24c66 0 120-27 162-79 41-53 62-122 62-208s-21-156-62-208c-42-52-96-78-162-78-40 0-75 8-104 23s-53 39-71 72zm306 191c0 66-14 117-41 155-28 38-65 57-112 57-48 0-85-19-112-57-28-38-41-89-41-155s13-118 41-156c27-38 64-56 112-56 47 0 84 18 112 56 27 38 41 90 41 156z"/></symbol><symbol id="i"><path transform="matrix(.001 0 0 .001 -.055 .013)" d="M562 296v-44H149c4-62 22-110 56-142 33-32 79-48 139-48 34 0 68 4 100 12s65 21 97 39V28c-32-14-65-25-99-31s-69-10-103-10c-88 0-157 25-208 75S55 181 55 268c0 89 24 160 72 213 48 52 114 79 196 79 74 0 132-24 175-71 42-48 64-112 64-193zm-90 26c-1 49-15 88-41 118-27 29-63 44-107 44-50 0-90-15-120-43s-48-68-52-119h320z"/></symbol><symbol id="j"><path transform="translate(-.094) scale(.001)" d="M94 760h90V0H94v760z"/></symbol><use xlink:href="#g" transform="matrix(10 0 0 -10 194.857 322.308)"/><use xlink:href="#h" transform="matrix(10 0 0 -10 201.457 324.248)"/><use xlink:href="#i" transform="matrix(10 0 0 -10 207.447 322.308)"/><use xlink:href="#j" transform="matrix(10 0 0 -10 213.987 322.178)"/><use xlink:href="#j" transform="matrix(10 0 0 -10 216.767 322.178)"/><path stroke-width=".8" stroke-linejoin="round" fill="none" stroke="#000" d="M265.92 307.584v3.5"/><symbol id="k"><path transform="translate(-.098) scale(.001)" d="M197 648V81h119c100 0 174 22 221 68 46 46 70 118 70 216s-24 169-70 215c-47 45-121 68-221 68H197zm-99 81h203c141 0 245-30 311-88 66-59 99-151 99-276 0-126-34-218-100-277S441 0 301 0H98v729z"/></symbol><symbol id="l"><path transform="translate(-.091) scale(.001)" d="M411 463c-10 6-21 10-33 13-12 2-25 4-39 4-51 0-90-17-117-50-28-33-41-80-41-142V0H91v547h90v-85c18 33 43 58 73 74s67 24 111 24c6 0 13-1 21-1 7-1 15-2 25-4v-92z"/></symbol><symbol id="m"><path transform="matrix(.001 0 0 .001 -.06 .013)" d="M343 275c-73 0-123-9-151-25-28-17-42-45-42-85 0-32 10-58 31-76 21-19 50-28 86-28 50 0 90 17 120 53 30 35 45 82 45 141v20h-89zm179 37V0h-90v83c-21-34-47-58-77-73s-68-23-112-23c-56 0-101 15-134 46s-49 73-49 126c0 61 20 107 62 139 41 31 102 47 184 47h126v9c0 41-14 73-41 96-27 22-65 34-114 34-32 0-62-4-92-12s-58-19-85-33v83c32 12 64 22 95 28s61 10 91 10c79 0 138-21 177-62s59-103 59-186z"/></symbol><symbol id="n"><path transform="translate(-.094) scale(.001)" d="M94 547h90V0H94v547zm0 213h90V646H94v114z"/></symbol><symbol id="o"><path transform="translate(-.091) scale(.001)" d="M549 330V0h-90v327c0 52-11 90-31 116s-50 39-90 39c-49 0-87-16-115-47s-42-73-42-126V0H91v547h90v-85c21 32 46 57 76 73 29 16 63 25 101 25 62 0 110-20 142-59s49-96 49-171z"/></symbol><use xlink:href="#k" transform="matrix(10 0 0 -10 253.369 322.178)"/><use xlink:href="#l" transform="matrix(10 0 0 -10 260.999 322.178)"/><use xlink:href="#m" transform="matrix(10 0 0 -10 264.799 322.308)"/><use xlink:href="#n" transform="matrix(10 0 0 -10 271.269 322.178)"/><use xlink:href="#o" transform="matrix(10 0 0 -10 274.019 322.178)"/><path stroke-width=".8" stroke-linejoin="round" fill="none" stroke="#000" d="M325.44 307.584v3.5"/><symbol id="p"><path transform="translate(-.098) scale(.001)" d="M197 348V81h158c53 0 92 11 118 33 25 22 38 55 38 101 0 45-13 78-38 100-26 22-65 33-118 33H197zm0 300V428h146c48 0 83 9 107 27s36 45 36 83c0 36-12 64-36 82s-59 28-107 28H197zm-99 81h252c75 0 133-16 174-47 40-32 61-76 61-133 0-45-11-81-32-107s-51-43-91-49c48-11 86-33 113-66 26-33 40-74 40-123 0-66-23-116-67-151C504 17 441 0 360 0H98v729z"/></symbol><use xlink:href="#p" transform="matrix(10 0 0 -10 313.31 322.178)"/><use xlink:href="#l" transform="matrix(10 0 0 -10 320.1 322.178)"/><use xlink:href="#m" transform="matrix(10 0 0 -10 323.9 322.308)"/><use xlink:href="#n" transform="matrix(10 0 0 -10 330.37 322.178)"/><use xlink:href="#o" transform="matrix(10 0 0 -10 333.12 322.178)"/><path stroke-width=".8" stroke-linejoin="round" fill="none" stroke="#000" d="M384.96 307.584v3.5"/><symbol id="q"><path transform="translate(-.098) scale(.001)" d="M98 729h461v-83H197V430h347v-83H197V83h371V0H98v729z"/></symbol><symbol id="r"><path transform="translate(-.098) scale(.001)" d="M444 342c21-8 42-23 62-46 20-24 40-56 60-97L666 0H560l-93 187c-24 48-48 81-70 97-23 16-54 24-93 24H197V0H98v729h223c83 0 145-18 186-52 41-35 62-88 62-158 0-46-11-85-32-115-22-30-53-51-93-62zM197 648V389h124c47 0 83 11 107 33s37 54 37 97c0 42-13 74-37 96s-60 33-107 33H197z"/></symbol><use xlink:href="#b" transform="matrix(10 0 0 -10 368.542 322.178)"/><use xlink:href="#q" transform="matrix(10 0 0 -10 374.112 322.178)"/><use xlink:href="#f" transform="matrix(10 0 0 -10 380.432 322.178)"/><use xlink:href="#a" transform="matrix(10 0 0 -10 388.952 322.308)"/><use xlink:href="#r" transform="matrix(10 0 0 -10 396.382 322.178)"/><clipPath id="s"><path transform="matrix(1 0 0 -1 0 345.6)" d="M57.6 38.016h357.12v266.112H57.6z"/></clipPath><g clip-path="url(#s)"><path stroke-width=".8" stroke-linecap="square" stroke-linejoin="round" fill="none" stroke="#bebebe" d="M57.6 301.437h357.12"/></g><path stroke-width=".8" stroke-linejoin="round" fill="none" stroke="#000" d="M57.6 301.437h-3.5"/><symbol id="t"><path transform="matrix(.001 0 0 .001 -.066 .013)" d="M318 664c-51 0-89-25-115-75s-38-125-38-225 12-175 38-225 64-75 115-75 89 25 115 75c25 50 38 125 38 225s-13 175-38 225c-26 50-64 75-115 75zm0 78c81 0 143-33 187-97 43-65 65-159 65-281 0-123-22-217-65-281-44-64-106-96-188-96S173 19 130 83 66 241 66 364c0 122 21 216 64 281 43 64 106 97 188 97z"/></symbol><symbol id="u"><path transform="translate(-.107) scale(.001)" d="M107 124h103V0H107v124z"/></symbol><use xlink:href="#t" transform="matrix(10 0 0 -10 35.354 305.364)"/><use xlink:href="#u" transform="matrix(10 0 0 -10 42.124 305.234)"/><use xlink:href="#t" transform="matrix(10 0 0 -10 44.894 305.364)"/><clipPath id="v"><path transform="matrix(1 0 0 -1 0 345.6)" d="M57.6 38.016h357.12v266.112H57.6z"/></clipPath><g clip-path="url(#v)"><path stroke-width=".8" stroke-linecap="square" stroke-linejoin="round" fill="none" stroke="#bebebe" d="M57.6 251.863h357.12"/></g><path stroke-width=".8" stroke-linejoin="round" fill="none" stroke="#000" d="M57.6 251.863h-3.5"/><symbol id="w"><path transform="translate(-.073) scale(.001)" d="M192 83h344V0H73v83c37 38 88 90 153 156 64 65 105 107 122 126 32 35 54 65 66 90 12 24 19 49 19 73 0 38-14 70-41 94s-62 37-106 37c-31 0-64-6-98-16-34-11-71-27-110-49v100c40 16 77 28 111 36s66 12 95 12c75 0 135-19 180-57s68-88 68-151c0-30-6-59-17-85-11-27-31-59-61-95-8-10-34-37-78-82S271 164 192 83z"/></symbol><use xlink:href="#t" transform="matrix(10 0 0 -10 35.354 255.79)"/><use xlink:href="#u" transform="matrix(10 0 0 -10 42.124 255.66)"/><use xlink:href="#w" transform="matrix(10 0 0 -10 44.964 255.66)"/><clipPath id="x"><path transform="matrix(1 0 0 -1 0 345.6)" d="M57.6 38.016h357.12v266.112H57.6z"/></clipPath><g clip-path="url(#x)"><path stroke-width=".8" stroke-linecap="square" stroke-linejoin="round" fill="none" stroke="#bebebe" d="M57.6 202.29h357.12"/></g><path stroke-width=".8" stroke-linejoin="round" fill="none" stroke="#000" d="M57.6 202.29h-3.5"/><symbol id="y"><path transform="translate(-.049) scale(.001)" d="M378 643 129 254h249v389zm-26 86h124V254h104v-82H476V0h-98v172H49v95l303 462z"/></symbol><use xlink:href="#t" transform="matrix(10 0 0 -10 35.354 206.216)"/><use xlink:href="#u" transform="matrix(10 0 0 -10 42.124 206.086)"/><use xlink:href="#y" transform="matrix(10 0 0 -10 44.724 206.086)"/><clipPath id="z"><path transform="matrix(1 0 0 -1 0 345.6)" d="M57.6 38.016h357.12v266.112H57.6z"/></clipPath><g clip-path="url(#z)"><path stroke-width=".8" stroke-linecap="square" stroke-linejoin="round" fill="none" stroke="#bebebe" d="M57.6 152.716h357.12"/></g><path stroke-width=".8" stroke-linejoin="round" fill="none" stroke="#000" d="M57.6 152.716h-3.5"/><symbol id="A"><path transform="matrix(.001 0 0 .001 -.07 .013)" d="M330 404c-44 0-79-16-105-46s-39-72-39-124c0-53 13-95 39-125s61-45 105-45 79 15 105 45 39 72 39 125c0 52-13 94-39 124s-61 46-105 46zm196 309v-90c-25 12-50 21-75 27-26 6-51 9-75 9-66 0-116-22-150-66s-54-111-58-199c19 28 43 50 72 65s61 23 96 23c73 0 131-23 173-67s64-105 64-181c0-75-23-135-67-180S403-13 330-13c-84 0-149 32-193 96-45 64-67 158-67 281 0 115 27 207 82 275 54 68 128 103 220 103 24 0 49-3 75-7 25-5 51-12 79-22z"/></symbol><use xlink:href="#t" transform="matrix(10 0 0 -10 35.354 156.642)"/><use xlink:href="#u" transform="matrix(10 0 0 -10 42.124 156.512)"/><use xlink:href="#A" transform="matrix(10 0 0 -10 44.934 156.642)"/><clipPath id="B"><path transform="matrix(1 0 0 -1 0 345.6)" d="M57.6 38.016h357.12v266.112H57.6z"/></clipPath><g clip-path="url(#B)"><path stroke-width=".8" stroke-linecap="square" stroke-linejoin="round" fill="none" stroke="#bebebe" d="M57.6 103.142h357.12"/></g><path stroke-width=".8" stroke-linejoin="round" fill="none" stroke="#000" d="M57.6 103.142h-3.5"/><symbol id="C"><path transform="matrix(.001 0 0 .001 -.068 .013)" d="M318 346c-47 0-84-13-111-38s-40-59-40-103 13-79 40-104 64-37 111-37c46 0 83 12 110 38 27 25 41 59 41 103s-14 78-40 103c-27 25-64 38-111 38zm-99 42c-42 10-75 30-99 59s-35 64-35 106c0 58 20 104 62 138 41 34 98 51 171 51 72 0 129-17 171-51 41-34 62-80 62-138 0-42-12-77-36-106s-56-49-98-59c47-11 84-33 111-65 26-32 40-72 40-118 0-71-22-125-65-162-44-38-106-56-186-56S175 5 132 43c-43 37-64 91-64 162 0 46 13 86 40 118 26 32 63 54 111 65zm-36 156c0-38 11-68 35-89s57-31 100-31c42 0 75 10 99 31s36 51 36 89-12 67-36 88-57 32-99 32c-43 0-76-11-100-32s-35-50-35-88z"/></symbol><use xlink:href="#t" transform="matrix(10 0 0 -10 35.354 107.069)"/><use xlink:href="#u" transform="matrix(10 0 0 -10 42.124 106.939)"/><use xlink:href="#C" transform="matrix(10 0 0 -10 44.914 107.069)"/><clipPath id="D"><path transform="matrix(1 0 0 -1 0 345.6)" d="M57.6 38.016h357.12v266.112H57.6z"/></clipPath><g clip-path="url(#D)"><path stroke-width=".8" stroke-linecap="square" stroke-linejoin="round" fill="none" stroke="#bebebe" d="M57.6 53.568h357.12"/></g><path stroke-width=".8" stroke-linejoin="round" fill="none" stroke="#000" d="M57.6 53.568h-3.5"/><symbol id="E"><path transform="translate(-.11) scale(.001)" d="M124 83h161v556l-175-35v90l174 35h99V83h161V0H124v83z"/></symbol><use xlink:href="#E" transform="matrix(10 0 0 -10 35.794 57.365)"/><use xlink:href="#u" transform="matrix(10 0 0 -10 42.124 57.365)"/><use xlink:href="#t" transform="matrix(10 0 0 -10 44.894 57.495)"/><symbol id="F"><path transform="translate(-.008) scale(.001)" d="M342 632 208 269h268L342 632zm-56 97h112L676 0H573l-66 187H178L112 0H8l278 729z"/></symbol><symbol id="G"><path transform="matrix(.001 0 0 .001 -.055 .013)" d="M488 526v-84c-26 14-51 24-77 31s-51 11-77 11c-58 0-104-19-136-56s-48-89-48-155c0-67 16-119 48-156s78-55 136-55c26 0 51 3 77 10s51 18 77 32V21C462 9 436 0 410-5c-27-5-56-8-86-8-82 0-148 25-196 77-49 51-73 121-73 209 0 89 24 159 73 210s116 77 202 77c28 0 55-3 81-9s52-14 77-25z"/></symbol><symbol id="H"><path transform="matrix(.001 0 0 .001 -.085 .013)" d="M85 216v331h90V219c0-52 10-90 30-116s50-39 91-39c48 0 87 15 115 46s42 73 42 127v310h90V0h-90v84c-22-34-48-58-76-74-29-15-62-23-100-23-63 0-111 19-143 58-33 38-49 95-49 171zm226 344z"/></symbol><symbol id="I"><path transform="matrix(.001 0 0 .001 -.03 .207)" d="M322-50c-26-64-51-107-75-127s-56-30-96-30H79v75h53c24 0 43 6 57 18s29 39 46 83l16 40L30 547h95l171-428 171 428h95L322-50z"/></symbol><use xlink:href="#F" transform="matrix(0 -10 -10 0 28.616 197.307)"/><use xlink:href="#G" transform="matrix(0 -10 -10 0 28.746 190.17)"/><use xlink:href="#G" transform="matrix(0 -10 -10 0 28.746 184.67)"/><use xlink:href="#H" transform="matrix(0 -10 -10 0 28.746 178.87)"/><use xlink:href="#l" transform="matrix(0 -10 -10 0 28.616 172.47)"/><use xlink:href="#m" transform="matrix(0 -10 -10 0 28.746 168.67)"/><use xlink:href="#G" transform="matrix(0 -10 -10 0 28.746 162.59)"/><use xlink:href="#I" transform="matrix(0 -10 -10 0 30.686 157.34)"/><clipPath id="J"><path transform="matrix(1 0 0 -1 0 345.6)" d="M57.6 38.016h357.12v266.112H57.6z"/></clipPath><g clip-path="url(#J)"><path d="M72.48 183.265h29.76V65.9H72.48v117.366z" fill="#7d7"/><path stroke-miterlimit="10" fill="none" stroke="#000" d="M72.48 183.265h29.76V65.9H72.48v117.366z"/></g><clipPath id="K"><path transform="matrix(1 0 0 -1 0 345.6)" d="M57.6 38.016h357.12v266.112H57.6z"/></clipPath><g clip-path="url(#K)"><path stroke-linecap="square" stroke-linejoin="round" fill="none" stroke="#000" d="M87.36 183.265v112.223"/></g><clipPath id="L"><path transform="matrix(1 0 0 -1 0 345.6)" d="M57.6 38.016h357.12v266.112H57.6z"/></clipPath><g clip-path="url(#L)"><path stroke-linecap="square" stroke-linejoin="round" fill="none" stroke="#000" d="M87.36 65.9V53.567"/></g><clipPath id="M"><path transform="matrix(1 0 0 -1 0 345.6)" d="M57.6 38.016h357.12v266.112H57.6z"/></clipPath><g clip-path="url(#M)"><path stroke-linecap="square" stroke-linejoin="round" fill="none" stroke="#000" d="M79.92 295.488H94.8"/></g><clipPath id="N"><path transform="matrix(1 0 0 -1 0 345.6)" d="M57.6 38.016h357.12v266.112H57.6z"/></clipPath><g clip-path="url(#N)"><path stroke-linecap="square" stroke-linejoin="round" fill="none" stroke="#000" d="M79.92 53.568H94.8"/></g><clipPath id="O"><path transform="matrix(1 0 0 -1 0 345.6)" d="M57.6 38.016h357.12v266.112H57.6z"/></clipPath><g clip-path="url(#O)"><path d="M132 143.049h29.76v-75.29H132v75.29z" fill="#779ecb"/><path stroke-miterlimit="10" fill="none" stroke="#000" d="M132 143.049h29.76v-75.29H132v75.29z"/></g><clipPath id="P"><path transform="matrix(1 0 0 -1 0 345.6)" d="M57.6 38.016h357.12v266.112H57.6z"/></clipPath><g clip-path="url(#P)"><path stroke-linecap="square" stroke-linejoin="round" fill="none" stroke="#000" d="M146.88 143.049v76.343"/></g><clipPath id="Q"><path transform="matrix(1 0 0 -1 0 345.6)" d="M57.6 38.016h357.12v266.112H57.6z"/></clipPath><g clip-path="url(#Q)"><path stroke-linecap="square" stroke-linejoin="round" fill="none" stroke="#000" d="M146.88 67.758v-14.19"/></g><clipPath id="R"><path transform="matrix(1 0 0 -1 0 345.6)" d="M57.6 38.016h357.12v266.112H57.6z"/></clipPath><g clip-path="url(#R)"><path stroke-linecap="square" stroke-linejoin="round" fill="none" stroke="#000" d="M139.44 219.392h14.88"/></g><clipPath id="S"><path transform="matrix(1 0 0 -1 0 345.6)" d="M57.6 38.016h357.12v266.112H57.6z"/></clipPath><g clip-path="url(#S)"><path stroke-linecap="square" stroke-linejoin="round" fill="none" stroke="#000" d="M139.44 53.568h14.88"/></g><clipPath id="T"><path transform="matrix(1 0 0 -1 0 345.6)" d="M57.6 38.016h357.12v266.112H57.6z"/></clipPath><g clip-path="url(#T)"><path d="M191.52 140.26h29.76V70.857h-29.76v69.403z" fill="#ffb347"/><path stroke-miterlimit="10" fill="none" stroke="#000" d="M191.52 140.26h29.76V70.857h-29.76v69.403z"/></g><clipPath id="U"><path transform="matrix(1 0 0 -1 0 345.6)" d="M57.6 38.016h357.12v266.112H57.6z"/></clipPath><g clip-path="url(#U)"><path stroke-linecap="square" stroke-linejoin="round" fill="none" stroke="#000" d="M206.4 140.26v30.798"/></g><clipPath id="V"><path transform="matrix(1 0 0 -1 0 345.6)" d="M57.6 38.016h357.12v266.112H57.6z"/></clipPath><g clip-path="url(#V)"><path stroke-linecap="square" stroke-linejoin="round" fill="none" stroke="#000" d="M206.4 70.857V53.568"/></g><clipPath id="W"><path transform="matrix(1 0 0 -1 0 345.6)" d="M57.6 38.016h357.12v266.112H57.6z"/></clipPath><g clip-path="url(#W)"><path stroke-linecap="square" stroke-linejoin="round" fill="none" stroke="#000" d="M198.96 171.058h14.88"/></g><clipPath id="X"><path transform="matrix(1 0 0 -1 0 345.6)" d="M57.6 38.016h357.12v266.112H57.6z"/></clipPath><g clip-path="url(#X)"><path stroke-linecap="square" stroke-linejoin="round" fill="none" stroke="#000" d="M198.96 53.568h14.88"/></g><clipPath id="Y"><path transform="matrix(1 0 0 -1 0 345.6)" d="M57.6 38.016h357.12v266.112H57.6z"/></clipPath><g clip-path="url(#Y)"><path d="M251.04 106.984h29.76V62.49h-29.76v44.493z" fill="#c23b22"/><path stroke-miterlimit="10" fill="none" stroke="#000" d="M251.04 106.984h29.76V62.49h-29.76v44.493z"/></g><clipPath id="Z"><path transform="matrix(1 0 0 -1 0 345.6)" d="M57.6 38.016h357.12v266.112H57.6z"/></clipPath><g clip-path="url(#Z)"><path stroke-linecap="square" stroke-linejoin="round" fill="none" stroke="#000" d="M265.92 106.984v64.074"/></g><clipPath id="aa"><path transform="matrix(1 0 0 -1 0 345.6)" d="M57.6 38.016h357.12v266.112H57.6z"/></clipPath><g clip-path="url(#aa)"><path stroke-linecap="square" stroke-linejoin="round" fill="none" stroke="#000" d="M265.92 62.491v-8.923"/></g><clipPath id="ab"><path transform="matrix(1 0 0 -1 0 345.6)" d="M57.6 38.016h357.12v266.112H57.6z"/></clipPath><g clip-path="url(#ab)"><path stroke-linecap="square" stroke-linejoin="round" fill="none" stroke="#000" d="M258.48 171.058h14.88"/></g><clipPath id="ac"><path transform="matrix(1 0 0 -1 0 345.6)" d="M57.6 38.016h357.12v266.112H57.6z"/></clipPath><g clip-path="url(#ac)"><path stroke-linecap="square" stroke-linejoin="round" fill="none" stroke="#000" d="M258.48 53.568h14.88"/></g><clipPath id="ad"><path transform="matrix(1 0 0 -1 0 345.6)" d="M57.6 38.016h357.12v266.112H57.6z"/></clipPath><g clip-path="url(#ad)"><path d="M310.56 61.376h29.76v-7.808h-29.76v7.808z" fill="#836953"/><path stroke-miterlimit="10" fill="none" stroke="#000" d="M310.56 61.376h29.76v-7.808h-29.76v7.808z"/></g><clipPath id="ae"><path transform="matrix(1 0 0 -1 0 345.6)" d="M57.6 38.016h357.12v266.112H57.6z"/></clipPath><g clip-path="url(#ae)"><path stroke-linecap="square" stroke-linejoin="round" fill="none" stroke="#000" d="M325.44 61.376v6.568"/></g><clipPath id="af"><path transform="matrix(1 0 0 -1 0 345.6)" d="M57.6 38.016h357.12v266.112H57.6z"/></clipPath><g clip-path="url(#af)"><path stroke-linecap="square" stroke-linejoin="round" fill="none" stroke="#000" d="M325.44 53.568h0"/></g><clipPath id="ag"><path transform="matrix(1 0 0 -1 0 345.6)" d="M57.6 38.016h357.12v266.112H57.6z"/></clipPath><g clip-path="url(#ag)"><path stroke-linecap="square" stroke-linejoin="round" fill="none" stroke="#000" d="M318 67.944h14.88"/></g><clipPath id="ah"><path transform="matrix(1 0 0 -1 0 345.6)" d="M57.6 38.016h357.12v266.112H57.6z"/></clipPath><g clip-path="url(#ah)"><path stroke-linecap="square" stroke-linejoin="round" fill="none" stroke="#000" d="M318 53.568h14.88"/></g><clipPath id="ai"><path transform="matrix(1 0 0 -1 0 345.6)" d="M57.6 38.016h357.12v266.112H57.6z"/></clipPath><g clip-path="url(#ai)"><path d="M370.08 54.312h29.76v-.744h-29.76v.744z" fill="#fdfd96"/><path stroke-miterlimit="10" fill="none" stroke="#000" d="M370.08 54.312h29.76v-.744h-29.76v.744z"/></g><clipPath id="aj"><path transform="matrix(1 0 0 -1 0 345.6)" d="M57.6 38.016h357.12v266.112H57.6z"/></clipPath><g clip-path="url(#aj)"><path stroke-linecap="square" stroke-linejoin="round" fill="none" stroke="#000" d="M384.96 54.312h0"/></g><clipPath id="ak"><path transform="matrix(1 0 0 -1 0 345.6)" d="M57.6 38.016h357.12v266.112H57.6z"/></clipPath><g clip-path="url(#ak)"><path stroke-linecap="square" stroke-linejoin="round" fill="none" stroke="#000" d="M384.96 53.568h0"/></g><clipPath id="al"><path transform="matrix(1 0 0 -1 0 345.6)" d="M57.6 38.016h357.12v266.112H57.6z"/></clipPath><g clip-path="url(#al)"><path stroke-linecap="square" stroke-linejoin="round" fill="none" stroke="#000" d="M377.52 54.312h14.88"/></g><clipPath id="am"><path transform="matrix(1 0 0 -1 0 345.6)" d="M57.6 38.016h357.12v266.112H57.6z"/></clipPath><g clip-path="url(#am)"><path stroke-linecap="square" stroke-linejoin="round" fill="none" stroke="#000" d="M377.52 53.568h14.88"/></g><clipPath id="an"><path transform="matrix(1 0 0 -1 0 345.6)" d="M57.6 38.016h357.12v266.112H57.6z"/></clipPath><g clip-path="url(#an)"><clipPath id="ao"><path transform="matrix(1 0 0 -1 384.96 58.03)" d="M-8-8H8V8H-8z"/></clipPath><g clip-path="url(#ao)"><path stroke-linejoin="round" fill="none" stroke="#000" d="M384.96 61.03a3 3 0 1 0 0-6 3 3 0 0 0 0 6z"/></g><clipPath id="ap"><path transform="matrix(1 0 0 -1 384.96 56.542)" d="M-8-8H8V8H-8z"/></clipPath><g clip-path="url(#ap)"><path stroke-linejoin="round" fill="none" stroke="#000" d="M384.96 59.542a3 3 0 1 0 0-6 3 3 0 0 0 0 6z"/></g><clipPath id="aq"><path transform="matrix(1 0 0 -1 384.96 57.286)" d="M-8-8H8V8H-8z"/></clipPath><g clip-path="url(#aq)"><path stroke-linejoin="round" fill="none" stroke="#000" d="M384.96 60.286a3 3 0 1 0 0-6 3 3 0 0 0 0 6z"/></g><clipPath id="ar"><path transform="matrix(1 0 0 -1 384.96 59.269)" d="M-8-8H8V8H-8z"/></clipPath><g clip-path="url(#ar)"><path stroke-linejoin="round" fill="none" stroke="#000" d="M384.96 62.269a3 3 0 1 0 0-6 3 3 0 0 0 0 6z"/></g></g><clipPath id="as"><path transform="matrix(1 0 0 -1 0 345.6)" d="M57.6 38.016h357.12v266.112H57.6z"/></clipPath><g clip-path="url(#as)"><path stroke-linejoin="round" fill="none" stroke="#ff7f0e" d="M72.48 85.915h29.76"/></g><clipPath id="at"><path transform="matrix(1 0 0 -1 0 345.6)" d="M57.6 38.016h357.12v266.112H57.6z"/></clipPath><g clip-path="url(#at)"><path stroke-linejoin="round" fill="none" stroke="#ff7f0e" d="M132 111.321h29.76"/></g><clipPath id="au"><path transform="matrix(1 0 0 -1 0 345.6)" d="M57.6 38.016h357.12v266.112H57.6z"/></clipPath><g clip-path="url(#au)"><path stroke-linejoin="round" fill="none" stroke="#ff7f0e" d="M191.52 107.727h29.76"/></g><clipPath id="av"><path transform="matrix(1 0 0 -1 0 345.6)" d="M57.6 38.016h357.12v266.112H57.6z"/></clipPath><g clip-path="url(#av)"><path stroke-linejoin="round" fill="none" stroke="#ff7f0e" d="M251.04 74.513h29.76"/></g><clipPath id="aw"><path transform="matrix(1 0 0 -1 0 345.6)" d="M57.6 38.016h357.12v266.112H57.6z"/></clipPath><g clip-path="url(#aw)"><path stroke-linejoin="round" fill="none" stroke="#ff7f0e" d="M310.56 54.436h29.76"/></g><clipPath id="ax"><path transform="matrix(1 0 0 -1 0 345.6)" d="M57.6 38.016h357.12v266.112H57.6z"/></clipPath><g clip-path="url(#ax)"><path stroke-linejoin="round" fill="none" stroke="#ff7f0e" d="M370.08 53.568h29.76"/></g><path stroke-width=".8" stroke-linecap="square" stroke-miterlimit="10" fill="none" stroke="#000" d="M57.6 307.584V41.472M414.72 307.584V41.472M57.6 307.584h357.12M57.6 41.472h357.12"/><symbol id="ay"><path transform="matrix(.001 0 0 .001 -.055 .013)" d="M306 484c-48 0-86-19-114-57s-42-89-42-154c0-66 13-117 41-155s66-56 115-56c48 0 86 18 114 56s42 89 42 155c0 64-14 116-42 154s-66 57-114 57zm0 76c78 0 139-26 184-76 44-51 67-121 67-211s-23-160-67-210c-45-51-106-76-184-76-79 0-141 25-185 76-44 50-66 120-66 210s22 160 66 211c44 50 106 76 185 76z"/></symbol><symbol id="az"><path transform="translate(-.029) scale(.001)" d="M549 547 351 281 559 0H453L294 215 135 0H29l212 286L47 547h106l145-195 145 195h106z"/></symbol><symbol id="aA"><path transform="translate(-.027) scale(.001)" d="M183 702V547h185v-70H183V180c0-45 6-74 18-86 12-13 37-19 75-19h92V0h-92c-70 0-118 13-144 39s-39 73-39 141v297H27v70h66v155h90z"/></symbol><symbol id="aC"><path transform="translate(-.023) scale(.001)" d="M371 760v-75h-86c-32 0-55-7-67-20-13-13-19-36-19-70v-48h148v-70H199V0h-90v477H23v70h86v38c0 60 14 105 42 133s73 42 135 42h85z"/></symbol><symbol id="aD"><path transform="matrix(.001 0 0 .001 -.055 .207)" d="M454 280c0 64-14 115-40 151-27 36-65 54-113 54s-86-18-113-54-40-87-40-151c0-65 13-115 40-151s65-54 113-54 86 18 113 54c26 36 40 86 40 151zm90-212c0-92-21-161-62-207-42-45-105-68-190-68-32 0-61 3-89 7-28 5-56 12-82 22v87c26-14 52-24 78-31s52-11 79-11c58 0 102 16 132 46 29 31 44 77 44 139v44c-19-32-43-56-72-72S319 0 279 0c-68 0-122 25-163 76S55 195 55 280c0 84 20 152 61 203s95 77 163 77c40 0 74-8 103-24s53-40 72-72v83h90V68z"/></symbol><symbol id="aE"><path transform="matrix(.001 0 0 .001 -.091 .013)" d="M487 273c0 66-14 117-41 155-28 38-65 57-112 57-48 0-85-19-112-57-28-38-41-89-41-155s13-118 41-156c27-38 64-56 112-56 47 0 84 18 112 56 27 38 41 90 41 156zM181 464c18 32 42 56 71 72s64 24 104 24c66 0 120-27 162-79 41-53 62-122 62-208s-21-156-62-208c-42-52-96-78-162-78-40 0-75 8-104 23s-53 39-71 72V0H91v760h90V464z"/></symbol><symbol id="aF"><path transform="translate(-.091) scale(.001)" d="M549 330V0h-90v327c0 52-11 90-31 116s-50 39-90 39c-49 0-87-16-115-47s-42-73-42-126V0H91v760h90V462c21 32 46 57 76 73 29 16 63 25 101 25 62 0 110-20 142-59s49-96 49-171z"/></symbol><symbol id="aG"><path transform="translate(-.091) scale(.001)" d="M520 442c22 40 49 69 80 89 31 19 68 29 111 29 56 0 100-20 131-60s47-97 47-170V0h-90v327c0 52-10 91-28 117-19 25-47 38-85 38-47 0-84-16-111-47s-40-73-40-126V0h-90v327c0 52-10 91-28 117-19 25-48 38-86 38-46 0-83-16-110-47s-40-73-40-126V0H91v547h90v-85c20 33 45 58 74 74 28 16 62 24 102 24s73-10 101-30 48-50 62-88z"/></symbol><symbol id="aH"><path transform="translate(-.091) scale(.001)" d="M91 760h90V311l268 236h115L274 291 576 0H459L181 267V0H91v760z"/></symbol><symbol id="aI"><path transform="matrix(.001 0 0 .001 -.055 .013)" d="M454 464v296h90V0h-90v82c-19-33-43-57-72-72s-63-23-103-23c-66 0-120 26-162 78S55 187 55 273s20 155 62 208c42 52 96 79 162 79 40 0 74-8 103-24s53-40 72-72zM148 273c0-66 13-118 40-156s64-56 112-56 85 18 113 56c27 38 41 90 41 156s-14 117-41 155c-28 38-65 57-113 57s-85-19-112-57-40-89-40-155z"/></symbol><symbol id="aJ"><path transform="matrix(.001 0 0 .001 -.054 .013)" d="M443 531v-85c-26 12-52 22-79 29-28 6-56 10-85 10-45 0-79-7-101-21s-33-34-33-61c0-21 8-37 24-49s48-24 96-34l31-7c64-14 109-34 136-58 26-25 40-60 40-104 0-51-20-91-60-120-40-30-96-44-166-44-30 0-60 3-92 8S89 8 54 20v93c33-18 66-31 98-39 32-9 64-13 96-13 42 0 75 7 98 21 22 14 34 35 34 62 0 24-9 43-25 56s-52 26-108 38l-31 7c-56 12-97 30-121 54-25 24-37 57-37 100 0 51 18 91 54 119s88 42 156 42c33 0 64-3 94-8 29-5 56-12 81-21z"/></symbol><use xlink:href="#p" transform="matrix(12 0 0 -12 76.211 35.472)"/><use xlink:href="#ay" transform="matrix(12 0 0 -12 83.927 35.628)"/><use xlink:href="#az" transform="matrix(12 0 0 -12 90.6 35.472)"/><use xlink:href="#h" transform="matrix(12 0 0 -12 98.448 37.956)"/><use xlink:href="#j" transform="matrix(12 0 0 -12 106.104 35.472)"/><use xlink:href="#ay" transform="matrix(12 0 0 -12 108.972 35.628)"/><use xlink:href="#aA" transform="matrix(12 0 0 -12 115.98 35.472)"/><use xlink:href="#aB" transform="matrix(12 0 0 -12 120.36 35.472)"/><use xlink:href="#ay" transform="matrix(12 0 0 -12 124.836 35.628)"/><use xlink:href="#aC" transform="matrix(12 0 0 -12 131.796 35.472)"/><use xlink:href="#aB" transform="matrix(12 0 0 -12 135.744 35.472)"/><use xlink:href="#aD" transform="matrix(12 0 0 -12 140.22 37.956)"/><use xlink:href="#l" transform="matrix(12 0 0 -12 148.272 35.472)"/><use xlink:href="#ay" transform="matrix(12 0 0 -12 152.522 35.628)"/><use xlink:href="#H" transform="matrix(12 0 0 -12 160.226 35.628)"/><use xlink:href="#h" transform="matrix(12 0 0 -12 167.906 37.956)"/><use xlink:href="#aB" transform="matrix(12 0 0 -12 174.434 35.472)"/><use xlink:href="#m" transform="matrix(12 0 0 -12 178.97 35.628)"/><use xlink:href="#G" transform="matrix(12 0 0 -12 186.266 35.628)"/><use xlink:href="#G" transform="matrix(12 0 0 -12 192.866 35.628)"/><use xlink:href="#H" transform="matrix(12 0 0 -12 199.826 35.628)"/><use xlink:href="#l" transform="matrix(12 0 0 -12 207.506 35.472)"/><use xlink:href="#m" transform="matrix(12 0 0 -12 212.066 35.628)"/><use xlink:href="#G" transform="matrix(12 0 0 -12 219.362 35.628)"/><use xlink:href="#I" transform="matrix(12 0 0 -12 225.662 37.956)"/><use xlink:href="#aB" transform="matrix(12 0 0 -12 232.406 35.472)"/><use xlink:href="#ay" transform="matrix(12 0 0 -12 236.882 35.628)"/><use xlink:href="#o" transform="matrix(12 0 0 -12 244.658 35.472)"/><use xlink:href="#aB" transform="matrix(12 0 0 -12 251.174 35.472)"/><use xlink:href="#E" transform="matrix(12 0 0 -12 256.31 35.472)"/><use xlink:href="#A" transform="matrix(12 0 0 -12 263.462 35.628)"/><use xlink:href="#aB" transform="matrix(12 0 0 -12 270.254 35.472)"/><use xlink:href="#aE" transform="matrix(12 0 0 -12 275.162 35.628)"/><use xlink:href="#i" transform="matrix(12 0 0 -12 282.35 35.628)"/><use xlink:href="#o" transform="matrix(12 0 0 -12 290.162 35.472)"/><use xlink:href="#G" transform="matrix(12 0 0 -12 297.338 35.628)"/><use xlink:href="#aF" transform="matrix(12 0 0 -12 304.37 35.472)"/><use xlink:href="#aG" transform="matrix(12 0 0 -12 311.978 35.472)"/><use xlink:href="#m" transform="matrix(12 0 0 -12 323.294 35.628)"/><use xlink:href="#l" transform="matrix(12 0 0 -12 331.022 35.472)"/><use xlink:href="#aH" transform="matrix(12 0 0 -12 335.954 35.472)"/><use xlink:href="#aB" transform="matrix(12 0 0 -12 341.81 35.472)"/><use xlink:href="#aI" transform="matrix(12 0 0 -12 346.286 35.628)"/><use xlink:href="#m" transform="matrix(12 0 0 -12 353.966 35.628)"/><use xlink:href="#aA" transform="matrix(12 0 0 -12 360.926 35.472)"/><use xlink:href="#m" transform="matrix(12 0 0 -12 366.026 35.628)"/><use xlink:href="#aJ" transform="matrix(12 0 0 -12 373.31 35.628)"/><use xlink:href="#i" transform="matrix(12 0 0 -12 379.574 35.628)"/><use xlink:href="#aA" transform="matrix(12 0 0 -12 386.618 35.472)"/><use xlink:href="#aJ" transform="matrix(12 0 0 -12 391.646 35.628)"/><path d="M296.392 302.584H407.72c1.333 0 2-.667 2-2v-13.672c0-1.333-.667-2-2-2H296.392c-1.333 0-2 .667-2 2v13.672c0 1.333.667 2 2 2z" fill="#fff" fill-opacity=".8"/><path stroke-miterlimit="10" fill="none" stroke="#d5d6d5" stroke-opacity=".8" d="M296.392 302.584H407.72c1.333 0 2-.667 2-2v-13.672c0-1.333-.667-2-2-2H296.392c-1.333 0-2 .667-2 2v13.672c0 1.333.667 2 2 2z"/><path d="M298.392 296.506h20v-7h-20z" fill="#7d7"/><path stroke-miterlimit="10" fill="none" stroke="#000" d="M298.392 296.506h20v-7h-20z"/><symbol id="aK"><path transform="matrix(.001 0 0 .001 -.056 .013)" d="M595 104v196H434v81h259V68c-38-28-80-48-126-61s-95-20-147-20c-114 0-204 33-268 99S56 245 56 364c0 118 32 211 96 278 64 66 154 100 268 100 47 0 92-6 135-18s83-29 119-51V568c-37 30-76 53-117 69s-84 24-129 24c-90 0-157-25-201-75-45-50-67-124-67-222 0-99 22-173 67-223 44-50 111-74 201-74 34 0 65 3 93 9s52 15 74 28z"/></symbol><use xlink:href="#aK" transform="matrix(10 0 0 -10 326.952 296.636)"/><use xlink:href="#l" transform="matrix(10 0 0 -10 335.052 296.506)"/><use xlink:href="#ay" transform="matrix(10 0 0 -10 338.583 296.636)"/><use xlink:href="#H" transform="matrix(10 0 0 -10 345.003 296.636)"/><use xlink:href="#h" transform="matrix(10 0 0 -10 351.403 298.576)"/><use xlink:href="#aB" transform="matrix(10 0 0 -10 356.843 296.506)"/><use xlink:href="#F" transform="matrix(10 0 0 -10 360.103 296.506)"/><use xlink:href="#G" transform="matrix(10 0 0 -10 367.241 296.636)"/><use xlink:href="#G" transform="matrix(10 0 0 -10 372.741 296.636)"/><use xlink:href="#H" transform="matrix(10 0 0 -10 378.541 296.636)"/><use xlink:href="#l" transform="matrix(10 0 0 -10 384.941 296.506)"/><use xlink:href="#m" transform="matrix(10 0 0 -10 388.741 296.636)"/><use xlink:href="#G" transform="matrix(10 0 0 -10 394.821 296.636)"/><use xlink:href="#I" transform="matrix(10 0 0 -10 400.071 298.576)"/></svg>