<svg xmlns="http://www.w3.org/2000/svg" xmlns:xlink="http://www.w3.org/1999/xlink" width="614.4" height="460.8" viewBox="0 0 460.8 345.6"><path d="M0 345.6h460.8V0H0z" fill="#fff"/><path d="M57.6 307.584h357.12V41.472H57.6z" fill="#fff"/><path stroke-width=".8" stroke-linejoin="round" fill="none" stroke="#000" d="M87.36 307.584v3.5"/><symbol id="a"><path transform="matrix(.001 0 0 .001 -.087 .013)" d="M87 729h99V286c0-78 14-135 42-169s74-51 138-51c63 0 109 17 137 51s43 91 43 169v443h99V274c0-96-24-167-71-215S458-13 366-13 204 11 157 59 87 178 87 274v455z"/></symbol><symbol id="b"><path transform="translate(-.098) scale(.001)" d="M98 729h99V83h355V0H98v729z"/></symbol><symbol id="c"><path transform="translate(-.098) scale(.001)" d="M197 648V374h124c46 0 81 11 106 35s38 58 38 102-13 77-38 101-60 36-106 36H197zm-99 81h223c81 0 143-19 185-56s63-91 63-162c0-72-21-127-63-163-42-37-104-55-185-55H197V0H98v729z"/></symbol><use xlink:href="#a" transform="matrix(10 0 0 -10 78.761 322.308)"/><use xlink:href="#b" transform="matrix(10 0 0 -10 86.191 322.178)"/><use xlink:href="#c" transform="matrix(10 0 0 -10 91.761 322.178)"/><path stroke-width=".8" stroke-linejoin="round" fill="none" stroke="#000" d="M146.88 307.584v3.5"/><symbol id="d"><path transform="translate(-.098) scale(.001)" d="M98 729h99V0H98v729z"/></symbol><symbol id="e"><path transform="matrix(.001 0 0 .001 -.056 .013)" d="M394 662c-72 0-129-27-171-80-42-54-63-126-63-218s21-165 63-218c42-54 99-80 171-80 71 0 128 26 170 80 42 53 63 126 63 218s-21 164-63 218c-42 53-99 80-170 80zm0 80c102 0 183-35 245-103 61-68 92-160 92-275 0-116-31-207-92-275C577 21 496-13 394-13 291-13 209 21 148 89c-62 68-92 159-92 275 0 115 30 207 92 275 61 68 143 103 246 103z"/></symbol><symbol id="f"><path transform="translate(-.098) scale(.001)" d="M98 729h147l186-496 187 496h147V0h-96v640L481 140h-99L194 640V0H98v729z"/></symbol><use xlink:href="#d" transform="matrix(10 0 0 -10 132.516 322.178)"/><use xlink:href="#c" transform="matrix(10 0 0 -10 135.466 322.178)"/><use xlink:href="#b" transform="matrix(10 0 0 -10 141.496 322.178)"/><use xlink:href="#e" transform="matrix(10 0 0 -10 146.303 322.308)"/><use xlink:href="#f" transform="matrix(10 0 0 -10 154.593 322.178)"/><path stroke-width=".8" stroke-linejoin="round" fill="none" stroke="#000" d="M206.4 307.584v3.5"/><symbol id="g"><path transform="matrix(.001 0 0 .001 -.066 .013)" d="M535 705v-96c-38 18-73 31-106 40-34 8-66 13-96 13-54 0-96-11-125-31-29-21-43-51-43-89 0-32 9-57 29-73 19-17 56-30 110-40l60-12c73-14 127-39 162-74 35-36 53-83 53-142 0-71-24-124-71-160-48-36-117-54-208-54-35 0-72 4-111 11S110 16 69 32v102c40-23 79-40 117-51 38-12 76-17 114-17 56 0 99 11 130 33 30 22 46 53 46 95 0 36-11 64-33 84s-58 35-108 45l-60 12c-74 14-127 37-160 69-33 31-49 74-49 130 0 64 22 115 68 152 45 37 108 56 188 56 34 0 68-3 104-9 35-6 71-16 109-28z"/></symbol><symbol id="h"><path transform="matrix(.001 0 0 .001 -.091 .207)" d="M181 82v-289H91v754h90v-83c18 32 42 56 71 72s64 24 104 24c66 0 120-27 162-79 41-53 62-122 62-208s-21-156-62-208c-42-52-96-78-162-78-40 0-75 8-104 23s-53 39-71 72zm306 191c0 66-14 117-41 155-28 38-65 57-112 57-48 0-85-19-112-57-28-38-41-89-41-155s13-118 41-156c27-38 64-56 112-56 47 0 84 18 112 56 27 38 41 90 41 156z"/></symbol><symbol id="i"><path transform="matrix(.001 0 0 .001 -.055 .013)" d="M562 296v-44H149c4-62 22-110 56-142 33-32 79-48 139-48 34 0 68 4 100 12s65 21 97 39V28c-32-14-65-25-99-31s-69-10-103-10c-88 0-157 25-208 75S55 181 55 268c0 89 24 160 72 213 48 52 114 79 196 79 74 0 132-24 175-71 42-48 64-112 64-193zm-90 26c-1 49-15 88-41 118-27 29-63 44-107 44-50 0-90-15-120-43s-48-68-52-119h320z"/></symbol><symbol id="j"><path transform="translate(-.094) scale(.001)" d="M94 760h90V0H94v760z"/></symbol><use xlink:href="#g" transform="matrix(10 0 0 -10 194.857 322.308)"/><use xlink:href="#h" transform="matrix(10 0 0 -10 201.457 324.248)"/><use xlink:href="#i" transform="matrix(10 0 0 -10 207.447 322.308)"/><use xlink:href="#j" transform="matrix(10 0 0 -10 213.987 322.178)"/><use xlink:href="#j" transform="matrix(10 0 0 -10 216.767 322.178)"/><path stroke-width=".8" stroke-linejoin="round" fill="none" stroke="#000" d="M265.92 307.584v3.5"/><symbol id="k"><path transform="translate(-.098) scale(.001)" d="M197 648V81h119c100 0 174 22 221 68 46 46 70 118 70 216s-24 169-70 215c-47 45-121 68-221 68H197zm-99 81h203c141 0 245-30 311-88 66-59 99-151 99-276 0-126-34-218-100-277S441 0 301 0H98v729z"/></symbol><symbol id="l"><path transform="translate(-.091) scale(.001)" d="M411 463c-10 6-21 10-33 13-12 2-25 4-39 4-51 0-90-17-117-50-28-33-41-80-41-142V0H91v547h90v-85c18 33 43 58 73 74s67 24 111 24c6 0 13-1 21-1 7-1 15-2 25-4v-92z"/></symbol><symbol id="m"><path transform="matrix(.001 0 0 .001 -.06 .013)" d="M343 275c-73 0-123-9-151-25-28-17-42-45-42-85 0-32 10-58 31-76 21-19 50-28 86-28 50 0 90 17 120 53 30 35 45 82 45 141v20h-89zm179 37V0h-90v83c-21-34-47-58-77-73s-68-23-112-23c-56 0-101 15-134 46s-49 73-49 126c0 61 20 107 62 139 41 31 102 47 184 47h126v9c0 41-14 73-41 96-27 22-65 34-114 34-32 0-62-4-92-12s-58-19-85-33v83c32 12 64 22 95 28s61 10 91 10c79 0 138-21 177-62s59-103 59-186z"/></symbol><symbol id="n"><path transform="translate(-.094) scale(.001)" d="M94 547h90V0H94v547zm0 213h90V646H94v114z"/></symbol><symbol id="o"><path transform="translate(-.091) scale(.001)" d="M549 330V0h-90v327c0 52-11 90-31 116s-50 39-90 39c-49 0-87-16-115-47s-42-73-42-126V0H91v547h90v-85c21 32 46 57 76 73 29 16 63 25 101 25 62 0 110-20 142-59s49-96 49-171z"/></symbol><use xlink:href="#k" transform="matrix(10 0 0 -10 253.369 322.178)"/><use xlink:href="#l" transform="matrix(10 0 0 -10 260.999 322.178)"/><use xlink:href="#m" transform="matrix(10 0 0 -10 264.799 322.308)"/><use xlink:href="#n" transform="matrix(10 0 0 -10 271.269 322.178)"/><use xlink:href="#o" transform="matrix(10 0 0 -10 274.019 322.178)"/><path stroke-width=".8" stroke-linejoin="round" fill="none" stroke="#000" d="M325.44 307.584v3.5"/><symbol id="p"><path transform="translate(-.098) scale(.001)" d="M197 348V81h158c53 0 92 11 118 33 25 22 38 55 38 101 0 45-13 78-38 100-26 22-65 33-118 33H197zm0 300V428h146c48 0 83 9 107 27s36 45 36 83c0 36-12 64-36 82s-59 28-107 28H197zm-99 81h252c75 0 133-16 174-47 40-32 61-76 61-133 0-45-11-81-32-107s-51-43-91-49c48-11 86-33 113-66 26-33 40-74 40-123 0-66-23-116-67-151C504 17 441 0 360 0H98v729z"/></symbol><use xlink:href="#p" transform="matrix(10 0 0 -10 313.31 322.178)"/><use xlink:href="#l" transform="matrix(10 0 0 -10 320.1 322.178)"/><use xlink:href="#m" transform="matrix(10 0 0 -10 323.9 322.308)"/><use xlink:href="#n" transform="matrix(10 0 0 -10 330.37 322.178)"/><use xlink:href="#o" transform="matrix(10 0 0 -10 333.12 322.178)"/><path stroke-width=".8" stroke-linejoin="round" fill="none" stroke="#000" d="M384.96 307.584v3.5"/><symbol id="q"><path transform="translate(-.098) scale(.001)" d="M98 729h461v-83H197V430h347v-83H197V83h371V0H98v729z"/></symbol><symbol id="r"><path transform="translate(-.098) scale(.001)" d="M444 342c21-8 42-23 62-46 20-24 40-56 60-97L666 0H560l-93 187c-24 48-48 81-70 97-23 16-54 24-93 24H197V0H98v729h223c83 0 145-18 186-52 41-35 62-88 62-158 0-46-11-85-32-115-22-30-53-51-93-62zM197 648V389h124c47 0 83 11 107 33s37 54 37 97c0 42-13 74-37 96s-60 33-107 33H197z"/></symbol><use xlink:href="#b" transform="matrix(10 0 0 -10 368.542 322.178)"/><use xlink:href="#q" transform="matrix(10 0 0 -10 374.112 322.178)"/><use xlink:href="#f" transform="matrix(10 0 0 -10 380.432 322.178)"/><use xlink:href="#a" transform="matrix(10 0 0 -10 388.952 322.308)"/><use xlink:href="#r" transform="matrix(10 0 0 -10 396.382 322.178)"/><clipPath id="s"><path transform="matrix(1 0 0 -1 0 345.6)" d="M57.6 38.016h357.12v266.112H57.6z"/></clipPath><g clip-path="url(#s)"><path stroke-width=".8" stroke-linecap="square" stroke-linejoin="round" fill="none" stroke="#bebebe" d="M57.6 284.408h357.12"/></g><path stroke-width=".8" stroke-linejoin="round" fill="none" stroke="#000" d="M57.6 284.408h-3.5"/><symbol id="t"><path transform="matrix(.001 0 0 .001 -.066 .013)" d="M318 664c-51 0-89-25-115-75s-38-125-38-225 12-175 38-225 64-75 115-75 89 25 115 75c25 50 38 125 38 225s-13 175-38 225c-26 50-64 75-115 75zm0 78c81 0 143-33 187-97 43-65 65-159 65-281 0-123-22-217-65-281-44-64-106-96-188-96S173 19 130 83 66 241 66 364c0 122 21 216 64 281 43 64 106 97 188 97z"/></symbol><symbol id="u"><path transform="translate(-.107) scale(.001)" d="M107 124h103V0H107v124z"/></symbol><symbol id="v"><path transform="matrix(.001 0 0 .001 -.077 .013)" d="M108 729h387v-83H198V467c14 5 29 9 43 11s29 4 43 4c81 0 145-23 193-67 48-45 72-105 72-181 0-79-25-140-74-183S357-13 269-13c-31 0-62 3-94 7-32 5-64 12-98 23v99c29-16 59-28 91-36 31-8 64-11 99-11 56 0 101 14 134 44 32 30 49 70 49 121 0 50-17 90-49 120-33 30-78 45-134 45-26 0-53-3-79-9s-53-15-80-27v366z"/></symbol><use xlink:href="#t" transform="matrix(10 0 0 -10 35.354 288.335)"/><use xlink:href="#u" transform="matrix(10 0 0 -10 42.124 288.205)"/><use xlink:href="#v" transform="matrix(10 0 0 -10 45.004 288.335)"/><clipPath id="w"><path transform="matrix(1 0 0 -1 0 345.6)" d="M57.6 38.016h357.12v266.112H57.6z"/></clipPath><g clip-path="url(#w)"><path stroke-width=".8" stroke-linecap="square" stroke-linejoin="round" fill="none" stroke="#bebebe" d="M57.6 238.24h357.12"/></g><path stroke-width=".8" stroke-linejoin="round" fill="none" stroke="#000" d="M57.6 238.24h-3.5"/><symbol id="x"><path transform="matrix(.001 0 0 .001 -.07 .013)" d="M330 404c-44 0-79-16-105-46s-39-72-39-124c0-53 13-95 39-125s61-45 105-45 79 15 105 45 39 72 39 125c0 52-13 94-39 124s-61 46-105 46zm196 309v-90c-25 12-50 21-75 27-26 6-51 9-75 9-66 0-116-22-150-66s-54-111-58-199c19 28 43 50 72 65s61 23 96 23c73 0 131-23 173-67s64-105 64-181c0-75-23-135-67-180S403-13 330-13c-84 0-149 32-193 96-45 64-67 158-67 281 0 115 27 207 82 275 54 68 128 103 220 103 24 0 49-3 75-7 25-5 51-12 79-22z"/></symbol><use xlink:href="#t" transform="matrix(10 0 0 -10 35.354 242.167)"/><use xlink:href="#u" transform="matrix(10 0 0 -10 42.124 242.037)"/><use xlink:href="#x" transform="matrix(10 0 0 -10 44.934 242.167)"/><clipPath id="y"><path transform="matrix(1 0 0 -1 0 345.6)" d="M57.6 38.016h357.12v266.112H57.6z"/></clipPath><g clip-path="url(#y)"><path stroke-width=".8" stroke-linecap="square" stroke-linejoin="round" fill="none" stroke="#bebebe" d="M57.6 192.072h357.12"/></g><path stroke-width=".8" stroke-linejoin="round" fill="none" stroke="#000" d="M57.6 192.072h-3.5"/><symbol id="z"><path transform="translate(-.082) scale(.001)" d="M82 729h469v-42L286 0H183l249 646H82v83z"/></symbol><use xlink:href="#t" transform="matrix(10 0 0 -10 35.354 195.999)"/><use xlink:href="#u" transform="matrix(10 0 0 -10 42.124 195.869)"/><use xlink:href="#z" transform="matrix(10 0 0 -10 45.054 195.869)"/><clipPath id="A"><path transform="matrix(1 0 0 -1 0 345.6)" d="M57.6 38.016h357.12v266.112H57.6z"/></clipPath><g clip-path="url(#A)"><path stroke-width=".8" stroke-linecap="square" stroke-linejoin="round" fill="none" stroke="#bebebe" d="M57.6 145.904h357.12"/></g><path stroke-width=".8" stroke-linejoin="round" fill="none" stroke="#000" d="M57.6 145.904h-3.5"/><symbol id="B"><path transform="matrix(.001 0 0 .001 -.068 .013)" d="M318 346c-47 0-84-13-111-38s-40-59-40-103 13-79 40-104 64-37 111-37c46 0 83 12 110 38 27 25 41 59 41 103s-14 78-40 103c-27 25-64 38-111 38zm-99 42c-42 10-75 30-99 59s-35 64-35 106c0 58 20 104 62 138 41 34 98 51 171 51 72 0 129-17 171-51 41-34 62-80 62-138 0-42-12-77-36-106s-56-49-98-59c47-11 84-33 111-65 26-32 40-72 40-118 0-71-22-125-65-162-44-38-106-56-186-56S175 5 132 43c-43 37-64 91-64 162 0 46 13 86 40 118 26 32 63 54 111 65zm-36 156c0-38 11-68 35-89s57-31 100-31c42 0 75 10 99 31s36 51 36 89-12 67-36 88-57 32-99 32c-43 0-76-11-100-32s-35-50-35-88z"/></symbol><use xlink:href="#t" transform="matrix(10 0 0 -10 35.354 149.83)"/><use xlink:href="#u" transform="matrix(10 0 0 -10 42.124 149.7)"/><use xlink:href="#B" transform="matrix(10 0 0 -10 44.914 149.83)"/><clipPath id="C"><path transform="matrix(1 0 0 -1 0 345.6)" d="M57.6 38.016h357.12v266.112H57.6z"/></clipPath><g clip-path="url(#C)"><path stroke-width=".8" stroke-linecap="square" stroke-linejoin="round" fill="none" stroke="#bebebe" d="M57.6 99.736h357.12"/></g><path stroke-width=".8" stroke-linejoin="round" fill="none" stroke="#000" d="M57.6 99.736h-3.5"/><symbol id="D"><path transform="matrix(.001 0 0 .001 -.063 .013)" d="M110 15v90c24-12 49-21 75-27 25-6 50-9 75-9 64 0 114 21 148 65s54 110 60 200c-20-28-44-50-72-65-29-15-61-22-96-22-74 0-132 22-174 66S63 417 63 494c0 74 22 134 66 180 44 45 103 68 177 68 84 0 149-33 193-97 44-65 67-159 67-281 0-116-28-207-82-275C429 21 356-13 264-13c-25 0-50 3-75 7-26 4-52 11-79 21zm196 309c44 0 79 15 105 45s39 72 39 125c0 52-13 94-39 124s-61 46-105 46-79-16-105-46-39-72-39-124c0-53 13-95 39-125s61-45 105-45z"/></symbol><use xlink:href="#t" transform="matrix(10 0 0 -10 35.354 103.663)"/><use xlink:href="#u" transform="matrix(10 0 0 -10 42.124 103.533)"/><use xlink:href="#D" transform="matrix(10 0 0 -10 44.864 103.663)"/><clipPath id="E"><path transform="matrix(1 0 0 -1 0 345.6)" d="M57.6 38.016h357.12v266.112H57.6z"/></clipPath><g clip-path="url(#E)"><path stroke-width=".8" stroke-linecap="square" stroke-linejoin="round" fill="none" stroke="#bebebe" d="M57.6 53.568h357.12"/></g><path stroke-width=".8" stroke-linejoin="round" fill="none" stroke="#000" d="M57.6 53.568h-3.5"/><symbol id="F"><path transform="translate(-.11) scale(.001)" d="M124 83h161v556l-175-35v90l174 35h99V83h161V0H124v83z"/></symbol><use xlink:href="#F" transform="matrix(10 0 0 -10 35.794 57.365)"/><use xlink:href="#u" transform="matrix(10 0 0 -10 42.124 57.365)"/><use xlink:href="#t" transform="matrix(10 0 0 -10 44.894 57.495)"/><symbol id="G"><path transform="translate(-.008) scale(.001)" d="M342 632 208 269h268L342 632zm-56 97h112L676 0H573l-66 187H178L112 0H8l278 729z"/></symbol><symbol id="H"><path transform="matrix(.001 0 0 .001 -.055 .013)" d="M488 526v-84c-26 14-51 24-77 31s-51 11-77 11c-58 0-104-19-136-56s-48-89-48-155c0-67 16-119 48-156s78-55 136-55c26 0 51 3 77 10s51 18 77 32V21C462 9 436 0 410-5c-27-5-56-8-86-8-82 0-148 25-196 77-49 51-73 121-73 209 0 89 24 159 73 210s116 77 202 77c28 0 55-3 81-9s52-14 77-25z"/></symbol><symbol id="I"><path transform="matrix(.001 0 0 .001 -.085 .013)" d="M85 216v331h90V219c0-52 10-90 30-116s50-39 91-39c48 0 87 15 115 46s42 73 42 127v310h90V0h-90v84c-22-34-48-58-76-74-29-15-62-23-100-23-63 0-111 19-143 58-33 38-49 95-49 171zm226 344z"/></symbol><symbol id="J"><path transform="matrix(.001 0 0 .001 -.03 .207)" d="M322-50c-26-64-51-107-75-127s-56-30-96-30H79v75h53c24 0 43 6 57 18s29 39 46 83l16 40L30 547h95l171-428 171 428h95L322-50z"/></symbol><use xlink:href="#G" transform="matrix(0 -10 -10 0 28.616 197.307)"/><use xlink:href="#H" transform="matrix(0 -10 -10 0 28.746 190.17)"/><use xlink:href="#H" transform="matrix(0 -10 -10 0 28.746 184.67)"/><use xlink:href="#I" transform="matrix(0 -10 -10 0 28.746 178.87)"/><use xlink:href="#l" transform="matrix(0 -10 -10 0 28.616 172.47)"/><use xlink:href="#m" transform="matrix(0 -10 -10 0 28.746 168.67)"/><use xlink:href="#H" transform="matrix(0 -10 -10 0 28.746 162.59)"/><use xlink:href="#J" transform="matrix(0 -10 -10 0 30.686 157.34)"/><clipPath id="K"><path transform="matrix(1 0 0 -1 0 345.6)" d="M57.6 38.016h357.12v266.112H57.6z"/></clipPath><g clip-path="url(#K)"><path d="M72.48 70.535h29.76V54.03H72.48v16.505z" fill="#7d7"/><path stroke-miterlimit="10" fill="none" stroke="#000" d="M72.48 70.535h29.76V54.03H72.48v16.505z"/></g><clipPath id="L"><path transform="matrix(1 0 0 -1 0 345.6)" d="M57.6 38.016h357.12v266.112H57.6z"/></clipPath><g clip-path="url(#L)"><path stroke-linecap="square" stroke-linejoin="round" fill="none" stroke="#000" d="M87.36 70.535v10.734"/></g><clipPath id="M"><path transform="matrix(1 0 0 -1 0 345.6)" d="M57.6 38.016h357.12v266.112H57.6z"/></clipPath><g clip-path="url(#M)"><path stroke-linecap="square" stroke-linejoin="round" fill="none" stroke="#000" d="M87.36 54.03v-.462"/></g><clipPath id="N"><path transform="matrix(1 0 0 -1 0 345.6)" d="M57.6 38.016h357.12v266.112H57.6z"/></clipPath><g clip-path="url(#N)"><path stroke-linecap="square" stroke-linejoin="round" fill="none" stroke="#000" d="M79.92 81.269H94.8"/></g><clipPath id="O"><path transform="matrix(1 0 0 -1 0 345.6)" d="M57.6 38.016h357.12v266.112H57.6z"/></clipPath><g clip-path="url(#O)"><path stroke-linecap="square" stroke-linejoin="round" fill="none" stroke="#000" d="M79.92 53.568H94.8"/></g><clipPath id="P"><path transform="matrix(1 0 0 -1 0 345.6)" d="M57.6 38.016h357.12v266.112H57.6z"/></clipPath><g clip-path="url(#P)"><clipPath id="Q"><path transform="matrix(1 0 0 -1 87.36 295.488)" d="M-8-8H8V8H-8z"/></clipPath><g clip-path="url(#Q)"><path stroke-linejoin="round" fill="none" stroke="#000" d="M87.36 298.488a3 3 0 1 0 0-6 3 3 0 0 0 0 6z"/></g><clipPath id="R"><path transform="matrix(1 0 0 -1 87.36 130.207)" d="M-8-8H8V8H-8z"/></clipPath><g clip-path="url(#R)"><path stroke-linejoin="round" fill="none" stroke="#000" d="M87.36 133.207a3 3 0 1 0 0-6 3 3 0 0 0 0 6z"/></g></g><clipPath id="S"><path transform="matrix(1 0 0 -1 0 345.6)" d="M57.6 38.016h357.12v266.112H57.6z"/></clipPath><g clip-path="url(#S)"><path d="M132 73.074h29.76V54.03H132v19.044z" fill="#779ecb"/><path stroke-miterlimit="10" fill="none" stroke="#000" d="M132 73.074h29.76V54.03H132v19.044z"/></g><clipPath id="T"><path transform="matrix(1 0 0 -1 0 345.6)" d="M57.6 38.016h357.12v266.112H57.6z"/></clipPath><g clip-path="url(#T)"><path stroke-linecap="square" stroke-linejoin="round" fill="none" stroke="#000" d="M146.88 73.074v22.507"/></g><clipPath id="U"><path transform="matrix(1 0 0 -1 0 345.6)" d="M57.6 38.016h357.12v266.112H57.6z"/></clipPath><g clip-path="url(#U)"><path stroke-linecap="square" stroke-linejoin="round" fill="none" stroke="#000" d="M146.88 54.03v-.462"/></g><clipPath id="V"><path transform="matrix(1 0 0 -1 0 345.6)" d="M57.6 38.016h357.12v266.112H57.6z"/></clipPath><g clip-path="url(#V)"><path stroke-linecap="square" stroke-linejoin="round" fill="none" stroke="#000" d="M139.44 95.58h14.88"/></g><clipPath id="W"><path transform="matrix(1 0 0 -1 0 345.6)" d="M57.6 38.016h357.12v266.112H57.6z"/></clipPath><g clip-path="url(#W)"><path stroke-linecap="square" stroke-linejoin="round" fill="none" stroke="#000" d="M139.44 53.568h14.88"/></g><clipPath id="X"><path transform="matrix(1 0 0 -1 0 345.6)" d="M57.6 38.016h357.12v266.112H57.6z"/></clipPath><g clip-path="url(#X)"><path stroke-linejoin="round" fill="none" stroke="#000" d="M146.88 155.367a3 3 0 1 0 0-6 3 3 0 0 0 0 6z"/></g><clipPath id="Y"><path transform="matrix(1 0 0 -1 0 345.6)" d="M57.6 38.016h357.12v266.112H57.6z"/></clipPath><g clip-path="url(#Y)"><path d="M191.52 84.616h29.76V55.76h-29.76v28.855z" fill="#ffb347"/><path stroke-miterlimit="10" fill="none" stroke="#000" d="M191.52 84.616h29.76V55.76h-29.76v28.855z"/></g><clipPath id="Z"><path transform="matrix(1 0 0 -1 0 345.6)" d="M57.6 38.016h357.12v266.112H57.6z"/></clipPath><g clip-path="url(#Z)"><path stroke-linecap="square" stroke-linejoin="round" fill="none" stroke="#000" d="M206.4 84.616v21.122"/></g><clipPath id="aa"><path transform="matrix(1 0 0 -1 0 345.6)" d="M57.6 38.016h357.12v266.112H57.6z"/></clipPath><g clip-path="url(#aa)"><path stroke-linecap="square" stroke-linejoin="round" fill="none" stroke="#000" d="M206.4 55.761v-2.193"/></g><clipPath id="ab"><path transform="matrix(1 0 0 -1 0 345.6)" d="M57.6 38.016h357.12v266.112H57.6z"/></clipPath><g clip-path="url(#ab)"><path stroke-linecap="square" stroke-linejoin="round" fill="none" stroke="#000" d="M198.96 105.738h14.88"/></g><clipPath id="ac"><path transform="matrix(1 0 0 -1 0 345.6)" d="M57.6 38.016h357.12v266.112H57.6z"/></clipPath><g clip-path="url(#ac)"><path stroke-linecap="square" stroke-linejoin="round" fill="none" stroke="#000" d="M198.96 53.568h14.88"/></g><clipPath id="ad"><path transform="matrix(1 0 0 -1 0 345.6)" d="M57.6 38.016h357.12v266.112H57.6z"/></clipPath><g clip-path="url(#ad)"><path stroke-linejoin="round" fill="none" stroke="#000" d="M206.4 134.13a3 3 0 1 0 0-6 3 3 0 0 0 0 6z"/></g><clipPath id="ae"><path transform="matrix(1 0 0 -1 0 345.6)" d="M57.6 38.016h357.12v266.112H57.6z"/></clipPath><g clip-path="url(#ae)"><path d="M251.04 57.377h29.76V54.03h-29.76v3.347z" fill="#c23b22"/><path stroke-miterlimit="10" fill="none" stroke="#000" d="M251.04 57.377h29.76V54.03h-29.76v3.347z"/></g><clipPath id="af"><path transform="matrix(1 0 0 -1 0 345.6)" d="M57.6 38.016h357.12v266.112H57.6z"/></clipPath><g clip-path="url(#af)"><path stroke-linecap="square" stroke-linejoin="round" fill="none" stroke="#000" d="M265.92 57.377v.346"/></g><clipPath id="ag"><path transform="matrix(1 0 0 -1 0 345.6)" d="M57.6 38.016h357.12v266.112H57.6z"/></clipPath><g clip-path="url(#ag)"><path stroke-linecap="square" stroke-linejoin="round" fill="none" stroke="#000" d="M265.92 54.03v-.462"/></g><clipPath id="ah"><path transform="matrix(1 0 0 -1 0 345.6)" d="M57.6 38.016h357.12v266.112H57.6z"/></clipPath><g clip-path="url(#ah)"><path stroke-linecap="square" stroke-linejoin="round" fill="none" stroke="#000" d="M258.48 57.723h14.88"/></g><clipPath id="ai"><path transform="matrix(1 0 0 -1 0 345.6)" d="M57.6 38.016h357.12v266.112H57.6z"/></clipPath><g clip-path="url(#ai)"><path stroke-linecap="square" stroke-linejoin="round" fill="none" stroke="#000" d="M258.48 53.568h14.88"/></g><clipPath id="aj"><path transform="matrix(1 0 0 -1 0 345.6)" d="M57.6 38.016h357.12v266.112H57.6z"/></clipPath><g clip-path="url(#aj)"><clipPath id="ak"><path transform="matrix(1 0 0 -1 265.92 91.426)" d="M-8-8H8V8H-8z"/></clipPath><g clip-path="url(#ak)"><path stroke-linejoin="round" fill="none" stroke="#000" d="M265.92 94.426a3 3 0 1 0 0-6 3 3 0 0 0 0 6z"/></g><clipPath id="al"><path transform="matrix(1 0 0 -1 265.92 152.83)" d="M-8-8H8V8H-8z"/></clipPath><g clip-path="url(#al)"><path stroke-linejoin="round" fill="none" stroke="#000" d="M265.92 155.83a3 3 0 1 0 0-6.001 3 3 0 0 0 0 6z"/></g><clipPath id="am"><path transform="matrix(1 0 0 -1 265.92 65.11)" d="M-8-8H8V8H-8z"/></clipPath><g clip-path="url(#am)"><path stroke-linejoin="round" fill="none" stroke="#000" d="M265.92 68.11a3 3 0 1 0 0-6 3 3 0 0 0 0 6z"/></g></g><clipPath id="an"><path transform="matrix(1 0 0 -1 0 345.6)" d="M57.6 38.016h357.12v266.112H57.6z"/></clipPath><g clip-path="url(#an)"><path d="M310.56 54.03h29.76v-.462h-29.76v.462z" fill="#836953"/><path stroke-miterlimit="10" fill="none" stroke="#000" d="M310.56 54.03h29.76v-.462h-29.76v.462z"/></g><clipPath id="ao"><path transform="matrix(1 0 0 -1 0 345.6)" d="M57.6 38.016h357.12v266.112H57.6z"/></clipPath><g clip-path="url(#ao)"><path stroke-linecap="square" stroke-linejoin="round" fill="none" stroke="#000" d="M325.44 54.03v.461"/></g><clipPath id="ap"><path transform="matrix(1 0 0 -1 0 345.6)" d="M57.6 38.016h357.12v266.112H57.6z"/></clipPath><g clip-path="url(#ap)"><path stroke-linecap="square" stroke-linejoin="round" fill="none" stroke="#000" d="M325.44 53.568h0"/></g><clipPath id="aq"><path transform="matrix(1 0 0 -1 0 345.6)" d="M57.6 38.016h357.12v266.112H57.6z"/></clipPath><g clip-path="url(#aq)"><path stroke-linecap="square" stroke-linejoin="round" fill="none" stroke="#000" d="M318 54.491h14.88"/></g><clipPath id="ar"><path transform="matrix(1 0 0 -1 0 345.6)" d="M57.6 38.016h357.12v266.112H57.6z"/></clipPath><g clip-path="url(#ar)"><path stroke-linecap="square" stroke-linejoin="round" fill="none" stroke="#000" d="M318 53.568h14.88"/></g><clipPath id="as"><path transform="matrix(1 0 0 -1 0 345.6)" d="M57.6 38.016h357.12v266.112H57.6z"/></clipPath><g clip-path="url(#as)"><clipPath id="at"><path transform="matrix(1 0 0 -1 325.44 54.953)" d="M-8-8H8V8H-8z"/></clipPath><g clip-path="url(#at)"><path stroke-linejoin="round" fill="none" stroke="#000" d="M325.44 57.953a3 3 0 1 0 0-6 3 3 0 0 0 0 6z"/></g><clipPath id="au"><path transform="matrix(1 0 0 -1 325.44 55.415)" d="M-8-8H8V8H-8z"/></clipPath><g clip-path="url(#au)"><path stroke-linejoin="round" fill="none" stroke="#000" d="M325.44 58.415a3 3 0 1 0 0-6 3 3 0 0 0 0 6z"/></g></g><clipPath id="av"><path transform="matrix(1 0 0 -1 0 345.6)" d="M57.6 38.016h357.12v266.112H57.6z"/></clipPath><g clip-path="url(#av)"><path d="M370.08 53.683h29.76v-.115h-29.76v.115z" fill="#fdfd96"/><path stroke-miterlimit="10" fill="none" stroke="#000" d="M370.08 53.683h29.76v-.115h-29.76v.115z"/></g><clipPath id="aw"><path transform="matrix(1 0 0 -1 0 345.6)" d="M57.6 38.016h357.12v266.112H57.6z"/></clipPath><g clip-path="url(#aw)"><path stroke-linecap="square" stroke-linejoin="round" fill="none" stroke="#000" d="M384.96 53.683h0"/></g><clipPath id="ax"><path transform="matrix(1 0 0 -1 0 345.6)" d="M57.6 38.016h357.12v266.112H57.6z"/></clipPath><g clip-path="url(#ax)"><path stroke-linecap="square" stroke-linejoin="round" fill="none" stroke="#000" d="M384.96 53.568h0"/></g><clipPath id="ay"><path transform="matrix(1 0 0 -1 0 345.6)" d="M57.6 38.016h357.12v266.112H57.6z"/></clipPath><g clip-path="url(#ay)"><path stroke-linecap="square" stroke-linejoin="round" fill="none" stroke="#000" d="M377.52 53.683h14.88"/></g><clipPath id="az"><path transform="matrix(1 0 0 -1 0 345.6)" d="M57.6 38.016h357.12v266.112H57.6z"/></clipPath><g clip-path="url(#az)"><path stroke-linecap="square" stroke-linejoin="round" fill="none" stroke="#000" d="M377.52 53.568h14.88"/></g><clipPath id="aA"><path transform="matrix(1 0 0 -1 0 345.6)" d="M57.6 38.016h357.12v266.112H57.6z"/></clipPath><g clip-path="url(#aA)"><clipPath id="aB"><path transform="matrix(1 0 0 -1 384.96 54.03)" d="M-8-8H8V8H-8z"/></clipPath><g clip-path="url(#aB)"><path stroke-linejoin="round" fill="none" stroke="#000" d="M384.96 57.03a3 3 0 1 0 0-6 3 3 0 0 0 0 6z"/></g><clipPath id="aC"><path transform="matrix(1 0 0 -1 384.96 54.03)" d="M-8-8H8V8H-8z"/></clipPath><g clip-path="url(#aC)"><path stroke-linejoin="round" fill="none" stroke="#000" d="M384.96 57.03a3 3 0 1 0 0-6 3 3 0 0 0 0 6z"/></g><clipPath id="aD"><path transform="matrix(1 0 0 -1 384.96 54.03)" d="M-8-8H8V8H-8z"/></clipPath><g clip-path="url(#aD)"><path stroke-linejoin="round" fill="none" stroke="#000" d="M384.96 57.03a3 3 0 1 0 0-6 3 3 0 0 0 0 6z"/></g><clipPath id="aE"><path transform="matrix(1 0 0 -1 384.96 60.955)" d="M-8-8H8V8H-8z"/></clipPath><g clip-path="url(#aE)"><path stroke-linejoin="round" fill="none" stroke="#000" d="M384.96 63.955a3 3 0 1 0 0-6 3 3 0 0 0 0 6z"/></g></g><clipPath id="aF"><path transform="matrix(1 0 0 -1 0 345.6)" d="M57.6 38.016h357.12v266.112H57.6z"/></clipPath><g clip-path="url(#aF)"><path stroke-linejoin="round" fill="none" stroke="#ff7f0e" d="M72.48 56.569h29.76"/></g><clipPath id="aG"><path transform="matrix(1 0 0 -1 0 345.6)" d="M57.6 38.016h357.12v266.112H57.6z"/></clipPath><g clip-path="url(#aG)"><path stroke-linejoin="round" fill="none" stroke="#ff7f0e" d="M132 56.569h29.76"/></g><clipPath id="aH"><path transform="matrix(1 0 0 -1 0 345.6)" d="M57.6 38.016h357.12v266.112H57.6z"/></clipPath><g clip-path="url(#aH)"><path stroke-linejoin="round" fill="none" stroke="#ff7f0e" d="M191.52 58.877h29.76"/></g><clipPath id="aI"><path transform="matrix(1 0 0 -1 0 345.6)" d="M57.6 38.016h357.12v266.112H57.6z"/></clipPath><g clip-path="url(#aI)"><path stroke-linejoin="round" fill="none" stroke="#ff7f0e" d="M251.04 54.722h29.76"/></g><clipPath id="aJ"><path transform="matrix(1 0 0 -1 0 345.6)" d="M57.6 38.016h357.12v266.112H57.6z"/></clipPath><g clip-path="url(#aJ)"><path stroke-linejoin="round" fill="none" stroke="#ff7f0e" d="M310.56 54.03h29.76"/></g><clipPath id="aK"><path transform="matrix(1 0 0 -1 0 345.6)" d="M57.6 38.016h357.12v266.112H57.6z"/></clipPath><g clip-path="url(#aK)"><path stroke-linejoin="round" fill="none" stroke="#ff7f0e" d="M370.08 53.568h29.76"/></g><path stroke-width=".8" stroke-linecap="square" stroke-miterlimit="10" fill="none" stroke="#000" d="M57.6 307.584V41.472M414.72 307.584V41.472M57.6 307.584h357.12M57.6 41.472h357.12"/><symbol id="aL"><path transform="matrix(.001 0 0 .001 -.055 .013)" d="M306 484c-48 0-86-19-114-57s-42-89-42-154c0-66 13-117 41-155s66-56 115-56c48 0 86 18 114 56s42 89 42 155c0 64-14 116-42 154s-66 57-114 57zm0 76c78 0 139-26 184-76 44-51 67-121 67-211s-23-160-67-210c-45-51-106-76-184-76-79 0-141 25-185 76-44 50-66 120-66 210s22 160 66 211c44 50 106 76 185 76z"/></symbol><symbol id="aM"><path transform="translate(-.029) scale(.001)" d="M549 547 351 281 559 0H453L294 215 135 0H29l212 286L47 547h106l145-195 145 195h106z"/></symbol><symbol id="aN"><path transform="translate(-.027) scale(.001)" d="M183 702V547h185v-70H183V180c0-45 6-74 18-86 12-13 37-19 75-19h92V0h-92c-70 0-118 13-144 39s-39 73-39 141v297H27v70h66v155h90z"/></symbol><symbol id="aP"><path transform="translate(-.023) scale(.001)" d="M371 760v-75h-86c-32 0-55-7-67-20-13-13-19-36-19-70v-48h148v-70H199V0h-90v477H23v70h86v38c0 60 14 105 42 133s73 42 135 42h85z"/></symbol><symbol id="aQ"><path transform="translate(-.098) scale(.001)" d="M98 729h419v-83H197V431h289v-83H197V0H98v729z"/></symbol><symbol id="aR"><path transform="matrix(.001 0 0 .001 -.054 .013)" d="M443 531v-85c-26 12-52 22-79 29-28 6-56 10-85 10-45 0-79-7-101-21s-33-34-33-61c0-21 8-37 24-49s48-24 96-34l31-7c64-14 109-34 136-58 26-25 40-60 40-104 0-51-20-91-60-120-40-30-96-44-166-44-30 0-60 3-92 8S89 8 54 20v93c33-18 66-31 98-39 32-9 64-13 96-13 42 0 75 7 98 21 22 14 34 35 34 62 0 24-9 43-25 56s-52 26-108 38l-31 7c-56 12-97 30-121 54-25 24-37 57-37 100 0 51 18 91 54 119s88 42 156 42c33 0 64-3 94-8 29-5 56-12 81-21z"/></symbol><symbol id="aS"><path transform="matrix(.001 0 0 .001 -.055 .207)" d="M454 280c0 64-14 115-40 151-27 36-65 54-113 54s-86-18-113-54-40-87-40-151c0-65 13-115 40-151s65-54 113-54 86 18 113 54c26 36 40 86 40 151zm90-212c0-92-21-161-62-207-42-45-105-68-190-68-32 0-61 3-89 7-28 5-56 12-82 22v87c26-14 52-24 78-31s52-11 79-11c58 0 102 16 132 46 29 31 44 77 44 139v44c-19-32-43-56-72-72S319 0 279 0c-68 0-122 25-163 76S55 195 55 280c0 84 20 152 61 203s95 77 163 77c40 0 74-8 103-24s53-40 72-72v83h90V68z"/></symbol><symbol id="aT"><path transform="matrix(.001 0 0 .001 -.091 .013)" d="M487 273c0 66-14 117-41 155-28 38-65 57-112 57-48 0-85-19-112-57-28-38-41-89-41-155s13-118 41-156c27-38 64-56 112-56 47 0 84 18 112 56 27 38 41 90 41 156zM181 464c18 32 42 56 71 72s64 24 104 24c66 0 120-27 162-79 41-53 62-122 62-208s-21-156-62-208c-42-52-96-78-162-78-40 0-75 8-104 23s-53 39-71 72V0H91v760h90V464z"/></symbol><symbol id="aU"><path transform="translate(-.091) scale(.001)" d="M549 330V0h-90v327c0 52-11 90-31 116s-50 39-90 39c-49 0-87-16-115-47s-42-73-42-126V0H91v760h90V462c21 32 46 57 76 73 29 16 63 25 101 25 62 0 110-20 142-59s49-96 49-171z"/></symbol><symbol id="aV"><path transform="translate(-.091) scale(.001)" d="M520 442c22 40 49 69 80 89 31 19 68 29 111 29 56 0 100-20 131-60s47-97 47-170V0h-90v327c0 52-10 91-28 117-19 25-47 38-85 38-47 0-84-16-111-47s-40-73-40-126V0h-90v327c0 52-10 91-28 117-19 25-48 38-86 38-46 0-83-16-110-47s-40-73-40-126V0H91v547h90v-85c20 33 45 58 74 74 28 16 62 24 102 24s73-10 101-30 48-50 62-88z"/></symbol><symbol id="aW"><path transform="translate(-.091) scale(.001)" d="M91 760h90V311l268 236h115L274 291 576 0H459L181 267V0H91v760z"/></symbol><symbol id="aX"><path transform="matrix(.001 0 0 .001 -.055 .013)" d="M454 464v296h90V0h-90v82c-19-33-43-57-72-72s-63-23-103-23c-66 0-120 26-162 78S55 187 55 273s20 155 62 208c42 52 96 79 162 79 40 0 74-8 103-24s53-40 72-72zM148 273c0-66 13-118 40-156s64-56 112-56 85 18 113 56c27 38 41 90 41 156s-14 117-41 155c-28 38-65 57-113 57s-85-19-112-57-40-89-40-155z"/></symbol><use xlink:href="#p" transform="matrix(12 0 0 -12 41.305 35.472)"/><use xlink:href="#aL" transform="matrix(12 0 0 -12 49.02 35.628)"/><use xlink:href="#aM" transform="matrix(12 0 0 -12 55.693 35.472)"/><use xlink:href="#h" transform="matrix(12 0 0 -12 63.541 37.956)"/><use xlink:href="#j" transform="matrix(12 0 0 -12 71.197 35.472)"/><use xlink:href="#aL" transform="matrix(12 0 0 -12 74.065 35.628)"/><use xlink:href="#aN" transform="matrix(12 0 0 -12 81.073 35.472)"/><use xlink:href="#aO" transform="matrix(12 0 0 -12 85.453 35.472)"/><use xlink:href="#aL" transform="matrix(12 0 0 -12 89.93 35.628)"/><use xlink:href="#aP" transform="matrix(12 0 0 -12 96.89 35.472)"/><use xlink:href="#aO" transform="matrix(12 0 0 -12 100.837 35.472)"/><use xlink:href="#aQ" transform="matrix(12 0 0 -12 105.83 35.472)"/><use xlink:href="#F" transform="matrix(12 0 0 -12 112.873 35.472)"/><use xlink:href="#aO" transform="matrix(12 0 0 -12 119.185 35.472)"/><use xlink:href="#aR" transform="matrix(12 0 0 -12 123.65 35.628)"/><use xlink:href="#H" transform="matrix(12 0 0 -12 129.913 35.628)"/><use xlink:href="#aL" transform="matrix(12 0 0 -12 136.513 35.628)"/><use xlink:href="#l" transform="matrix(12 0 0 -12 144.29 35.472)"/><use xlink:href="#i" transform="matrix(12 0 0 -12 148.54 35.628)"/><use xlink:href="#aO" transform="matrix(12 0 0 -12 155.26 35.472)"/><use xlink:href="#aL" transform="matrix(12 0 0 -12 159.735 35.628)"/><use xlink:href="#aP" transform="matrix(12 0 0 -12 166.695 35.472)"/><use xlink:href="#aO" transform="matrix(12 0 0 -12 170.643 35.472)"/><use xlink:href="#aS" transform="matrix(12 0 0 -12 175.12 37.956)"/><use xlink:href="#l" transform="matrix(12 0 0 -12 183.171 35.472)"/><use xlink:href="#aL" transform="matrix(12 0 0 -12 187.421 35.628)"/><use xlink:href="#I" transform="matrix(12 0 0 -12 195.125 35.628)"/><use xlink:href="#h" transform="matrix(12 0 0 -12 202.805 37.956)"/><use xlink:href="#aO" transform="matrix(12 0 0 -12 209.333 35.472)"/><use xlink:href="#m" transform="matrix(12 0 0 -12 213.87 35.628)"/><use xlink:href="#H" transform="matrix(12 0 0 -12 221.165 35.628)"/><use xlink:href="#H" transform="matrix(12 0 0 -12 227.765 35.628)"/><use xlink:href="#I" transform="matrix(12 0 0 -12 234.725 35.628)"/><use xlink:href="#l" transform="matrix(12 0 0 -12 242.405 35.472)"/><use xlink:href="#m" transform="matrix(12 0 0 -12 246.965 35.628)"/><use xlink:href="#H" transform="matrix(12 0 0 -12 254.261 35.628)"/><use xlink:href="#J" transform="matrix(12 0 0 -12 260.561 37.956)"/><use xlink:href="#aO" transform="matrix(12 0 0 -12 267.305 35.472)"/><use xlink:href="#aL" transform="matrix(12 0 0 -12 271.781 35.628)"/><use xlink:href="#o" transform="matrix(12 0 0 -12 279.557 35.472)"/><use xlink:href="#aO" transform="matrix(12 0 0 -12 286.073 35.472)"/><use xlink:href="#F" transform="matrix(12 0 0 -12 291.21 35.472)"/><use xlink:href="#x" transform="matrix(12 0 0 -12 298.361 35.628)"/><use xlink:href="#aO" transform="matrix(12 0 0 -12 305.153 35.472)"/><use xlink:href="#aT" transform="matrix(12 0 0 -12 310.061 35.628)"/><use xlink:href="#i" transform="matrix(12 0 0 -12 317.25 35.628)"/><use xlink:href="#o" transform="matrix(12 0 0 -12 325.061 35.472)"/><use xlink:href="#H" transform="matrix(12 0 0 -12 332.237 35.628)"/><use xlink:href="#aU" transform="matrix(12 0 0 -12 339.27 35.472)"/><use xlink:href="#aV" transform="matrix(12 0 0 -12 346.877 35.472)"/><use xlink:href="#m" transform="matrix(12 0 0 -12 358.193 35.628)"/><use xlink:href="#l" transform="matrix(12 0 0 -12 365.921 35.472)"/><use xlink:href="#aW" transform="matrix(12 0 0 -12 370.853 35.472)"/><use xlink:href="#aO" transform="matrix(12 0 0 -12 376.71 35.472)"/><use xlink:href="#aX" transform="matrix(12 0 0 -12 381.185 35.628)"/><use xlink:href="#m" transform="matrix(12 0 0 -12 388.865 35.628)"/><use xlink:href="#aN" transform="matrix(12 0 0 -12 395.825 35.472)"/><use xlink:href="#m" transform="matrix(12 0 0 -12 400.925 35.628)"/><use xlink:href="#aR" transform="matrix(12 0 0 -12 408.21 35.628)"/><use xlink:href="#i" transform="matrix(12 0 0 -12 414.473 35.628)"/><use xlink:href="#aN" transform="matrix(12 0 0 -12 421.517 35.472)"/><use xlink:href="#aR" transform="matrix(12 0 0 -12 426.545 35.628)"/><path d="M222.751 302.584H407.72c1.333 0 2-.667 2-2v-13.672c0-1.333-.667-2-2-2H222.751c-1.333 0-2 .667-2 2v13.672c0 1.333.667 2 2 2z" fill="#fff" fill-opacity=".8"/><path stroke-miterlimit="10" fill="none" stroke="#d5d6d5" stroke-opacity=".8" d="M222.751 302.584H407.72c1.333 0 2-.667 2-2v-13.672c0-1.333-.667-2-2-2H222.751c-1.333 0-2 .667-2 2v13.672c0 1.333.667 2 2 2z"/><path d="M224.751 296.506h20v-7h-20z" fill="#7d7"/><path stroke-miterlimit="10" fill="none" stroke="#000" d="M224.751 296.506h20v-7h-20z"/><symbol id="aY"><path transform="matrix(.001 0 0 .001 -.056 .013)" d="M595 104v196H434v81h259V68c-38-28-80-48-126-61s-95-20-147-20c-114 0-204 33-268 99S56 245 56 364c0 118 32 211 96 278 64 66 154 100 268 100 47 0 92-6 135-18s83-29 119-51V568c-37 30-76 53-117 69s-84 24-129 24c-90 0-157-25-201-75-45-50-67-124-67-222 0-99 22-173 67-223 44-50 111-74 201-74 34 0 65 3 93 9s52 15 74 28z"/></symbol><use xlink:href="#aQ" transform="matrix(10 0 0 -10 253.731 296.506)"/><use xlink:href="#F" transform="matrix(10 0 0 -10 259.601 296.506)"/><use xlink:href="#aO" transform="matrix(10 0 0 -10 264.861 296.506)"/><use xlink:href="#aR" transform="matrix(10 0 0 -10 268.581 296.636)"/><use xlink:href="#H" transform="matrix(10 0 0 -10 273.801 296.636)"/><use xlink:href="#aL" transform="matrix(10 0 0 -10 279.301 296.636)"/><use xlink:href="#l" transform="matrix(10 0 0 -10 285.781 296.506)"/><use xlink:href="#i" transform="matrix(10 0 0 -10 289.313 296.636)"/><use xlink:href="#aO" transform="matrix(10 0 0 -10 294.913 296.506)"/><use xlink:href="#aL" transform="matrix(10 0 0 -10 298.642 296.636)"/><use xlink:href="#aP" transform="matrix(10 0 0 -10 304.442 296.506)"/><use xlink:href="#aO" transform="matrix(10 0 0 -10 307.733 296.506)"/><use xlink:href="#aY" transform="matrix(10 0 0 -10 311.473 296.636)"/><use xlink:href="#l" transform="matrix(10 0 0 -10 319.572 296.506)"/><use xlink:href="#aL" transform="matrix(10 0 0 -10 323.104 296.636)"/><use xlink:href="#I" transform="matrix(10 0 0 -10 329.524 296.636)"/><use xlink:href="#h" transform="matrix(10 0 0 -10 335.924 298.576)"/><use xlink:href="#n" transform="matrix(10 0 0 -10 342.304 296.506)"/><use xlink:href="#o" transform="matrix(10 0 0 -10 345.054 296.506)"/><use xlink:href="#aS" transform="matrix(10 0 0 -10 351.034 298.576)"/><use xlink:href="#aO" transform="matrix(10 0 0 -10 356.834 296.506)"/><use xlink:href="#G" transform="matrix(10 0 0 -10 360.094 296.506)"/><use xlink:href="#H" transform="matrix(10 0 0 -10 367.232 296.636)"/><use xlink:href="#H" transform="matrix(10 0 0 -10 372.732 296.636)"/><use xlink:href="#I" transform="matrix(10 0 0 -10 378.532 296.636)"/><use xlink:href="#l" transform="matrix(10 0 0 -10 384.932 296.506)"/><use xlink:href="#m" transform="matrix(10 0 0 -10 388.732 296.636)"/><use xlink:href="#H" transform="matrix(10 0 0 -10 394.812 296.636)"/><use xlink:href="#J" transform="matrix(10 0 0 -10 400.062 298.576)"/></svg>