<svg xmlns="http://www.w3.org/2000/svg" xmlns:xlink="http://www.w3.org/1999/xlink" width="1344" height="960" viewBox="0 0 1008 720"><path d="M0 720h1008V0H0z" fill="#fff"/><path d="M61.881 317.442H494V20H61.881z" fill="#fff"/><path stroke-width=".8" stroke-linejoin="round" fill="none" stroke="#000" d="M81.523 317.442v3.5"/><symbol id="a"><path transform="translate(-.073) scale(.001)" d="M192 83h344V0H73v83c37 38 88 90 153 156 64 65 105 107 122 126 32 35 54 65 66 90 12 24 19 49 19 73 0 38-14 70-41 94s-62 37-106 37c-31 0-64-6-98-16-34-11-71-27-110-49v100c40 16 77 28 111 36s66 12 95 12c75 0 135-19 180-57s68-88 68-151c0-30-6-59-17-85-11-27-31-59-61-95-8-10-34-37-78-82S271 164 192 83z"/></symbol><symbol id="b"><path transform="translate(-.098) scale(.001)" d="M98 729h99V421l327 308h127L289 389 677 0H547L197 351V0H98v729z"/></symbol><use xlink:href="#a" transform="matrix(10 0 0 -10 75.792 332.036)"/><use xlink:href="#b" transform="matrix(10 0 0 -10 82.402 332.036)"/><path stroke-width=".8" stroke-linejoin="round" fill="none" stroke="#000" d="M183.258 317.442v3.5"/><symbol id="c"><path transform="translate(-.11) scale(.001)" d="M124 83h161v556l-175-35v90l174 35h99V83h161V0H124v83z"/></symbol><symbol id="d"><path transform="matrix(.001 0 0 .001 -.066 .013)" d="M318 664c-51 0-89-25-115-75s-38-125-38-225 12-175 38-225 64-75 115-75 89 25 115 75c25 50 38 125 38 225s-13 175-38 225c-26 50-64 75-115 75zm0 78c81 0 143-33 187-97 43-65 65-159 65-281 0-123-22-217-65-281-44-64-106-96-188-96S173 19 130 83 66 241 66 364c0 122 21 216 64 281 43 64 106 97 188 97z"/></symbol><use xlink:href="#c" transform="matrix(10 0 0 -10 174.718 332.036)"/><use xlink:href="#d" transform="matrix(10 0 0 -10 180.638 332.166)"/><use xlink:href="#b" transform="matrix(10 0 0 -10 187.317 332.036)"/><path stroke-width=".8" stroke-linejoin="round" fill="none" stroke="#000" d="M328.808 317.442v3.5"/><use xlink:href="#c" transform="matrix(10 0 0 -10 317.088 332.036)"/><use xlink:href="#d" transform="matrix(10 0 0 -10 323.008 332.166)"/><use xlink:href="#d" transform="matrix(10 0 0 -10 329.368 332.166)"/><use xlink:href="#b" transform="matrix(10 0 0 -10 336.048 332.036)"/><path stroke-width=".8" stroke-linejoin="round" fill="none" stroke="#000" d="M430.543 317.442v3.5"/><symbol id="e"><path transform="matrix(.001 0 0 .001 -.077 .013)" d="M108 729h387v-83H198V467c14 5 29 9 43 11s29 4 43 4c81 0 145-23 193-67 48-45 72-105 72-181 0-79-25-140-74-183S357-13 269-13c-31 0-62 3-94 7-32 5-64 12-98 23v99c29-16 59-28 91-36 31-8 64-11 99-11 56 0 101 14 134 44 32 30 49 70 49 121 0 50-17 90-49 120-33 30-78 45-134 45-26 0-53-3-79-9s-53-15-80-27v366z"/></symbol><use xlink:href="#e" transform="matrix(10 0 0 -10 418.493 332.166)"/><use xlink:href="#d" transform="matrix(10 0 0 -10 424.743 332.166)"/><use xlink:href="#d" transform="matrix(10 0 0 -10 431.103 332.166)"/><use xlink:href="#b" transform="matrix(10 0 0 -10 437.783 332.036)"/><path stroke-width=".8" stroke-linejoin="round" fill="none" stroke="#000" d="M474.358 317.442v3.5"/><symbol id="f"><path transform="translate(-.098) scale(.001)" d="M98 729h147l186-496 187 496h147V0h-96v640L481 140h-99L194 640V0H98v729z"/></symbol><use xlink:href="#c" transform="matrix(10 0 0 -10 467.966 332.036)"/><use xlink:href="#f" transform="matrix(10 0 0 -10 474.206 332.036)"/><path stroke-width=".6" stroke-linejoin="round" fill="none" stroke="#000" d="M107.153 317.442v2M125.338 317.442v2M139.443 317.442v2M150.968 317.442v2M160.712 317.442v2M169.153 317.442v2M176.598 317.442v2M227.073 317.442v2M252.703 317.442v2M270.888 317.442v2M284.993 317.442v2M296.518 317.442v2M306.262 317.442v2M314.703 317.442v2M322.148 317.442v2M372.623 317.442v2M398.253 317.442v2M416.438 317.442v2M442.068 317.442v2M451.812 317.442v2M460.253 317.442v2M467.698 317.442v2"/><symbol id="g"><path transform="translate(-.098) scale(.001)" d="M197 348V81h158c53 0 92 11 118 33 25 22 38 55 38 101 0 45-13 78-38 100-26 22-65 33-118 33H197zm0 300V428h146c48 0 83 9 107 27s36 45 36 83c0 36-12 64-36 82s-59 28-107 28H197zm-99 81h252c75 0 133-16 174-47 40-32 61-76 61-133 0-45-11-81-32-107s-51-43-91-49c48-11 86-33 113-66 26-33 40-74 40-123 0-66-23-116-67-151C504 17 441 0 360 0H98v729z"/></symbol><symbol id="h"><path transform="matrix(.001 0 0 .001 -.056 .013)" d="M595 104v196H434v81h259V68c-38-28-80-48-126-61s-95-20-147-20c-114 0-204 33-268 99S56 245 56 364c0 118 32 211 96 278 64 66 154 100 268 100 47 0 92-6 135-18s83-29 119-51V568c-37 30-76 53-117 69s-84 24-129 24c-90 0-157-25-201-75-45-50-67-124-67-222 0-99 22-173 67-223 44-50 111-74 201-74 34 0 65 3 93 9s52 15 74 28z"/></symbol><symbol id="i"><path transform="translate(-.098) scale(.001)" d="M98 729h99V83h355V0H98v729z"/></symbol><symbol id="k"><path transform="translate(-.098) scale(.001)" d="M197 648V81h119c100 0 174 22 221 68 46 46 70 118 70 216s-24 169-70 215c-47 45-121 68-221 68H197zm-99 81h203c141 0 245-30 311-88 66-59 99-151 99-276 0-126-34-218-100-277S441 0 301 0H98v729z"/></symbol><symbol id="l"><path transform="matrix(.001 0 0 .001 -.06 .013)" d="M343 275c-73 0-123-9-151-25-28-17-42-45-42-85 0-32 10-58 31-76 21-19 50-28 86-28 50 0 90 17 120 53 30 35 45 82 45 141v20h-89zm179 37V0h-90v83c-21-34-47-58-77-73s-68-23-112-23c-56 0-101 15-134 46s-49 73-49 126c0 61 20 107 62 139 41 31 102 47 184 47h126v9c0 41-14 73-41 96-27 22-65 34-114 34-32 0-62-4-92-12s-58-19-85-33v83c32 12 64 22 95 28s61 10 91 10c79 0 138-21 177-62s59-103 59-186z"/></symbol><symbol id="m"><path transform="translate(-.027) scale(.001)" d="M183 702V547h185v-70H183V180c0-45 6-74 18-86 12-13 37-19 75-19h92V0h-92c-70 0-118 13-144 39s-39 73-39 141v297H27v70h66v155h90z"/></symbol><symbol id="n"><path transform="matrix(.001 0 0 .001 -.054 .013)" d="M443 531v-85c-26 12-52 22-79 29-28 6-56 10-85 10-45 0-79-7-101-21s-33-34-33-61c0-21 8-37 24-49s48-24 96-34l31-7c64-14 109-34 136-58 26-25 40-60 40-104 0-51-20-91-60-120-40-30-96-44-166-44-30 0-60 3-92 8S89 8 54 20v93c33-18 66-31 98-39 32-9 64-13 96-13 42 0 75 7 98 21 22 14 34 35 34 62 0 24-9 43-25 56s-52 26-108 38l-31 7c-56 12-97 30-121 54-25 24-37 57-37 100 0 51 18 91 54 119s88 42 156 42c33 0 64-3 94-8 29-5 56-12 81-21z"/></symbol><symbol id="o"><path transform="matrix(.001 0 0 .001 -.055 .013)" d="M562 296v-44H149c4-62 22-110 56-142 33-32 79-48 139-48 34 0 68 4 100 12s65 21 97 39V28c-32-14-65-25-99-31s-69-10-103-10c-88 0-157 25-208 75S55 181 55 268c0 89 24 160 72 213 48 52 114 79 196 79 74 0 132-24 175-71 42-48 64-112 64-193zm-90 26c-1 49-15 88-41 118-27 29-63 44-107 44-50 0-90-15-120-43s-48-68-52-119h320z"/></symbol><use xlink:href="#g" transform="matrix(12 0 0 -12 241.726 347.24)"/><use xlink:href="#h" transform="matrix(12 0 0 -12 249.25 347.395)"/><use xlink:href="#i" transform="matrix(12 0 0 -12 259.055 347.24)"/><use xlink:href="#j" transform="matrix(12 0 0 -12 264.563 347.24)"/><use xlink:href="#k" transform="matrix(12 0 0 -12 269.555 347.24)"/><use xlink:href="#l" transform="matrix(12 0 0 -12 278.339 347.395)"/><use xlink:href="#m" transform="matrix(12 0 0 -12 285.299 347.24)"/><use xlink:href="#l" transform="matrix(12 0 0 -12 290.399 347.395)"/><use xlink:href="#n" transform="matrix(12 0 0 -12 297.683 347.395)"/><use xlink:href="#o" transform="matrix(12 0 0 -12 303.947 347.395)"/><use xlink:href="#m" transform="matrix(12 0 0 -12 310.99 347.24)"/><path stroke-width=".8" stroke-linejoin="round" fill="none" stroke="#000" d="M61.881 305.249h-3.5"/><use xlink:href="#d" transform="matrix(10 0 0 -10 49.182 309.176)"/><path stroke-width=".8" stroke-linejoin="round" fill="none" stroke="#000" d="M61.881 261.03h-3.5"/><use xlink:href="#a" transform="matrix(10 0 0 -10 42.892 264.826)"/><use xlink:href="#d" transform="matrix(10 0 0 -10 49.182 264.956)"/><path stroke-width=".8" stroke-linejoin="round" fill="none" stroke="#000" d="M61.881 216.81h-3.5"/><symbol id="p"><path transform="translate(-.049) scale(.001)" d="M378 643 129 254h249v389zm-26 86h124V254h104v-82H476V0h-98v172H49v95l303 462z"/></symbol><use xlink:href="#p" transform="matrix(10 0 0 -10 42.653 220.607)"/><use xlink:href="#d" transform="matrix(10 0 0 -10 49.182 220.737)"/><path stroke-width=".8" stroke-linejoin="round" fill="none" stroke="#000" d="M61.881 172.59h-3.5"/><symbol id="q"><path transform="matrix(.001 0 0 .001 -.07 .013)" d="M330 404c-44 0-79-16-105-46s-39-72-39-124c0-53 13-95 39-125s61-45 105-45 79 15 105 45 39 72 39 125c0 52-13 94-39 124s-61 46-105 46zm196 309v-90c-25 12-50 21-75 27-26 6-51 9-75 9-66 0-116-22-150-66s-54-111-58-199c19 28 43 50 72 65s61 23 96 23c73 0 131-23 173-67s64-105 64-181c0-75-23-135-67-180S403-13 330-13c-84 0-149 32-193 96-45 64-67 158-67 281 0 115 27 207 82 275 54 68 128 103 220 103 24 0 49-3 75-7 25-5 51-12 79-22z"/></symbol><use xlink:href="#q" transform="matrix(10 0 0 -10 42.862 176.517)"/><use xlink:href="#d" transform="matrix(10 0 0 -10 49.182 176.517)"/><path stroke-width=".8" stroke-linejoin="round" fill="none" stroke="#000" d="M61.881 128.37h-3.5"/><symbol id="r"><path transform="matrix(.001 0 0 .001 -.068 .013)" d="M318 346c-47 0-84-13-111-38s-40-59-40-103 13-79 40-104 64-37 111-37c46 0 83 12 110 38 27 25 41 59 41 103s-14 78-40 103c-27 25-64 38-111 38zm-99 42c-42 10-75 30-99 59s-35 64-35 106c0 58 20 104 62 138 41 34 98 51 171 51 72 0 129-17 171-51 41-34 62-80 62-138 0-42-12-77-36-106s-56-49-98-59c47-11 84-33 111-65 26-32 40-72 40-118 0-71-22-125-65-162-44-38-106-56-186-56S175 5 132 43c-43 37-64 91-64 162 0 46 13 86 40 118 26 32 63 54 111 65zm-36 156c0-38 11-68 35-89s57-31 100-31c42 0 75 10 99 31s36 51 36 89-12 67-36 88-57 32-99 32c-43 0-76-11-100-32s-35-50-35-88z"/></symbol><use xlink:href="#r" transform="matrix(10 0 0 -10 42.843 132.298)"/><use xlink:href="#d" transform="matrix(10 0 0 -10 49.182 132.298)"/><path stroke-width=".8" stroke-linejoin="round" fill="none" stroke="#000" d="M61.881 84.151h-3.5"/><use xlink:href="#c" transform="matrix(10 0 0 -10 36.903 87.948)"/><use xlink:href="#d" transform="matrix(10 0 0 -10 42.823 88.078)"/><use xlink:href="#d" transform="matrix(10 0 0 -10 49.183 88.078)"/><path stroke-width=".8" stroke-linejoin="round" fill="none" stroke="#000" d="M61.881 39.932h-3.5"/><use xlink:href="#c" transform="matrix(10 0 0 -10 36.903 43.729)"/><use xlink:href="#a" transform="matrix(10 0 0 -10 42.893 43.729)"/><use xlink:href="#d" transform="matrix(10 0 0 -10 49.183 43.859)"/><symbol id="s"><path transform="translate(-.098) scale(.001)" d="M444 342c21-8 42-23 62-46 20-24 40-56 60-97L666 0H560l-93 187c-24 48-48 81-70 97-23 16-54 24-93 24H197V0H98v729h223c83 0 145-18 186-52 41-35 62-88 62-158 0-46-11-85-32-115-22-30-53-51-93-62zM197 648V389h124c47 0 83 11 107 33s37 54 37 97c0 42-13 74-37 96s-60 33-107 33H197z"/></symbol><symbol id="t"><path transform="matrix(.001 0 0 .001 -.085 .013)" d="M85 216v331h90V219c0-52 10-90 30-116s50-39 91-39c48 0 87 15 115 46s42 73 42 127v310h90V0h-90v84c-22-34-48-58-76-74-29-15-62-23-100-23-63 0-111 19-143 58-33 38-49 95-49 171zm226 344z"/></symbol><symbol id="u"><path transform="translate(-.091) scale(.001)" d="M549 330V0h-90v327c0 52-11 90-31 116s-50 39-90 39c-49 0-87-16-115-47s-42-73-42-126V0H91v547h90v-85c21 32 46 57 76 73 29 16 63 25 101 25 62 0 110-20 142-59s49-96 49-171z"/></symbol><symbol id="v"><path transform="translate(-.094) scale(.001)" d="M94 547h90V0H94v547zm0 213h90V646H94v114z"/></symbol><symbol id="w"><path transform="matrix(.001 0 0 .001 -.055 .207)" d="M454 280c0 64-14 115-40 151-27 36-65 54-113 54s-86-18-113-54-40-87-40-151c0-65 13-115 40-151s65-54 113-54 86 18 113 54c26 36 40 86 40 151zm90-212c0-92-21-161-62-207-42-45-105-68-190-68-32 0-61 3-89 7-28 5-56 12-82 22v87c26-14 52-24 78-31s52-11 79-11c58 0 102 16 132 46 29 31 44 77 44 139v44c-19-32-43-56-72-72S319 0 279 0c-68 0-122 25-163 76S55 195 55 280c0 84 20 152 61 203s95 77 163 77c40 0 74-8 103-24s53-40 72-72v83h90V68z"/></symbol><symbol id="x"><path transform="translate(.002) scale(.001)" d="M-2 729h616v-83H355V0h-99v646H-2v83z"/></symbol><symbol id="y"><path transform="translate(-.091) scale(.001)" d="M520 442c22 40 49 69 80 89 31 19 68 29 111 29 56 0 100-20 131-60s47-97 47-170V0h-90v327c0 52-10 91-28 117-19 25-47 38-85 38-47 0-84-16-111-47s-40-73-40-126V0h-90v327c0 52-10 91-28 117-19 25-48 38-86 38-46 0-83-16-110-47s-40-73-40-126V0H91v547h90v-85c20 33 45 58 74 74 28 16 62 24 102 24s73-10 101-30 48-50 62-88z"/></symbol><symbol id="z"><path transform="matrix(.001 0 0 .001 -.086 .131)" d="M310 759c-44-76-76-150-97-223-22-73-32-147-32-222 0-76 10-150 32-223 21-74 53-147 97-222h-78C183-54 146 20 122 94S86 241 86 314c0 72 12 145 36 219s60 149 110 226h78z"/></symbol><symbol id="A"><path transform="matrix(.001 0 0 .001 -.066 .013)" d="M535 705v-96c-38 18-73 31-106 40-34 8-66 13-96 13-54 0-96-11-125-31-29-21-43-51-43-89 0-32 9-57 29-73 19-17 56-30 110-40l60-12c73-14 127-39 162-74 35-36 53-83 53-142 0-71-24-124-71-160-48-36-117-54-208-54-35 0-72 4-111 11S110 16 69 32v102c40-23 79-40 117-51 38-12 76-17 114-17 56 0 99 11 130 33 30 22 46 53 46 95 0 36-11 64-33 84s-58 35-108 45l-60 12c-74 14-127 37-160 69-33 31-49 74-49 130 0 64 22 115 68 152 45 37 108 56 188 56 34 0 68-3 104-9 35-6 71-16 109-28z"/></symbol><symbol id="B"><path transform="matrix(.001 0 0 .001 -.055 .013)" d="M488 526v-84c-26 14-51 24-77 31s-51 11-77 11c-58 0-104-19-136-56s-48-89-48-155c0-67 16-119 48-156s78-55 136-55c26 0 51 3 77 10s51 18 77 32V21C462 9 436 0 410-5c-27-5-56-8-86-8-82 0-148 25-196 77-49 51-73 121-73 209 0 89 24 159 73 210s116 77 202 77c28 0 55-3 81-9s52-14 77-25z"/></symbol><symbol id="C"><path transform="matrix(.001 0 0 .001 -.055 .013)" d="M306 484c-48 0-86-19-114-57s-42-89-42-154c0-66 13-117 41-155s66-56 115-56c48 0 86 18 114 56s42 89 42 155c0 64-14 116-42 154s-66 57-114 57zm0 76c78 0 139-26 184-76 44-51 67-121 67-211s-23-160-67-210c-45-51-106-76-184-76-79 0-141 25-185 76-44 50-66 120-66 210s22 160 66 211c44 50 106 76 185 76z"/></symbol><symbol id="D"><path transform="matrix(.001 0 0 .001 -.055 .013)" d="M454 464v296h90V0h-90v82c-19-33-43-57-72-72s-63-23-103-23c-66 0-120 26-162 78S55 187 55 273s20 155 62 208c42 52 96 79 162 79 40 0 74-8 103-24s53-40 72-72zM148 273c0-66 13-118 40-156s64-56 112-56 85 18 113 56c27 38 41 90 41 156s-14 117-41 155c-28 38-65 57-113 57s-85-19-112-57-40-89-40-155z"/></symbol><symbol id="E"><path transform="matrix(.001 0 0 .001 -.08 .131)" d="M80 759h78c48-77 85-152 109-226s37-147 37-219c0-73-13-146-37-220S206-54 158-131H80c43 75 75 148 97 222 21 73 32 147 32 223 0 75-11 149-32 222-22 73-54 147-97 223z"/></symbol><use xlink:href="#s" transform="matrix(0 -12 -12 0 29.303 240.56)"/><use xlink:href="#t" transform="matrix(0 -12 -12 0 29.46 232.908)"/><use xlink:href="#u" transform="matrix(0 -12 -12 0 29.303 225.228)"/><use xlink:href="#u" transform="matrix(0 -12 -12 0 29.303 217.62)"/><use xlink:href="#v" transform="matrix(0 -12 -12 0 29.303 209.976)"/><use xlink:href="#u" transform="matrix(0 -12 -12 0 29.303 206.676)"/><use xlink:href="#w" transform="matrix(0 -12 -12 0 31.787 199.5)"/><use xlink:href="#j" transform="matrix(0 -12 -12 0 29.303 192.54)"/><use xlink:href="#x" transform="matrix(0 -12 -12 0 29.303 188.748)"/><use xlink:href="#v" transform="matrix(0 -12 -12 0 29.303 180.623)"/><use xlink:href="#y" transform="matrix(0 -12 -12 0 29.303 177.323)"/><use xlink:href="#o" transform="matrix(0 -12 -12 0 29.46 166.067)"/><use xlink:href="#j" transform="matrix(0 -12 -12 0 29.303 159.347)"/><use xlink:href="#z" transform="matrix(0 -12 -12 0 30.875 154.5)"/><use xlink:href="#A" transform="matrix(0 -12 -12 0 29.46 150.06)"/><use xlink:href="#o" transform="matrix(0 -12 -12 0 29.46 142.571)"/><use xlink:href="#B" transform="matrix(0 -12 -12 0 29.46 135.191)"/><use xlink:href="#C" transform="matrix(0 -12 -12 0 29.46 128.591)"/><use xlink:href="#u" transform="matrix(0 -12 -12 0 29.303 120.815)"/><use xlink:href="#D" transform="matrix(0 -12 -12 0 29.46 113.64)"/><use xlink:href="#n" transform="matrix(0 -12 -12 0 29.46 106.031)"/><use xlink:href="#E" transform="matrix(0 -12 -12 0 30.875 99.467)"/><clipPath id="F"><path transform="matrix(1 0 0 -1 0 720)" d="M61.881 402.558H494V700H61.881z"/></clipPath><g clip-path="url(#F)"><path stroke-width="1.5" stroke-linecap="square" stroke-linejoin="round" fill="none" stroke="#1f77b4" d="m81.523 303.922 101.735-5.306 145.55-8.844 101.735-57.485 43.815-81.364"/><clipPath id="G"><path transform="matrix(1 0 0 -1 81.523 303.922)" d="M-8-8H8V8H-8z"/></clipPath><g clip-path="url(#G)"><path d="M81.523 306.922a3 3 0 1 0 0-6 3 3 0 0 0 0 6z" fill="#1f77b4"/><path stroke-linejoin="round" fill="none" stroke="#1f77b4" d="M81.523 306.922a3 3 0 1 0 0-6 3 3 0 0 0 0 6z"/></g><clipPath id="H"><path transform="matrix(1 0 0 -1 183.258 298.616)" d="M-8-8H8V8H-8z"/></clipPath><g clip-path="url(#H)"><path d="M183.258 301.616a3 3 0 1 0 0-6 3 3 0 0 0 0 6z" fill="#1f77b4"/><path stroke-linejoin="round" fill="none" stroke="#1f77b4" d="M183.258 301.616a3 3 0 1 0 0-6 3 3 0 0 0 0 6z"/></g><clipPath id="I"><path transform="matrix(1 0 0 -1 328.808 289.772)" d="M-8-8H8V8H-8z"/></clipPath><g clip-path="url(#I)"><path d="M328.808 292.772a3 3 0 1 0 0-6 3 3 0 0 0 0 6z" fill="#1f77b4"/><path stroke-linejoin="round" fill="none" stroke="#1f77b4" d="M328.808 292.772a3 3 0 1 0 0-6 3 3 0 0 0 0 6z"/></g><clipPath id="J"><path transform="matrix(1 0 0 -1 430.543 232.287)" d="M-8-8H8V8H-8z"/></clipPath><g clip-path="url(#J)"><path d="M430.543 235.287a3 3 0 1 0 0-6 3 3 0 0 0 0 6z" fill="#1f77b4"/><path stroke-linejoin="round" fill="none" stroke="#1f77b4" d="M430.543 235.287a3 3 0 1 0 0-6 3 3 0 0 0 0 6z"/></g><clipPath id="K"><path transform="matrix(1 0 0 -1 474.358 150.923)" d="M-8-8H8V8H-8z"/></clipPath><g clip-path="url(#K)"><path d="M474.358 153.923a3 3 0 1 0 0-6 3 3 0 0 0 0 6z" fill="#1f77b4"/><path stroke-linejoin="round" fill="none" stroke="#1f77b4" d="M474.358 153.923a3 3 0 1 0 0-6 3 3 0 0 0 0 6z"/></g></g><clipPath id="L"><path transform="matrix(1 0 0 -1 0 720)" d="M61.881 402.558H494V700H61.881z"/></clipPath><g clip-path="url(#L)"><path stroke-width="1.5" stroke-linecap="square" stroke-linejoin="round" fill="none" stroke="#2ca02c" d="m81.523 303.9 101.735-4.842 145.55-7.738 101.735-57.044 43.815-108.337"/><clipPath id="M"><path transform="matrix(1 0 0 -1 81.523 303.9)" d="M-8-8H8V8H-8z"/></clipPath><g clip-path="url(#M)"><path d="M81.523 306.9a3 3 0 1 0 0-6 3 3 0 0 0 0 6z" fill="#2ca02c"/><path stroke-linejoin="round" fill="none" stroke="#2ca02c" d="M81.523 306.9a3 3 0 1 0 0-6 3 3 0 0 0 0 6z"/></g><clipPath id="N"><path transform="matrix(1 0 0 -1 183.258 299.058)" d="M-8-8H8V8H-8z"/></clipPath><g clip-path="url(#N)"><path d="M183.258 302.058a3 3 0 1 0 0-6 3 3 0 0 0 0 6z" fill="#2ca02c"/><path stroke-linejoin="round" fill="none" stroke="#2ca02c" d="M183.258 302.058a3 3 0 1 0 0-6 3 3 0 0 0 0 6z"/></g><clipPath id="O"><path transform="matrix(1 0 0 -1 328.808 291.32)" d="M-8-8H8V8H-8z"/></clipPath><g clip-path="url(#O)"><path d="M328.808 294.32a3 3 0 1 0 0-6 3 3 0 0 0 0 6z" fill="#2ca02c"/><path stroke-linejoin="round" fill="none" stroke="#2ca02c" d="M328.808 294.32a3 3 0 1 0 0-6 3 3 0 0 0 0 6z"/></g><clipPath id="P"><path transform="matrix(1 0 0 -1 430.543 234.276)" d="M-8-8H8V8H-8z"/></clipPath><g clip-path="url(#P)"><path d="M430.543 237.276a3 3 0 1 0 0-6 3 3 0 0 0 0 6z" fill="#2ca02c"/><path stroke-linejoin="round" fill="none" stroke="#2ca02c" d="M430.543 237.276a3 3 0 1 0 0-6 3 3 0 0 0 0 6z"/></g><clipPath id="Q"><path transform="matrix(1 0 0 -1 474.358 125.939)" d="M-8-8H8V8H-8z"/></clipPath><g clip-path="url(#Q)"><path d="M474.358 128.939a3 3 0 1 0 0-6 3 3 0 0 0 0 6z" fill="#2ca02c"/><path stroke-linejoin="round" fill="none" stroke="#2ca02c" d="M474.358 128.939a3 3 0 1 0 0-6 3 3 0 0 0 0 6z"/></g></g><clipPath id="R"><path transform="matrix(1 0 0 -1 0 720)" d="M61.881 402.558H494V700H61.881z"/></clipPath><g clip-path="url(#R)"><path stroke-width="1.5" stroke-linecap="square" stroke-linejoin="round" fill="none" stroke="#9467bd" d="m81.523 303.745 101.735-5.571 145.55-6.633 101.735-45.325 43.815-87.334"/><clipPath id="S"><path transform="matrix(1 0 0 -1 81.523 303.745)" d="M-8-8H8V8H-8z"/></clipPath><g clip-path="url(#S)"><path d="M81.523 306.745a3 3 0 1 0 0-6 3 3 0 0 0 0 6z" fill="#9467bd"/><path stroke-linejoin="round" fill="none" stroke="#9467bd" d="M81.523 306.745a3 3 0 1 0 0-6 3 3 0 0 0 0 6z"/></g><clipPath id="T"><path transform="matrix(1 0 0 -1 183.258 298.174)" d="M-8-8H8V8H-8z"/></clipPath><g clip-path="url(#T)"><path d="M183.258 301.174a3 3 0 1 0 0-6 3 3 0 0 0 0 6z" fill="#9467bd"/><path stroke-linejoin="round" fill="none" stroke="#9467bd" d="M183.258 301.174a3 3 0 1 0 0-6 3 3 0 0 0 0 6z"/></g><clipPath id="U"><path transform="matrix(1 0 0 -1 328.808 291.54)" d="M-8-8H8V8H-8z"/></clipPath><g clip-path="url(#U)"><path d="M328.808 294.54a3 3 0 1 0 0-6 3 3 0 0 0 0 6z" fill="#9467bd"/><path stroke-linejoin="round" fill="none" stroke="#9467bd" d="M328.808 294.54a3 3 0 1 0 0-6 3 3 0 0 0 0 6z"/></g><clipPath id="V"><path transform="matrix(1 0 0 -1 430.543 246.216)" d="M-8-8H8V8H-8z"/></clipPath><g clip-path="url(#V)"><path d="M430.543 249.216a3 3 0 1 0 0-6 3 3 0 0 0 0 6z" fill="#9467bd"/><path stroke-linejoin="round" fill="none" stroke="#9467bd" d="M430.543 249.216a3 3 0 1 0 0-6 3 3 0 0 0 0 6z"/></g><clipPath id="W"><path transform="matrix(1 0 0 -1 474.358 158.882)" d="M-8-8H8V8H-8z"/></clipPath><g clip-path="url(#W)"><path d="M474.358 161.882a3 3 0 1 0 0-6 3 3 0 0 0 0 6z" fill="#9467bd"/><path stroke-linejoin="round" fill="none" stroke="#9467bd" d="M474.358 161.882a3 3 0 1 0 0-6 3 3 0 0 0 0 6z"/></g></g><clipPath id="X"><path transform="matrix(1 0 0 -1 0 720)" d="M61.881 402.558H494V700H61.881z"/></clipPath><g clip-path="url(#X)"><path stroke-width="1.5" stroke-linecap="square" stroke-linejoin="round" fill="none" stroke="#e377c2" d="m81.523 303.856 101.735-6.125 145.55-7.738 101.735-72.299 43.815-133.322"/><clipPath id="Y"><path transform="matrix(1 0 0 -1 81.523 303.856)" d="M-8-8H8V8H-8z"/></clipPath><g clip-path="url(#Y)"><path d="M81.523 306.856a3 3 0 1 0 0-6 3 3 0 0 0 0 6z" fill="#e377c2"/><path stroke-linejoin="round" fill="none" stroke="#e377c2" d="M81.523 306.856a3 3 0 1 0 0-6 3 3 0 0 0 0 6z"/></g><clipPath id="Z"><path transform="matrix(1 0 0 -1 183.258 297.731)" d="M-8-8H8V8H-8z"/></clipPath><g clip-path="url(#Z)"><path d="M183.258 300.731a3 3 0 1 0 0-6 3 3 0 0 0 0 6z" fill="#e377c2"/><path stroke-linejoin="round" fill="none" stroke="#e377c2" d="M183.258 300.731a3 3 0 1 0 0-6 3 3 0 0 0 0 6z"/></g><clipPath id="aa"><path transform="matrix(1 0 0 -1 328.808 289.993)" d="M-8-8H8V8H-8z"/></clipPath><g clip-path="url(#aa)"><path d="M328.808 292.993a3 3 0 1 0 0-6 3 3 0 0 0 0 6z" fill="#e377c2"/><path stroke-linejoin="round" fill="none" stroke="#e377c2" d="M328.808 292.993a3 3 0 1 0 0-6 3 3 0 0 0 0 6z"/></g><clipPath id="ab"><path transform="matrix(1 0 0 -1 430.543 217.694)" d="M-8-8H8V8H-8z"/></clipPath><g clip-path="url(#ab)"><path d="M430.543 220.694a3 3 0 1 0 0-6 3 3 0 0 0 0 6z" fill="#e377c2"/><path stroke-linejoin="round" fill="none" stroke="#e377c2" d="M430.543 220.694a3 3 0 1 0 0-6 3 3 0 0 0 0 6z"/></g><clipPath id="ac"><path transform="matrix(1 0 0 -1 474.358 84.372)" d="M-8-8H8V8H-8z"/></clipPath><g clip-path="url(#ac)"><path d="M474.358 87.372a3 3 0 1 0 0-6 3 3 0 0 0 0 6z" fill="#e377c2"/><path stroke-linejoin="round" fill="none" stroke="#e377c2" d="M474.358 87.372a3 3 0 1 0 0-6 3 3 0 0 0 0 6z"/></g></g><clipPath id="ad"><path transform="matrix(1 0 0 -1 0 720)" d="M61.881 402.558H494V700H61.881z"/></clipPath><g clip-path="url(#ad)"><path stroke-width="1.5" stroke-linecap="square" stroke-linejoin="round" fill="none" stroke="#bcbd22" d="m81.523 303.701 101.735-6.412 145.55-8.844 101.735-91.755 43.815-128.237"/><clipPath id="ae"><path transform="matrix(1 0 0 -1 81.523 303.701)" d="M-8-8H8V8H-8z"/></clipPath><g clip-path="url(#ae)"><path d="M81.523 306.701a3 3 0 1 0 0-6 3 3 0 0 0 0 6z" fill="#bcbd22"/><path stroke-linejoin="round" fill="none" stroke="#bcbd22" d="M81.523 306.701a3 3 0 1 0 0-6 3 3 0 0 0 0 6z"/></g><clipPath id="af"><path transform="matrix(1 0 0 -1 183.258 297.29)" d="M-8-8H8V8H-8z"/></clipPath><g clip-path="url(#af)"><path d="M183.258 300.29a3 3 0 1 0 0-6.001 3 3 0 0 0 0 6z" fill="#bcbd22"/><path stroke-linejoin="round" fill="none" stroke="#bcbd22" d="M183.258 300.29a3 3 0 1 0 0-6.001 3 3 0 0 0 0 6z"/></g><clipPath id="ag"><path transform="matrix(1 0 0 -1 328.808 288.445)" d="M-8-8H8V8H-8z"/></clipPath><g clip-path="url(#ag)"><path d="M328.808 291.445a3 3 0 1 0 0-6 3 3 0 0 0 0 6z" fill="#bcbd22"/><path stroke-linejoin="round" fill="none" stroke="#bcbd22" d="M328.808 291.445a3 3 0 1 0 0-6 3 3 0 0 0 0 6z"/></g><clipPath id="ah"><path transform="matrix(1 0 0 -1 430.543 196.69)" d="M-8-8H8V8H-8z"/></clipPath><g clip-path="url(#ah)"><path d="M430.543 199.69a3 3 0 1 0 0-6 3 3 0 0 0 0 6z" fill="#bcbd22"/><path stroke-linejoin="round" fill="none" stroke="#bcbd22" d="M430.543 199.69a3 3 0 1 0 0-6 3 3 0 0 0 0 6z"/></g><clipPath id="ai"><path transform="matrix(1 0 0 -1 474.358 68.453)" d="M-8-8H8V8H-8z"/></clipPath><g clip-path="url(#ai)"><path d="M474.358 71.453a3 3 0 1 0 0-6 3 3 0 0 0 0 6z" fill="#bcbd22"/><path stroke-linejoin="round" fill="none" stroke="#bcbd22" d="M474.358 71.453a3 3 0 1 0 0-6 3 3 0 0 0 0 6z"/></g></g><clipPath id="aj"><path transform="matrix(1 0 0 -1 0 720)" d="M61.881 402.558H494V700H61.881z"/></clipPath><g clip-path="url(#aj)"><path stroke-width="1.5" stroke-linecap="square" stroke-linejoin="round" fill="none" stroke="#17becf" d="m81.523 303.59 101.735-7.185 145.55-11.055 101.735-74.731L474.358 33.52"/><clipPath id="ak"><path transform="matrix(1 0 0 -1 81.523 303.59)" d="M-8-8H8V8H-8z"/></clipPath><g clip-path="url(#ak)"><path d="M81.523 306.59a3 3 0 1 0 0-6 3 3 0 0 0 0 6z" fill="#17becf"/><path stroke-linejoin="round" fill="none" stroke="#17becf" d="M81.523 306.59a3 3 0 1 0 0-6 3 3 0 0 0 0 6z"/></g><clipPath id="al"><path transform="matrix(1 0 0 -1 183.258 296.405)" d="M-8-8H8V8H-8z"/></clipPath><g clip-path="url(#al)"><path d="M183.258 299.405a3 3 0 1 0 0-6 3 3 0 0 0 0 6z" fill="#17becf"/><path stroke-linejoin="round" fill="none" stroke="#17becf" d="M183.258 299.405a3 3 0 1 0 0-6 3 3 0 0 0 0 6z"/></g><clipPath id="am"><path transform="matrix(1 0 0 -1 328.808 285.35)" d="M-8-8H8V8H-8z"/></clipPath><g clip-path="url(#am)"><path d="M328.808 288.35a3 3 0 1 0 0-6 3 3 0 0 0 0 6z" fill="#17becf"/><path stroke-linejoin="round" fill="none" stroke="#17becf" d="M328.808 288.35a3 3 0 1 0 0-6 3 3 0 0 0 0 6z"/></g><clipPath id="an"><path transform="matrix(1 0 0 -1 430.543 210.619)" d="M-8-8H8V8H-8z"/></clipPath><g clip-path="url(#an)"><path d="M430.543 213.619a3 3 0 1 0 0-6 3 3 0 0 0 0 6z" fill="#17becf"/><path stroke-linejoin="round" fill="none" stroke="#17becf" d="M430.543 213.619a3 3 0 1 0 0-6 3 3 0 0 0 0 6z"/></g><clipPath id="ao"><path transform="matrix(1 0 0 -1 474.358 33.52)" d="M-8-8H8V8H-8z"/></clipPath><g clip-path="url(#ao)"><path d="M474.358 36.52a3 3 0 1 0 0-6 3 3 0 0 0 0 6z" fill="#17becf"/><path stroke-linejoin="round" fill="none" stroke="#17becf" d="M474.358 36.52a3 3 0 1 0 0-6 3 3 0 0 0 0 6z"/></g></g><path stroke-width=".8" stroke-linecap="square" stroke-miterlimit="10" fill="none" stroke="#000" d="M61.881 317.442V20M494 317.442V20M61.881 317.442H494M61.881 20H494"/><path d="M67.712 98.154h55.797c1.11 0 1.666-.555 1.666-1.666V25.831c0-1.11-.555-1.666-1.666-1.666H67.712c-1.11 0-1.666.555-1.666 1.666v70.657c0 1.11.556 1.666 1.666 1.666z" fill="#fff" fill-opacity=".8"/><path stroke-miterlimit="10" fill="none" stroke="#d5d6d5" stroke-opacity=".8" d="M67.712 98.154h55.797c1.11 0 1.666-.555 1.666-1.666V25.831c0-1.11-.555-1.666-1.666-1.666H67.712c-1.11 0-1.666.555-1.666 1.666v70.657c0 1.11.556 1.666 1.666 1.666z"/><path stroke-width="1.5" stroke-linecap="square" stroke-linejoin="round" fill="none" stroke="#1f77b4" d="M69.378 30.66h16.66"/><path d="M77.708 33.66a3 3 0 1 0 0-6 3 3 0 0 0 0 6z" fill="#1f77b4"/><path stroke-linejoin="round" fill="none" stroke="#1f77b4" d="M77.708 33.66a3 3 0 1 0 0-6 3 3 0 0 0 0 6z"/><symbol id="ap"><path transform="translate(-.098) scale(.001)" d="M98 729h461v-83H197V430h347v-83H197V83h371V0H98v729z"/></symbol><symbol id="aq"><path transform="matrix(.001 0 0 .001 -.087 .013)" d="M87 729h99V286c0-78 14-135 42-169s74-51 138-51c63 0 109 17 137 51s43 91 43 169v443h99V274c0-96-24-167-71-215S458-13 366-13 204 11 157 59 87 178 87 274v455z"/></symbol><use xlink:href="#i" transform="matrix(8.33 0 0 -8.33 93.519 33.575)"/><use xlink:href="#ap" transform="matrix(8.33 0 0 -8.33 98.158 33.575)"/><use xlink:href="#f" transform="matrix(8.33 0 0 -8.33 103.423 33.575)"/><use xlink:href="#aq" transform="matrix(8.33 0 0 -8.33 110.52 33.683)"/><use xlink:href="#s" transform="matrix(8.33 0 0 -8.33 116.71 33.575)"/><path stroke-width="1.5" stroke-linecap="square" stroke-linejoin="round" fill="none" stroke="#2ca02c" d="M69.378 42.575h16.66"/><path d="M77.708 45.575a3 3 0 1 0 0-6 3 3 0 0 0 0 6z" fill="#2ca02c"/><path stroke-linejoin="round" fill="none" stroke="#2ca02c" d="M77.708 45.575a3 3 0 1 0 0-6 3 3 0 0 0 0 6z"/><symbol id="ar"><path transform="translate(-.091) scale(.001)" d="M411 463c-10 6-21 10-33 13-12 2-25 4-39 4-51 0-90-17-117-50-28-33-41-80-41-142V0H91v547h90v-85c18 33 43 58 73 74s67 24 111 24c6 0 13-1 21-1 7-1 15-2 25-4v-92z"/></symbol><use xlink:href="#k" transform="matrix(8.33 0 0 -8.33 93.519 45.49)"/><use xlink:href="#ar" transform="matrix(8.33 0 0 -8.33 99.874 45.49)"/><use xlink:href="#l" transform="matrix(8.33 0 0 -8.33 103.04 45.598)"/><use xlink:href="#v" transform="matrix(8.33 0 0 -8.33 108.43 45.49)"/><use xlink:href="#u" transform="matrix(8.33 0 0 -8.33 110.72 45.49)"/><path stroke-width="1.5" stroke-linecap="square" stroke-linejoin="round" fill="none" stroke="#9467bd" d="M69.378 54.49h16.66"/><path d="M77.708 57.49a3 3 0 1 0 0-6 3 3 0 0 0 0 6z" fill="#9467bd"/><path stroke-linejoin="round" fill="none" stroke="#9467bd" d="M77.708 57.49a3 3 0 1 0 0-6 3 3 0 0 0 0 6z"/><use xlink:href="#g" transform="matrix(8.33 0 0 -8.33 93.519 57.405)"/><use xlink:href="#ar" transform="matrix(8.33 0 0 -8.33 99.175 57.405)"/><use xlink:href="#l" transform="matrix(8.33 0 0 -8.33 102.34 57.513)"/><use xlink:href="#v" transform="matrix(8.33 0 0 -8.33 107.73 57.405)"/><use xlink:href="#u" transform="matrix(8.33 0 0 -8.33 110.02 57.405)"/><path stroke-width="1.5" stroke-linecap="square" stroke-linejoin="round" fill="none" stroke="#e377c2" d="M69.378 66.405h16.66"/><path d="M77.708 69.405a3 3 0 1 0 0-6 3 3 0 0 0 0 6z" fill="#e377c2"/><path stroke-linejoin="round" fill="none" stroke="#e377c2" d="M77.708 69.405a3 3 0 1 0 0-6 3 3 0 0 0 0 6z"/><symbol id="as"><path transform="translate(-.098) scale(.001)" d="M197 648V374h124c46 0 81 11 106 35s38 58 38 102-13 77-38 101-60 36-106 36H197zm-99 81h223c81 0 143-19 185-56s63-91 63-162c0-72-21-127-63-163-42-37-104-55-185-55H197V0H98v729z"/></symbol><use xlink:href="#aq" transform="matrix(8.33 0 0 -8.33 93.427 69.428)"/><use xlink:href="#i" transform="matrix(8.33 0 0 -8.33 99.616 69.32)"/><use xlink:href="#as" transform="matrix(8.33 0 0 -8.33 104.256 69.32)"/><path stroke-width="1.5" stroke-linecap="square" stroke-linejoin="round" fill="none" stroke="#bcbd22" d="M69.378 78.32h16.66"/><path d="M77.708 81.32a3 3 0 1 0 0-6 3 3 0 0 0 0 6z" fill="#bcbd22"/><path stroke-linejoin="round" fill="none" stroke="#bcbd22" d="M77.708 81.32a3 3 0 1 0 0-6 3 3 0 0 0 0 6z"/><symbol id="at"><path transform="matrix(.001 0 0 .001 -.091 .207)" d="M181 82v-289H91v754h90v-83c18 32 42 56 71 72s64 24 104 24c66 0 120-27 162-79 41-53 62-122 62-208s-21-156-62-208c-42-52-96-78-162-78-40 0-75 8-104 23s-53 39-71 72zm306 191c0 66-14 117-41 155-28 38-65 57-112 57-48 0-85-19-112-57-28-38-41-89-41-155s13-118 41-156c27-38 64-56 112-56 47 0 84 18 112 56 27 38 41 90 41 156z"/></symbol><symbol id="au"><path transform="translate(-.094) scale(.001)" d="M94 760h90V0H94v760z"/></symbol><use xlink:href="#A" transform="matrix(8.33 0 0 -8.33 93.252 81.343)"/><use xlink:href="#at" transform="matrix(8.33 0 0 -8.33 98.75 82.96)"/><use xlink:href="#o" transform="matrix(8.33 0 0 -8.33 103.74 81.343)"/><use xlink:href="#au" transform="matrix(8.33 0 0 -8.33 109.187 81.235)"/><use xlink:href="#au" transform="matrix(8.33 0 0 -8.33 111.503 81.235)"/><path stroke-width="1.5" stroke-linecap="square" stroke-linejoin="round" fill="none" stroke="#17becf" d="M69.378 90.235h16.66"/><path d="M77.708 93.235a3 3 0 1 0 0-6 3 3 0 0 0 0 6z" fill="#17becf"/><path stroke-linejoin="round" fill="none" stroke="#17becf" d="M77.708 93.235a3 3 0 1 0 0-6 3 3 0 0 0 0 6z"/><symbol id="av"><path transform="translate(-.098) scale(.001)" d="M98 729h99V0H98v729z"/></symbol><symbol id="aw"><path transform="matrix(.001 0 0 .001 -.056 .013)" d="M394 662c-72 0-129-27-171-80-42-54-63-126-63-218s21-165 63-218c42-54 99-80 171-80 71 0 128 26 170 80 42 53 63 126 63 218s-21 164-63 218c-42 53-99 80-170 80zm0 80c102 0 183-35 245-103 61-68 92-160 92-275 0-116-31-207-92-275C577 21 496-13 394-13 291-13 209 21 148 89c-62 68-92 159-92 275 0 115 30 207 92 275 61 68 143 103 246 103z"/></symbol><use xlink:href="#av" transform="matrix(8.33 0 0 -8.33 93.519 93.15)"/><use xlink:href="#as" transform="matrix(8.33 0 0 -8.33 95.976 93.15)"/><use xlink:href="#i" transform="matrix(8.33 0 0 -8.33 100.999 93.15)"/><use xlink:href="#aw" transform="matrix(8.33 0 0 -8.33 104.992 93.258)"/><use xlink:href="#f" transform="matrix(8.33 0 0 -8.33 111.898 93.15)"/><path d="M555.881 317.442H988V20H555.881z" fill="#fff"/><path stroke-width=".8" stroke-linejoin="round" fill="none" stroke="#000" d="M575.523 317.442v3.5"/><use xlink:href="#a" transform="matrix(10 0 0 -10 569.792 332.036)"/><use xlink:href="#b" transform="matrix(10 0 0 -10 576.402 332.036)"/><path stroke-width=".8" stroke-linejoin="round" fill="none" stroke="#000" d="M677.258 317.442v3.5"/><use xlink:href="#c" transform="matrix(10 0 0 -10 668.717 332.036)"/><use xlink:href="#d" transform="matrix(10 0 0 -10 674.637 332.166)"/><use xlink:href="#b" transform="matrix(10 0 0 -10 681.317 332.036)"/><path stroke-width=".8" stroke-linejoin="round" fill="none" stroke="#000" d="M822.808 317.442v3.5"/><use xlink:href="#c" transform="matrix(10 0 0 -10 811.088 332.036)"/><use xlink:href="#d" transform="matrix(10 0 0 -10 817.008 332.166)"/><use xlink:href="#d" transform="matrix(10 0 0 -10 823.368 332.166)"/><use xlink:href="#b" transform="matrix(10 0 0 -10 830.048 332.036)"/><path stroke-width=".8" stroke-linejoin="round" fill="none" stroke="#000" d="M924.543 317.442v3.5"/><use xlink:href="#e" transform="matrix(10 0 0 -10 912.493 332.166)"/><use xlink:href="#d" transform="matrix(10 0 0 -10 918.743 332.166)"/><use xlink:href="#d" transform="matrix(10 0 0 -10 925.103 332.166)"/><use xlink:href="#b" transform="matrix(10 0 0 -10 931.783 332.036)"/><path stroke-width=".8" stroke-linejoin="round" fill="none" stroke="#000" d="M968.358 317.442v3.5"/><use xlink:href="#c" transform="matrix(10 0 0 -10 961.966 332.036)"/><use xlink:href="#f" transform="matrix(10 0 0 -10 968.206 332.036)"/><path stroke-width=".6" stroke-linejoin="round" fill="none" stroke="#000" d="M601.153 317.442v2M619.338 317.442v2M633.443 317.442v2M644.968 317.442v2M654.712 317.442v2M663.153 317.442v2M670.598 317.442v2M721.073 317.442v2M746.703 317.442v2M764.888 317.442v2M778.993 317.442v2M790.518 317.442v2M800.262 317.442v2M808.703 317.442v2M816.148 317.442v2M866.623 317.442v2M892.253 317.442v2M910.438 317.442v2M936.068 317.442v2M945.812 317.442v2M954.253 317.442v2M961.698 317.442v2"/><symbol id="ax"><path transform="translate(-.098) scale(.001)" d="M98 729h99V430h358v299h99V0h-99v347H197V0H98v729z"/></symbol><symbol id="ay"><path transform="translate(-.098) scale(.001)" d="M98 729h419v-83H197V431h289v-83H197V0H98v729z"/></symbol><use xlink:href="#ax" transform="matrix(12 0 0 -12 731.437 347.24)"/><use xlink:href="#k" transform="matrix(12 0 0 -12 740.461 347.24)"/><use xlink:href="#ay" transform="matrix(12 0 0 -12 749.7 347.24)"/><use xlink:href="#A" transform="matrix(12 0 0 -12 756.014 347.395)"/><use xlink:href="#j" transform="matrix(12 0 0 -12 762.842 347.24)"/><use xlink:href="#k" transform="matrix(12 0 0 -12 767.834 347.24)"/><use xlink:href="#l" transform="matrix(12 0 0 -12 776.618 347.395)"/><use xlink:href="#m" transform="matrix(12 0 0 -12 783.578 347.24)"/><use xlink:href="#l" transform="matrix(12 0 0 -12 788.678 347.395)"/><use xlink:href="#n" transform="matrix(12 0 0 -12 795.962 347.395)"/><use xlink:href="#o" transform="matrix(12 0 0 -12 802.226 347.395)"/><use xlink:href="#m" transform="matrix(12 0 0 -12 809.27 347.24)"/><path stroke-width=".8" stroke-linejoin="round" fill="none" stroke="#000" d="M555.881 305.14h-3.5"/><use xlink:href="#d" transform="matrix(10 0 0 -10 543.182 309.067)"/><path stroke-width=".8" stroke-linejoin="round" fill="none" stroke="#000" d="M555.881 267.675h-3.5"/><use xlink:href="#a" transform="matrix(10 0 0 -10 536.892 271.472)"/><use xlink:href="#d" transform="matrix(10 0 0 -10 543.182 271.602)"/><path stroke-width=".8" stroke-linejoin="round" fill="none" stroke="#000" d="M555.881 230.21h-3.5"/><use xlink:href="#p" transform="matrix(10 0 0 -10 536.652 234.007)"/><use xlink:href="#d" transform="matrix(10 0 0 -10 543.182 234.137)"/><path stroke-width=".8" stroke-linejoin="round" fill="none" stroke="#000" d="M555.881 192.745h-3.5"/><use xlink:href="#q" transform="matrix(10 0 0 -10 536.862 196.672)"/><use xlink:href="#d" transform="matrix(10 0 0 -10 543.182 196.672)"/><path stroke-width=".8" stroke-linejoin="round" fill="none" stroke="#000" d="M555.881 155.28h-3.5"/><use xlink:href="#r" transform="matrix(10 0 0 -10 536.842 159.207)"/><use xlink:href="#d" transform="matrix(10 0 0 -10 543.182 159.207)"/><path stroke-width=".8" stroke-linejoin="round" fill="none" stroke="#000" d="M555.881 117.816h-3.5"/><use xlink:href="#c" transform="matrix(10 0 0 -10 530.903 121.613)"/><use xlink:href="#d" transform="matrix(10 0 0 -10 536.823 121.743)"/><use xlink:href="#d" transform="matrix(10 0 0 -10 543.183 121.743)"/><path stroke-width=".8" stroke-linejoin="round" fill="none" stroke="#000" d="M555.881 80.351h-3.5"/><use xlink:href="#c" transform="matrix(10 0 0 -10 530.903 84.148)"/><use xlink:href="#a" transform="matrix(10 0 0 -10 536.893 84.148)"/><use xlink:href="#d" transform="matrix(10 0 0 -10 543.183 84.278)"/><path stroke-width=".8" stroke-linejoin="round" fill="none" stroke="#000" d="M555.881 42.886h-3.5"/><use xlink:href="#c" transform="matrix(10 0 0 -10 530.903 46.683)"/><use xlink:href="#p" transform="matrix(10 0 0 -10 536.653 46.683)"/><use xlink:href="#d" transform="matrix(10 0 0 -10 543.183 46.813)"/><use xlink:href="#s" transform="matrix(0 -12 -12 0 523.303 240.56)"/><use xlink:href="#t" transform="matrix(0 -12 -12 0 523.46 232.908)"/><use xlink:href="#u" transform="matrix(0 -12 -12 0 523.303 225.228)"/><use xlink:href="#u" transform="matrix(0 -12 -12 0 523.303 217.62)"/><use xlink:href="#v" transform="matrix(0 -12 -12 0 523.303 209.976)"/><use xlink:href="#u" transform="matrix(0 -12 -12 0 523.303 206.676)"/><use xlink:href="#w" transform="matrix(0 -12 -12 0 525.787 199.5)"/><use xlink:href="#j" transform="matrix(0 -12 -12 0 523.303 192.54)"/><use xlink:href="#x" transform="matrix(0 -12 -12 0 523.303 188.748)"/><use xlink:href="#v" transform="matrix(0 -12 -12 0 523.303 180.623)"/><use xlink:href="#y" transform="matrix(0 -12 -12 0 523.303 177.323)"/><use xlink:href="#o" transform="matrix(0 -12 -12 0 523.46 166.067)"/><use xlink:href="#j" transform="matrix(0 -12 -12 0 523.303 159.347)"/><use xlink:href="#z" transform="matrix(0 -12 -12 0 524.875 154.5)"/><use xlink:href="#A" transform="matrix(0 -12 -12 0 523.46 150.06)"/><use xlink:href="#o" transform="matrix(0 -12 -12 0 523.46 142.571)"/><use xlink:href="#B" transform="matrix(0 -12 -12 0 523.46 135.191)"/><use xlink:href="#C" transform="matrix(0 -12 -12 0 523.46 128.591)"/><use xlink:href="#u" transform="matrix(0 -12 -12 0 523.303 120.815)"/><use xlink:href="#D" transform="matrix(0 -12 -12 0 523.46 113.64)"/><use xlink:href="#n" transform="matrix(0 -12 -12 0 523.46 106.031)"/><use xlink:href="#E" transform="matrix(0 -12 -12 0 524.875 99.467)"/><clipPath id="az"><path transform="matrix(1 0 0 -1 0 720)" d="M555.881 402.558H988V700H555.881z"/></clipPath><g clip-path="url(#az)"><path stroke-width="1.5" stroke-linecap="square" stroke-linejoin="round" fill="none" stroke="#1f77b4" d="m575.523 303.922 101.735-4.59 145.55-8.242 101.735-51.514 43.815-112.02"/><clipPath id="aA"><path transform="matrix(1 0 0 -1 575.523 303.922)" d="M-8-8H8V8H-8z"/></clipPath><g clip-path="url(#aA)"><path d="M575.523 306.922a3 3 0 1 0 0-6 3 3 0 0 0 0 6z" fill="#1f77b4"/><path stroke-linejoin="round" fill="none" stroke="#1f77b4" d="M575.523 306.922a3 3 0 1 0 0-6 3 3 0 0 0 0 6z"/></g><clipPath id="aB"><path transform="matrix(1 0 0 -1 677.258 299.333)" d="M-8-8H8V8H-8z"/></clipPath><g clip-path="url(#aB)"><path d="M677.258 302.333a3 3 0 1 0 0-6 3 3 0 0 0 0 6z" fill="#1f77b4"/><path stroke-linejoin="round" fill="none" stroke="#1f77b4" d="M677.258 302.333a3 3 0 1 0 0-6 3 3 0 0 0 0 6z"/></g><clipPath id="aC"><path transform="matrix(1 0 0 -1 822.808 291.09)" d="M-8-8H8V8H-8z"/></clipPath><g clip-path="url(#aC)"><path d="M822.808 294.09a3 3 0 1 0 0-6 3 3 0 0 0 0 6z" fill="#1f77b4"/><path stroke-linejoin="round" fill="none" stroke="#1f77b4" d="M822.808 294.09a3 3 0 1 0 0-6 3 3 0 0 0 0 6z"/></g><clipPath id="aD"><path transform="matrix(1 0 0 -1 924.543 239.576)" d="M-8-8H8V8H-8z"/></clipPath><g clip-path="url(#aD)"><path d="M924.543 242.576a3 3 0 1 0 0-6 3 3 0 0 0 0 6z" fill="#1f77b4"/><path stroke-linejoin="round" fill="none" stroke="#1f77b4" d="M924.543 242.576a3 3 0 1 0 0-6 3 3 0 0 0 0 6z"/></g><clipPath id="aE"><path transform="matrix(1 0 0 -1 968.358 127.557)" d="M-8-8H8V8H-8z"/></clipPath><g clip-path="url(#aE)"><path d="M968.358 130.557a3 3 0 1 0 0-6 3 3 0 0 0 0 6z" fill="#1f77b4"/><path stroke-linejoin="round" fill="none" stroke="#1f77b4" d="M968.358 130.557a3 3 0 1 0 0-6 3 3 0 0 0 0 6z"/></g></g><clipPath id="aF"><path transform="matrix(1 0 0 -1 0 720)" d="M555.881 402.558H988V700H555.881z"/></clipPath><g clip-path="url(#aF)"><path stroke-width="1.5" stroke-linecap="square" stroke-linejoin="round" fill="none" stroke="#2ca02c" d="m575.523 303.903 101.735-4.196 145.55-6.743 101.735-49.641 43.815-134.873"/><clipPath id="aG"><path transform="matrix(1 0 0 -1 575.523 303.903)" d="M-8-8H8V8H-8z"/></clipPath><g clip-path="url(#aG)"><path d="M575.523 306.903a3 3 0 1 0 0-6 3 3 0 0 0 0 6z" fill="#2ca02c"/><path stroke-linejoin="round" fill="none" stroke="#2ca02c" d="M575.523 306.903a3 3 0 1 0 0-6 3 3 0 0 0 0 6z"/></g><clipPath id="aH"><path transform="matrix(1 0 0 -1 677.258 299.707)" d="M-8-8H8V8H-8z"/></clipPath><g clip-path="url(#aH)"><path d="M677.258 302.707a3 3 0 1 0 0-6 3 3 0 0 0 0 6z" fill="#2ca02c"/><path stroke-linejoin="round" fill="none" stroke="#2ca02c" d="M677.258 302.707a3 3 0 1 0 0-6 3 3 0 0 0 0 6z"/></g><clipPath id="aI"><path transform="matrix(1 0 0 -1 822.808 292.964)" d="M-8-8H8V8H-8z"/></clipPath><g clip-path="url(#aI)"><path d="M822.808 295.964a3 3 0 1 0 0-6 3 3 0 0 0 0 6z" fill="#2ca02c"/><path stroke-linejoin="round" fill="none" stroke="#2ca02c" d="M822.808 295.964a3 3 0 1 0 0-6 3 3 0 0 0 0 6z"/></g><clipPath id="aJ"><path transform="matrix(1 0 0 -1 924.543 243.323)" d="M-8-8H8V8H-8z"/></clipPath><g clip-path="url(#aJ)"><path d="M924.543 246.323a3 3 0 1 0 0-6 3 3 0 0 0 0 6z" fill="#2ca02c"/><path stroke-linejoin="round" fill="none" stroke="#2ca02c" d="M924.543 246.323a3 3 0 1 0 0-6 3 3 0 0 0 0 6z"/></g><clipPath id="aK"><path transform="matrix(1 0 0 -1 968.358 108.45)" d="M-8-8H8V8H-8z"/></clipPath><g clip-path="url(#aK)"><path d="M968.358 111.45a3 3 0 1 0 0-6 3 3 0 0 0 0 6z" fill="#2ca02c"/><path stroke-linejoin="round" fill="none" stroke="#2ca02c" d="M968.358 111.45a3 3 0 1 0 0-6 3 3 0 0 0 0 6z"/></g></g><clipPath id="aL"><path transform="matrix(1 0 0 -1 0 720)" d="M555.881 402.558H988V700H555.881z"/></clipPath><g clip-path="url(#aL)"><path stroke-width="1.5" stroke-linecap="square" stroke-linejoin="round" fill="none" stroke="#9467bd" d="m575.523 303.828 101.735-4.87 145.55-5.807 101.735-40.462 43.815-116.14"/><clipPath id="aM"><path transform="matrix(1 0 0 -1 575.523 303.828)" d="M-8-8H8V8H-8z"/></clipPath><g clip-path="url(#aM)"><path d="M575.523 306.828a3 3 0 1 0 0-6 3 3 0 0 0 0 6z" fill="#9467bd"/><path stroke-linejoin="round" fill="none" stroke="#9467bd" d="M575.523 306.828a3 3 0 1 0 0-6 3 3 0 0 0 0 6z"/></g><clipPath id="aN"><path transform="matrix(1 0 0 -1 677.258 298.958)" d="M-8-8H8V8H-8z"/></clipPath><g clip-path="url(#aN)"><path d="M677.258 301.958a3 3 0 1 0 0-6 3 3 0 0 0 0 6z" fill="#9467bd"/><path stroke-linejoin="round" fill="none" stroke="#9467bd" d="M677.258 301.958a3 3 0 1 0 0-6 3 3 0 0 0 0 6z"/></g><clipPath id="aO"><path transform="matrix(1 0 0 -1 822.808 293.151)" d="M-8-8H8V8H-8z"/></clipPath><g clip-path="url(#aO)"><path d="M822.808 296.151a3 3 0 1 0 0-6 3 3 0 0 0 0 6z" fill="#9467bd"/><path stroke-linejoin="round" fill="none" stroke="#9467bd" d="M822.808 296.151a3 3 0 1 0 0-6 3 3 0 0 0 0 6z"/></g><clipPath id="aP"><path transform="matrix(1 0 0 -1 924.543 252.689)" d="M-8-8H8V8H-8z"/></clipPath><g clip-path="url(#aP)"><path d="M924.543 255.689a3 3 0 1 0 0-6 3 3 0 0 0 0 6z" fill="#9467bd"/><path stroke-linejoin="round" fill="none" stroke="#9467bd" d="M924.543 255.689a3 3 0 1 0 0-6 3 3 0 0 0 0 6z"/></g><clipPath id="aQ"><path transform="matrix(1 0 0 -1 968.358 136.548)" d="M-8-8H8V8H-8z"/></clipPath><g clip-path="url(#aQ)"><path d="M968.358 139.548a3 3 0 1 0 0-6 3 3 0 0 0 0 6z" fill="#9467bd"/><path stroke-linejoin="round" fill="none" stroke="#9467bd" d="M968.358 139.548a3 3 0 1 0 0-6 3 3 0 0 0 0 6z"/></g></g><clipPath id="aR"><path transform="matrix(1 0 0 -1 0 720)" d="M555.881 402.558H988V700H555.881z"/></clipPath><g clip-path="url(#aR)"><path stroke-width="1.5" stroke-linecap="square" stroke-linejoin="round" fill="none" stroke="#e377c2" d="m575.523 303.866 101.735-5.283 145.55-6.556 101.735-61.817 43.815-153.605"/><clipPath id="aS"><path transform="matrix(1 0 0 -1 575.523 303.866)" d="M-8-8H8V8H-8z"/></clipPath><g clip-path="url(#aS)"><path d="M575.523 306.866a3 3 0 1 0 0-6 3 3 0 0 0 0 6z" fill="#e377c2"/><path stroke-linejoin="round" fill="none" stroke="#e377c2" d="M575.523 306.866a3 3 0 1 0 0-6 3 3 0 0 0 0 6z"/></g><clipPath id="aT"><path transform="matrix(1 0 0 -1 677.258 298.583)" d="M-8-8H8V8H-8z"/></clipPath><g clip-path="url(#aT)"><path d="M677.258 301.583a3 3 0 1 0 0-6 3 3 0 0 0 0 6z" fill="#e377c2"/><path stroke-linejoin="round" fill="none" stroke="#e377c2" d="M677.258 301.583a3 3 0 1 0 0-6 3 3 0 0 0 0 6z"/></g><clipPath id="aU"><path transform="matrix(1 0 0 -1 822.808 292.027)" d="M-8-8H8V8H-8z"/></clipPath><g clip-path="url(#aU)"><path d="M822.808 295.027a3 3 0 1 0 0-6 3 3 0 0 0 0 6z" fill="#e377c2"/><path stroke-linejoin="round" fill="none" stroke="#e377c2" d="M822.808 295.027a3 3 0 1 0 0-6 3 3 0 0 0 0 6z"/></g><clipPath id="aV"><path transform="matrix(1 0 0 -1 924.543 230.21)" d="M-8-8H8V8H-8z"/></clipPath><g clip-path="url(#aV)"><path d="M924.543 233.21a3 3 0 1 0 0-6 3 3 0 0 0 0 6z" fill="#e377c2"/><path stroke-linejoin="round" fill="none" stroke="#e377c2" d="M924.543 233.21a3 3 0 1 0 0-6 3 3 0 0 0 0 6z"/></g><clipPath id="aW"><path transform="matrix(1 0 0 -1 968.358 76.605)" d="M-8-8H8V8H-8z"/></clipPath><g clip-path="url(#aW)"><path d="M968.358 79.605a3 3 0 1 0 0-6 3 3 0 0 0 0 6z" fill="#e377c2"/><path stroke-linejoin="round" fill="none" stroke="#e377c2" d="M968.358 79.605a3 3 0 1 0 0-6 3 3 0 0 0 0 6z"/></g></g><clipPath id="aX"><path transform="matrix(1 0 0 -1 0 720)" d="M555.881 402.558H988V700H555.881z"/></clipPath><g clip-path="url(#aX)"><path stroke-width="1.5" stroke-linecap="square" stroke-linejoin="round" fill="none" stroke="#bcbd22" d="m575.523 303.772 101.735-5.563 145.55-11.427 101.735-67.811 43.815-157.352"/><clipPath id="aY"><path transform="matrix(1 0 0 -1 575.523 303.772)" d="M-8-8H8V8H-8z"/></clipPath><g clip-path="url(#aY)"><path d="M575.523 306.772a3 3 0 1 0 0-6 3 3 0 0 0 0 6z" fill="#bcbd22"/><path stroke-linejoin="round" fill="none" stroke="#bcbd22" d="M575.523 306.772a3 3 0 1 0 0-6 3 3 0 0 0 0 6z"/></g><clipPath id="aZ"><path transform="matrix(1 0 0 -1 677.258 298.209)" d="M-8-8H8V8H-8z"/></clipPath><g clip-path="url(#aZ)"><path d="M677.258 301.209a3 3 0 1 0 0-6 3 3 0 0 0 0 6z" fill="#bcbd22"/><path stroke-linejoin="round" fill="none" stroke="#bcbd22" d="M677.258 301.209a3 3 0 1 0 0-6 3 3 0 0 0 0 6z"/></g><clipPath id="ba"><path transform="matrix(1 0 0 -1 822.808 286.782)" d="M-8-8H8V8H-8z"/></clipPath><g clip-path="url(#ba)"><path d="M822.808 289.782a3 3 0 1 0 0-6 3 3 0 0 0 0 6z" fill="#bcbd22"/><path stroke-linejoin="round" fill="none" stroke="#bcbd22" d="M822.808 289.782a3 3 0 1 0 0-6 3 3 0 0 0 0 6z"/></g><clipPath id="bb"><path transform="matrix(1 0 0 -1 924.543 218.97)" d="M-8-8H8V8H-8z"/></clipPath><g clip-path="url(#bb)"><path d="M924.543 221.97a3 3 0 1 0 0-6 3 3 0 0 0 0 6z" fill="#bcbd22"/><path stroke-linejoin="round" fill="none" stroke="#bcbd22" d="M924.543 221.97a3 3 0 1 0 0-6 3 3 0 0 0 0 6z"/></g><clipPath id="bc"><path transform="matrix(1 0 0 -1 968.358 61.619)" d="M-8-8H8V8H-8z"/></clipPath><g clip-path="url(#bc)"><path d="M968.358 64.619a3 3 0 1 0 0-6 3 3 0 0 0 0 6z" fill="#bcbd22"/><path stroke-linejoin="round" fill="none" stroke="#bcbd22" d="M968.358 64.619a3 3 0 1 0 0-6 3 3 0 0 0 0 6z"/></g></g><clipPath id="bd"><path transform="matrix(1 0 0 -1 0 720)" d="M555.881 402.558H988V700H555.881z"/></clipPath><g clip-path="url(#bd)"><path stroke-width="1.5" stroke-linecap="square" stroke-linejoin="round" fill="none" stroke="#17becf" d="m575.523 303.679 101.735-6.22 145.55-5.994 101.735-79.987L968.358 33.52"/><clipPath id="be"><path transform="matrix(1 0 0 -1 575.523 303.679)" d="M-8-8H8V8H-8z"/></clipPath><g clip-path="url(#be)"><path d="M575.523 306.679a3 3 0 1 0 0-6 3 3 0 0 0 0 6z" fill="#17becf"/><path stroke-linejoin="round" fill="none" stroke="#17becf" d="M575.523 306.679a3 3 0 1 0 0-6 3 3 0 0 0 0 6z"/></g><clipPath id="bf"><path transform="matrix(1 0 0 -1 677.258 297.46)" d="M-8-8H8V8H-8z"/></clipPath><g clip-path="url(#bf)"><path d="M677.258 300.46a3 3 0 1 0 0-6 3 3 0 0 0 0 6z" fill="#17becf"/><path stroke-linejoin="round" fill="none" stroke="#17becf" d="M677.258 300.46a3 3 0 1 0 0-6 3 3 0 0 0 0 6z"/></g><clipPath id="bg"><path transform="matrix(1 0 0 -1 822.808 291.465)" d="M-8-8H8V8H-8z"/></clipPath><g clip-path="url(#bg)"><path d="M822.808 294.465a3 3 0 1 0 0-6 3 3 0 0 0 0 6z" fill="#17becf"/><path stroke-linejoin="round" fill="none" stroke="#17becf" d="M822.808 294.465a3 3 0 1 0 0-6 3 3 0 0 0 0 6z"/></g><clipPath id="bh"><path transform="matrix(1 0 0 -1 924.543 211.478)" d="M-8-8H8V8H-8z"/></clipPath><g clip-path="url(#bh)"><path d="M924.543 214.478a3 3 0 1 0 0-6 3 3 0 0 0 0 6z" fill="#17becf"/><path stroke-linejoin="round" fill="none" stroke="#17becf" d="M924.543 214.478a3 3 0 1 0 0-6 3 3 0 0 0 0 6z"/></g><clipPath id="bi"><path transform="matrix(1 0 0 -1 968.358 33.52)" d="M-8-8H8V8H-8z"/></clipPath><g clip-path="url(#bi)"><path d="M968.358 36.52a3 3 0 1 0 0-6 3 3 0 0 0 0 6z" fill="#17becf"/><path stroke-linejoin="round" fill="none" stroke="#17becf" d="M968.358 36.52a3 3 0 1 0 0-6 3 3 0 0 0 0 6z"/></g></g><path stroke-width=".8" stroke-linecap="square" stroke-miterlimit="10" fill="none" stroke="#000" d="M555.881 317.442V20M988 317.442V20M555.881 317.442H988M555.881 20H988"/><path d="M561.712 98.154h55.797c1.11 0 1.666-.555 1.666-1.666V25.831c0-1.11-.555-1.666-1.666-1.666h-55.797c-1.11 0-1.666.555-1.666 1.666v70.657c0 1.11.556 1.666 1.666 1.666z" fill="#fff" fill-opacity=".8"/><path stroke-miterlimit="10" fill="none" stroke="#d5d6d5" stroke-opacity=".8" d="M561.712 98.154h55.797c1.11 0 1.666-.555 1.666-1.666V25.831c0-1.11-.555-1.666-1.666-1.666h-55.797c-1.11 0-1.666.555-1.666 1.666v70.657c0 1.11.556 1.666 1.666 1.666z"/><path stroke-width="1.5" stroke-linecap="square" stroke-linejoin="round" fill="none" stroke="#1f77b4" d="M563.378 30.66h16.66"/><path d="M571.708 33.66a3 3 0 1 0 0-6 3 3 0 0 0 0 6z" fill="#1f77b4"/><path stroke-linejoin="round" fill="none" stroke="#1f77b4" d="M571.708 33.66a3 3 0 1 0 0-6 3 3 0 0 0 0 6z"/><use xlink:href="#i" transform="matrix(8.33 0 0 -8.33 587.519 33.575)"/><use xlink:href="#ap" transform="matrix(8.33 0 0 -8.33 592.158 33.575)"/><use xlink:href="#f" transform="matrix(8.33 0 0 -8.33 597.423 33.575)"/><use xlink:href="#aq" transform="matrix(8.33 0 0 -8.33 604.52 33.683)"/><use xlink:href="#s" transform="matrix(8.33 0 0 -8.33 610.71 33.575)"/><path stroke-width="1.5" stroke-linecap="square" stroke-linejoin="round" fill="none" stroke="#2ca02c" d="M563.378 42.575h16.66"/><path d="M571.708 45.575a3 3 0 1 0 0-6 3 3 0 0 0 0 6z" fill="#2ca02c"/><path stroke-linejoin="round" fill="none" stroke="#2ca02c" d="M571.708 45.575a3 3 0 1 0 0-6 3 3 0 0 0 0 6z"/><use xlink:href="#k" transform="matrix(8.33 0 0 -8.33 587.519 45.49)"/><use xlink:href="#ar" transform="matrix(8.33 0 0 -8.33 593.874 45.49)"/><use xlink:href="#l" transform="matrix(8.33 0 0 -8.33 597.04 45.598)"/><use xlink:href="#v" transform="matrix(8.33 0 0 -8.33 602.43 45.49)"/><use xlink:href="#u" transform="matrix(8.33 0 0 -8.33 604.72 45.49)"/><path stroke-width="1.5" stroke-linecap="square" stroke-linejoin="round" fill="none" stroke="#9467bd" d="M563.378 54.49h16.66"/><path d="M571.708 57.49a3 3 0 1 0 0-6.001 3 3 0 0 0 0 6z" fill="#9467bd"/><path stroke-linejoin="round" fill="none" stroke="#9467bd" d="M571.708 57.49a3 3 0 1 0 0-6.001 3 3 0 0 0 0 6z"/><use xlink:href="#g" transform="matrix(8.33 0 0 -8.33 587.519 57.405)"/><use xlink:href="#ar" transform="matrix(8.33 0 0 -8.33 593.175 57.405)"/><use xlink:href="#l" transform="matrix(8.33 0 0 -8.33 596.34 57.513)"/><use xlink:href="#v" transform="matrix(8.33 0 0 -8.33 601.73 57.405)"/><use xlink:href="#u" transform="matrix(8.33 0 0 -8.33 604.02 57.405)"/><path stroke-width="1.5" stroke-linecap="square" stroke-linejoin="round" fill="none" stroke="#e377c2" d="M563.378 66.405h16.66"/><path d="M571.708 69.405a3 3 0 1 0 0-6 3 3 0 0 0 0 6z" fill="#e377c2"/><path stroke-linejoin="round" fill="none" stroke="#e377c2" d="M571.708 69.405a3 3 0 1 0 0-6 3 3 0 0 0 0 6z"/><use xlink:href="#aq" transform="matrix(8.33 0 0 -8.33 587.427 69.428)"/><use xlink:href="#i" transform="matrix(8.33 0 0 -8.33 593.616 69.32)"/><use xlink:href="#as" transform="matrix(8.33 0 0 -8.33 598.256 69.32)"/><path stroke-width="1.5" stroke-linecap="square" stroke-linejoin="round" fill="none" stroke="#bcbd22" d="M563.378 78.32h16.66"/><path d="M571.708 81.32a3 3 0 1 0 0-6 3 3 0 0 0 0 6z" fill="#bcbd22"/><path stroke-linejoin="round" fill="none" stroke="#bcbd22" d="M571.708 81.32a3 3 0 1 0 0-6 3 3 0 0 0 0 6z"/><use xlink:href="#A" transform="matrix(8.33 0 0 -8.33 587.252 81.343)"/><use xlink:href="#at" transform="matrix(8.33 0 0 -8.33 592.75 82.96)"/><use xlink:href="#o" transform="matrix(8.33 0 0 -8.33 597.74 81.343)"/><use xlink:href="#au" transform="matrix(8.33 0 0 -8.33 603.187 81.235)"/><use xlink:href="#au" transform="matrix(8.33 0 0 -8.33 605.503 81.235)"/><path stroke-width="1.5" stroke-linecap="square" stroke-linejoin="round" fill="none" stroke="#17becf" d="M563.378 90.235h16.66"/><path d="M571.708 93.235a3 3 0 1 0 0-6 3 3 0 0 0 0 6z" fill="#17becf"/><path stroke-linejoin="round" fill="none" stroke="#17becf" d="M571.708 93.235a3 3 0 1 0 0-6 3 3 0 0 0 0 6z"/><use xlink:href="#av" transform="matrix(8.33 0 0 -8.33 587.519 93.15)"/><use xlink:href="#as" transform="matrix(8.33 0 0 -8.33 589.976 93.15)"/><use xlink:href="#i" transform="matrix(8.33 0 0 -8.33 594.999 93.15)"/><use xlink:href="#aw" transform="matrix(8.33 0 0 -8.33 598.992 93.258)"/><use xlink:href="#f" transform="matrix(8.33 0 0 -8.33 605.898 93.15)"/><path d="M61.881 668.3H494V370.858H61.881z" fill="#fff"/><path stroke-width=".8" stroke-linejoin="round" fill="none" stroke="#000" d="M81.523 668.3v3.5"/><use xlink:href="#a" transform="matrix(10 0 0 -10 75.792 682.894)"/><use xlink:href="#b" transform="matrix(10 0 0 -10 82.402 682.894)"/><path stroke-width=".8" stroke-linejoin="round" fill="none" stroke="#000" d="M183.258 668.3v3.5"/><use xlink:href="#c" transform="matrix(10 0 0 -10 174.718 682.894)"/><use xlink:href="#d" transform="matrix(10 0 0 -10 180.638 683.024)"/><use xlink:href="#b" transform="matrix(10 0 0 -10 187.317 682.894)"/><path stroke-width=".8" stroke-linejoin="round" fill="none" stroke="#000" d="M328.808 668.3v3.5"/><use xlink:href="#c" transform="matrix(10 0 0 -10 317.088 682.894)"/><use xlink:href="#d" transform="matrix(10 0 0 -10 323.008 683.024)"/><use xlink:href="#d" transform="matrix(10 0 0 -10 329.368 683.024)"/><use xlink:href="#b" transform="matrix(10 0 0 -10 336.048 682.894)"/><path stroke-width=".8" stroke-linejoin="round" fill="none" stroke="#000" d="M430.543 668.3v3.5"/><use xlink:href="#e" transform="matrix(10 0 0 -10 418.493 683.024)"/><use xlink:href="#d" transform="matrix(10 0 0 -10 424.743 683.024)"/><use xlink:href="#d" transform="matrix(10 0 0 -10 431.103 683.024)"/><use xlink:href="#b" transform="matrix(10 0 0 -10 437.783 682.894)"/><path stroke-width=".8" stroke-linejoin="round" fill="none" stroke="#000" d="M474.358 668.3v3.5"/><use xlink:href="#c" transform="matrix(10 0 0 -10 467.966 682.894)"/><use xlink:href="#f" transform="matrix(10 0 0 -10 474.206 682.894)"/><path stroke-width=".6" stroke-linejoin="round" fill="none" stroke="#000" d="M107.153 668.3v2M125.338 668.3v2M139.443 668.3v2M150.968 668.3v2M160.712 668.3v2M169.153 668.3v2M176.598 668.3v2M227.073 668.3v2M252.703 668.3v2M270.888 668.3v2M284.993 668.3v2M296.518 668.3v2M306.262 668.3v2M314.703 668.3v2M322.148 668.3v2M372.623 668.3v2M398.253 668.3v2M416.438 668.3v2M442.068 668.3v2M451.812 668.3v2M460.253 668.3v2M467.698 668.3v2"/><symbol id="bj"><path transform="translate(-.008) scale(.001)" d="M342 632 208 269h268L342 632zm-56 97h112L676 0H573l-66 187H178L112 0H8l278 729z"/></symbol><use xlink:href="#bj" transform="matrix(12 0 0 -12 229.42 698.097)"/><use xlink:href="#u" transform="matrix(12 0 0 -12 238.623 698.097)"/><use xlink:href="#D" transform="matrix(12 0 0 -12 245.8 698.253)"/><use xlink:href="#ar" transform="matrix(12 0 0 -12 253.851 698.097)"/><use xlink:href="#C" transform="matrix(12 0 0 -12 258.101 698.253)"/><use xlink:href="#v" transform="matrix(12 0 0 -12 265.913 698.097)"/><use xlink:href="#D" transform="matrix(12 0 0 -12 268.781 698.253)"/><use xlink:href="#j" transform="matrix(12 0 0 -12 275.741 698.097)"/><use xlink:href="#k" transform="matrix(12 0 0 -12 280.733 698.097)"/><use xlink:href="#l" transform="matrix(12 0 0 -12 289.517 698.253)"/><use xlink:href="#m" transform="matrix(12 0 0 -12 296.477 698.097)"/><use xlink:href="#l" transform="matrix(12 0 0 -12 301.577 698.253)"/><use xlink:href="#n" transform="matrix(12 0 0 -12 308.861 698.253)"/><use xlink:href="#o" transform="matrix(12 0 0 -12 315.125 698.253)"/><use xlink:href="#m" transform="matrix(12 0 0 -12 322.17 698.097)"/><path stroke-width=".8" stroke-linejoin="round" fill="none" stroke="#000" d="M61.881 655.48h-3.5"/><use xlink:href="#d" transform="matrix(10 0 0 -10 49.182 659.407)"/><path stroke-width=".8" stroke-linejoin="round" fill="none" stroke="#000" d="M61.881 599h-3.5"/><use xlink:href="#e" transform="matrix(10 0 0 -10 42.932 602.928)"/><use xlink:href="#d" transform="matrix(10 0 0 -10 49.182 602.928)"/><path stroke-width=".8" stroke-linejoin="round" fill="none" stroke="#000" d="M61.881 542.52h-3.5"/><use xlink:href="#c" transform="matrix(10 0 0 -10 36.903 546.318)"/><use xlink:href="#d" transform="matrix(10 0 0 -10 42.823 546.448)"/><use xlink:href="#d" transform="matrix(10 0 0 -10 49.183 546.448)"/><path stroke-width=".8" stroke-linejoin="round" fill="none" stroke="#000" d="M61.881 486.041h-3.5"/><use xlink:href="#c" transform="matrix(10 0 0 -10 36.903 489.838)"/><use xlink:href="#e" transform="matrix(10 0 0 -10 42.933 489.968)"/><use xlink:href="#d" transform="matrix(10 0 0 -10 49.183 489.968)"/><path stroke-width=".8" stroke-linejoin="round" fill="none" stroke="#000" d="M61.881 429.562h-3.5"/><use xlink:href="#a" transform="matrix(10 0 0 -10 36.533 433.359)"/><use xlink:href="#d" transform="matrix(10 0 0 -10 42.823 433.489)"/><use xlink:href="#d" transform="matrix(10 0 0 -10 49.183 433.489)"/><path stroke-width=".8" stroke-linejoin="round" fill="none" stroke="#000" d="M61.881 373.082h-3.5"/><use xlink:href="#a" transform="matrix(10 0 0 -10 36.533 376.879)"/><use xlink:href="#e" transform="matrix(10 0 0 -10 42.933 377.009)"/><use xlink:href="#d" transform="matrix(10 0 0 -10 49.183 377.009)"/><use xlink:href="#s" transform="matrix(0 -12 -12 0 29.303 591.418)"/><use xlink:href="#t" transform="matrix(0 -12 -12 0 29.46 583.766)"/><use xlink:href="#u" transform="matrix(0 -12 -12 0 29.303 576.086)"/><use xlink:href="#u" transform="matrix(0 -12 -12 0 29.303 568.478)"/><use xlink:href="#v" transform="matrix(0 -12 -12 0 29.303 560.834)"/><use xlink:href="#u" transform="matrix(0 -12 -12 0 29.303 557.534)"/><use xlink:href="#w" transform="matrix(0 -12 -12 0 31.787 550.358)"/><use xlink:href="#j" transform="matrix(0 -12 -12 0 29.303 543.398)"/><use xlink:href="#x" transform="matrix(0 -12 -12 0 29.303 539.606)"/><use xlink:href="#v" transform="matrix(0 -12 -12 0 29.303 531.481)"/><use xlink:href="#y" transform="matrix(0 -12 -12 0 29.303 528.181)"/><use xlink:href="#o" transform="matrix(0 -12 -12 0 29.46 516.925)"/><use xlink:href="#j" transform="matrix(0 -12 -12 0 29.303 510.205)"/><use xlink:href="#z" transform="matrix(0 -12 -12 0 30.875 505.357)"/><use xlink:href="#A" transform="matrix(0 -12 -12 0 29.46 500.917)"/><use xlink:href="#o" transform="matrix(0 -12 -12 0 29.46 493.43)"/><use xlink:href="#B" transform="matrix(0 -12 -12 0 29.46 486.05)"/><use xlink:href="#C" transform="matrix(0 -12 -12 0 29.46 479.45)"/><use xlink:href="#u" transform="matrix(0 -12 -12 0 29.303 471.673)"/><use xlink:href="#D" transform="matrix(0 -12 -12 0 29.46 464.497)"/><use xlink:href="#n" transform="matrix(0 -12 -12 0 29.46 456.89)"/><use xlink:href="#E" transform="matrix(0 -12 -12 0 30.875 450.325)"/><clipPath id="bk"><path transform="matrix(1 0 0 -1 0 720)" d="M61.881 51.7H494v297.442H61.881z"/></clipPath><g clip-path="url(#bk)"><path stroke-width="1.5" stroke-linecap="square" stroke-linejoin="round" fill="none" stroke="#1f77b4" d="m81.523 654.78 101.735-2.914 145.55-4.519 101.735-30.273 43.815-63.257"/><clipPath id="bl"><path transform="matrix(1 0 0 -1 81.523 654.78)" d="M-8-8H8V8H-8z"/></clipPath><g clip-path="url(#bl)"><path d="M81.523 657.78a3 3 0 1 0 0-6 3 3 0 0 0 0 6z" fill="#1f77b4"/><path stroke-linejoin="round" fill="none" stroke="#1f77b4" d="M81.523 657.78a3 3 0 1 0 0-6 3 3 0 0 0 0 6z"/></g><clipPath id="bm"><path transform="matrix(1 0 0 -1 183.258 651.866)" d="M-8-8H8V8H-8z"/></clipPath><g clip-path="url(#bm)"><path d="M183.258 654.866a3 3 0 1 0 0-6 3 3 0 0 0 0 6z" fill="#1f77b4"/><path stroke-linejoin="round" fill="none" stroke="#1f77b4" d="M183.258 654.866a3 3 0 1 0 0-6 3 3 0 0 0 0 6z"/></g><clipPath id="bn"><path transform="matrix(1 0 0 -1 328.808 647.347)" d="M-8-8H8V8H-8z"/></clipPath><g clip-path="url(#bn)"><path d="M328.808 650.347a3 3 0 1 0 0-6 3 3 0 0 0 0 6z" fill="#1f77b4"/><path stroke-linejoin="round" fill="none" stroke="#1f77b4" d="M328.808 650.347a3 3 0 1 0 0-6 3 3 0 0 0 0 6z"/></g><clipPath id="bo"><path transform="matrix(1 0 0 -1 430.543 617.074)" d="M-8-8H8V8H-8z"/></clipPath><g clip-path="url(#bo)"><path d="M430.543 620.074a3 3 0 1 0 0-6 3 3 0 0 0 0 6z" fill="#1f77b4"/><path stroke-linejoin="round" fill="none" stroke="#1f77b4" d="M430.543 620.074a3 3 0 1 0 0-6 3 3 0 0 0 0 6z"/></g><clipPath id="bp"><path transform="matrix(1 0 0 -1 474.358 553.817)" d="M-8-8H8V8H-8z"/></clipPath><g clip-path="url(#bp)"><path d="M474.358 556.817a3 3 0 1 0 0-6 3 3 0 0 0 0 6z" fill="#1f77b4"/><path stroke-linejoin="round" fill="none" stroke="#1f77b4" d="M474.358 556.817a3 3 0 1 0 0-6 3 3 0 0 0 0 6z"/></g></g><clipPath id="bq"><path transform="matrix(1 0 0 -1 0 720)" d="M61.881 51.7H494v297.442H61.881z"/></clipPath><g clip-path="url(#bq)"><path stroke-width="1.5" stroke-linecap="square" stroke-linejoin="round" fill="none" stroke="#2ca02c" d="m81.523 654.769 101.735-2.339 145.55-3.84 101.735-28.127 43.815-75.683"/><clipPath id="br"><path transform="matrix(1 0 0 -1 81.523 654.769)" d="M-8-8H8V8H-8z"/></clipPath><g clip-path="url(#br)"><path d="M81.523 657.769a3 3 0 1 0 0-6 3 3 0 0 0 0 6z" fill="#2ca02c"/><path stroke-linejoin="round" fill="none" stroke="#2ca02c" d="M81.523 657.769a3 3 0 1 0 0-6 3 3 0 0 0 0 6z"/></g><clipPath id="bs"><path transform="matrix(1 0 0 -1 183.258 652.43)" d="M-8-8H8V8H-8z"/></clipPath><g clip-path="url(#bs)"><path d="M183.258 655.43a3 3 0 1 0 0-6 3 3 0 0 0 0 6z" fill="#2ca02c"/><path stroke-linejoin="round" fill="none" stroke="#2ca02c" d="M183.258 655.43a3 3 0 1 0 0-6 3 3 0 0 0 0 6z"/></g><clipPath id="bt"><path transform="matrix(1 0 0 -1 328.808 648.59)" d="M-8-8H8V8H-8z"/></clipPath><g clip-path="url(#bt)"><path d="M328.808 651.59a3 3 0 1 0 0-6 3 3 0 0 0 0 6z" fill="#2ca02c"/><path stroke-linejoin="round" fill="none" stroke="#2ca02c" d="M328.808 651.59a3 3 0 1 0 0-6 3 3 0 0 0 0 6z"/></g><clipPath id="bu"><path transform="matrix(1 0 0 -1 430.543 620.463)" d="M-8-8H8V8H-8z"/></clipPath><g clip-path="url(#bu)"><path d="M430.543 623.463a3 3 0 1 0 0-6 3 3 0 0 0 0 6z" fill="#2ca02c"/><path stroke-linejoin="round" fill="none" stroke="#2ca02c" d="M430.543 623.463a3 3 0 1 0 0-6 3 3 0 0 0 0 6z"/></g><clipPath id="bv"><path transform="matrix(1 0 0 -1 474.358 544.78)" d="M-8-8H8V8H-8z"/></clipPath><g clip-path="url(#bv)"><path d="M474.358 547.78a3 3 0 1 0 0-6 3 3 0 0 0 0 6z" fill="#2ca02c"/><path stroke-linejoin="round" fill="none" stroke="#2ca02c" d="M474.358 547.78a3 3 0 1 0 0-6 3 3 0 0 0 0 6z"/></g></g><clipPath id="bw"><path transform="matrix(1 0 0 -1 0 720)" d="M61.881 51.7H494v297.442H61.881z"/></clipPath><g clip-path="url(#bw)"><path stroke-width="1.5" stroke-linecap="square" stroke-linejoin="round" fill="none" stroke="#9467bd" d="m81.523 654.7 101.735-2.609 145.55-3.388 101.735-23.722 43.815-67.775"/><clipPath id="bx"><path transform="matrix(1 0 0 -1 81.523 654.7)" d="M-8-8H8V8H-8z"/></clipPath><g clip-path="url(#bx)"><path d="M81.523 657.7a3 3 0 1 0 0-6 3 3 0 0 0 0 6z" fill="#9467bd"/><path stroke-linejoin="round" fill="none" stroke="#9467bd" d="M81.523 657.7a3 3 0 1 0 0-6 3 3 0 0 0 0 6z"/></g><clipPath id="by"><path transform="matrix(1 0 0 -1 183.258 652.091)" d="M-8-8H8V8H-8z"/></clipPath><g clip-path="url(#by)"><path d="M183.258 655.091a3 3 0 1 0 0-6 3 3 0 0 0 0 6z" fill="#9467bd"/><path stroke-linejoin="round" fill="none" stroke="#9467bd" d="M183.258 655.091a3 3 0 1 0 0-6 3 3 0 0 0 0 6z"/></g><clipPath id="bz"><path transform="matrix(1 0 0 -1 328.808 648.703)" d="M-8-8H8V8H-8z"/></clipPath><g clip-path="url(#bz)"><path d="M328.808 651.703a3 3 0 1 0 0-6 3 3 0 0 0 0 6z" fill="#9467bd"/><path stroke-linejoin="round" fill="none" stroke="#9467bd" d="M328.808 651.703a3 3 0 1 0 0-6 3 3 0 0 0 0 6z"/></g><clipPath id="bA"><path transform="matrix(1 0 0 -1 430.543 624.981)" d="M-8-8H8V8H-8z"/></clipPath><g clip-path="url(#bA)"><path d="M430.543 627.981a3 3 0 1 0 0-6 3 3 0 0 0 0 6z" fill="#9467bd"/><path stroke-linejoin="round" fill="none" stroke="#9467bd" d="M430.543 627.981a3 3 0 1 0 0-6 3 3 0 0 0 0 6z"/></g><clipPath id="bB"><path transform="matrix(1 0 0 -1 474.358 557.206)" d="M-8-8H8V8H-8z"/></clipPath><g clip-path="url(#bB)"><path d="M474.358 560.206a3 3 0 1 0 0-6 3 3 0 0 0 0 6z" fill="#9467bd"/><path stroke-linejoin="round" fill="none" stroke="#9467bd" d="M474.358 560.206a3 3 0 1 0 0-6 3 3 0 0 0 0 6z"/></g></g><clipPath id="bC"><path transform="matrix(1 0 0 -1 0 720)" d="M61.881 51.7H494v297.442H61.881z"/></clipPath><g clip-path="url(#bC)"><path stroke-width="1.5" stroke-linecap="square" stroke-linejoin="round" fill="none" stroke="#e377c2" d="m81.523 654.757 101.735-3.004 145.55-3.841 101.735-35.356 43.815-140.07"/><clipPath id="bD"><path transform="matrix(1 0 0 -1 81.523 654.757)" d="M-8-8H8V8H-8z"/></clipPath><g clip-path="url(#bD)"><path d="M81.523 657.757a3 3 0 1 0 0-6 3 3 0 0 0 0 6z" fill="#e377c2"/><path stroke-linejoin="round" fill="none" stroke="#e377c2" d="M81.523 657.757a3 3 0 1 0 0-6 3 3 0 0 0 0 6z"/></g><clipPath id="bE"><path transform="matrix(1 0 0 -1 183.258 651.753)" d="M-8-8H8V8H-8z"/></clipPath><g clip-path="url(#bE)"><path d="M183.258 654.753a3 3 0 1 0 0-6 3 3 0 0 0 0 6z" fill="#e377c2"/><path stroke-linejoin="round" fill="none" stroke="#e377c2" d="M183.258 654.753a3 3 0 1 0 0-6 3 3 0 0 0 0 6z"/></g><clipPath id="bF"><path transform="matrix(1 0 0 -1 328.808 647.912)" d="M-8-8H8V8H-8z"/></clipPath><g clip-path="url(#bF)"><path d="M328.808 650.912a3 3 0 1 0 0-6 3 3 0 0 0 0 6z" fill="#e377c2"/><path stroke-linejoin="round" fill="none" stroke="#e377c2" d="M328.808 650.912a3 3 0 1 0 0-6 3 3 0 0 0 0 6z"/></g><clipPath id="bG"><path transform="matrix(1 0 0 -1 430.543 612.556)" d="M-8-8H8V8H-8z"/></clipPath><g clip-path="url(#bG)"><path d="M430.543 615.556a3 3 0 1 0 0-6 3 3 0 0 0 0 6z" fill="#e377c2"/><path stroke-linejoin="round" fill="none" stroke="#e377c2" d="M430.543 615.556a3 3 0 1 0 0-6 3 3 0 0 0 0 6z"/></g><clipPath id="bH"><path transform="matrix(1 0 0 -1 474.358 472.486)" d="M-8-8H8V8H-8z"/></clipPath><g clip-path="url(#bH)"><path d="M474.358 475.486a3 3 0 1 0 0-6 3 3 0 0 0 0 6z" fill="#e377c2"/><path stroke-linejoin="round" fill="none" stroke="#e377c2" d="M474.358 475.486a3 3 0 1 0 0-6 3 3 0 0 0 0 6z"/></g></g><clipPath id="bI"><path transform="matrix(1 0 0 -1 0 720)" d="M61.881 51.7H494v297.442H61.881z"/></clipPath><g clip-path="url(#bI)"><path stroke-width="1.5" stroke-linecap="square" stroke-linejoin="round" fill="none" stroke="#bcbd22" d="m81.523 654.678 101.735-3.151 145.55-4.293 101.735-40.326 43.815-160.402"/><clipPath id="bJ"><path transform="matrix(1 0 0 -1 81.523 654.678)" d="M-8-8H8V8H-8z"/></clipPath><g clip-path="url(#bJ)"><path d="M81.523 657.678a3 3 0 1 0 0-6 3 3 0 0 0 0 6z" fill="#bcbd22"/><path stroke-linejoin="round" fill="none" stroke="#bcbd22" d="M81.523 657.678a3 3 0 1 0 0-6 3 3 0 0 0 0 6z"/></g><clipPath id="bK"><path transform="matrix(1 0 0 -1 183.258 651.527)" d="M-8-8H8V8H-8z"/></clipPath><g clip-path="url(#bK)"><path d="M183.258 654.527a3 3 0 1 0 0-6 3 3 0 0 0 0 6z" fill="#bcbd22"/><path stroke-linejoin="round" fill="none" stroke="#bcbd22" d="M183.258 654.527a3 3 0 1 0 0-6 3 3 0 0 0 0 6z"/></g><clipPath id="bL"><path transform="matrix(1 0 0 -1 328.808 647.234)" d="M-8-8H8V8H-8z"/></clipPath><g clip-path="url(#bL)"><path d="M328.808 650.234a3 3 0 1 0 0-6 3 3 0 0 0 0 6z" fill="#bcbd22"/><path stroke-linejoin="round" fill="none" stroke="#bcbd22" d="M328.808 650.234a3 3 0 1 0 0-6 3 3 0 0 0 0 6z"/></g><clipPath id="bM"><path transform="matrix(1 0 0 -1 430.543 606.908)" d="M-8-8H8V8H-8z"/></clipPath><g clip-path="url(#bM)"><path d="M430.543 609.908a3 3 0 1 0 0-6 3 3 0 0 0 0 6z" fill="#bcbd22"/><path stroke-linejoin="round" fill="none" stroke="#bcbd22" d="M430.543 609.908a3 3 0 1 0 0-6 3 3 0 0 0 0 6z"/></g><clipPath id="bN"><path transform="matrix(1 0 0 -1 474.358 446.505)" d="M-8-8H8V8H-8z"/></clipPath><g clip-path="url(#bN)"><path d="M474.358 449.505a3 3 0 1 0 0-6 3 3 0 0 0 0 6z" fill="#bcbd22"/><path stroke-linejoin="round" fill="none" stroke="#bcbd22" d="M474.358 449.505a3 3 0 1 0 0-6 3 3 0 0 0 0 6z"/></g></g><clipPath id="bO"><path transform="matrix(1 0 0 -1 0 720)" d="M61.881 51.7H494v297.442H61.881z"/></clipPath><g clip-path="url(#bO)"><path stroke-width="1.5" stroke-linecap="square" stroke-linejoin="round" fill="none" stroke="#17becf" d="m81.523 654.622 101.735-3.547 145.55-5.422 101.735-43.264 43.815-218.011"/><clipPath id="bP"><path transform="matrix(1 0 0 -1 81.523 654.622)" d="M-8-8H8V8H-8z"/></clipPath><g clip-path="url(#bP)"><path d="M81.523 657.622a3 3 0 1 0 0-6 3 3 0 0 0 0 6z" fill="#17becf"/><path stroke-linejoin="round" fill="none" stroke="#17becf" d="M81.523 657.622a3 3 0 1 0 0-6 3 3 0 0 0 0 6z"/></g><clipPath id="bQ"><path transform="matrix(1 0 0 -1 183.258 651.075)" d="M-8-8H8V8H-8z"/></clipPath><g clip-path="url(#bQ)"><path d="M183.258 654.075a3 3 0 1 0 0-6 3 3 0 0 0 0 6z" fill="#17becf"/><path stroke-linejoin="round" fill="none" stroke="#17becf" d="M183.258 654.075a3 3 0 1 0 0-6 3 3 0 0 0 0 6z"/></g><clipPath id="bR"><path transform="matrix(1 0 0 -1 328.808 645.653)" d="M-8-8H8V8H-8z"/></clipPath><g clip-path="url(#bR)"><path d="M328.808 648.653a3 3 0 1 0 0-6 3 3 0 0 0 0 6z" fill="#17becf"/><path stroke-linejoin="round" fill="none" stroke="#17becf" d="M328.808 648.653a3 3 0 1 0 0-6 3 3 0 0 0 0 6z"/></g><clipPath id="bS"><path transform="matrix(1 0 0 -1 430.543 602.39)" d="M-8-8H8V8H-8z"/></clipPath><g clip-path="url(#bS)"><path d="M430.543 605.39a3 3 0 1 0 0-6 3 3 0 0 0 0 6z" fill="#17becf"/><path stroke-linejoin="round" fill="none" stroke="#17becf" d="M430.543 605.39a3 3 0 1 0 0-6 3 3 0 0 0 0 6z"/></g><clipPath id="bT"><path transform="matrix(1 0 0 -1 474.358 384.378)" d="M-8-8H8V8H-8z"/></clipPath><g clip-path="url(#bT)"><path d="M474.358 387.378a3 3 0 1 0 0-6 3 3 0 0 0 0 6z" fill="#17becf"/><path stroke-linejoin="round" fill="none" stroke="#17becf" d="M474.358 387.378a3 3 0 1 0 0-6 3 3 0 0 0 0 6z"/></g></g><path stroke-width=".8" stroke-linecap="square" stroke-miterlimit="10" fill="none" stroke="#000" d="M61.881 668.3V370.858M494 668.3V370.858M61.881 668.3H494M61.881 370.858H494"/><path d="M67.712 449.012h55.797c1.11 0 1.666-.556 1.666-1.666v-70.657c0-1.11-.555-1.666-1.666-1.666H67.712c-1.11 0-1.666.555-1.666 1.666v70.657c0 1.11.556 1.666 1.666 1.666z" fill="#fff" fill-opacity=".8"/><path stroke-miterlimit="10" fill="none" stroke="#d5d6d5" stroke-opacity=".8" d="M67.712 449.012h55.797c1.11 0 1.666-.556 1.666-1.666v-70.657c0-1.11-.555-1.666-1.666-1.666H67.712c-1.11 0-1.666.555-1.666 1.666v70.657c0 1.11.556 1.666 1.666 1.666z"/><path stroke-width="1.5" stroke-linecap="square" stroke-linejoin="round" fill="none" stroke="#1f77b4" d="M69.378 381.517h16.66"/><path d="M77.708 384.517a3 3 0 1 0 0-6 3 3 0 0 0 0 6z" fill="#1f77b4"/><path stroke-linejoin="round" fill="none" stroke="#1f77b4" d="M77.708 384.517a3 3 0 1 0 0-6 3 3 0 0 0 0 6z"/><use xlink:href="#i" transform="matrix(8.33 0 0 -8.33 93.519 384.433)"/><use xlink:href="#ap" transform="matrix(8.33 0 0 -8.33 98.158 384.433)"/><use xlink:href="#f" transform="matrix(8.33 0 0 -8.33 103.423 384.433)"/><use xlink:href="#aq" transform="matrix(8.33 0 0 -8.33 110.52 384.541)"/><use xlink:href="#s" transform="matrix(8.33 0 0 -8.33 116.71 384.433)"/><path stroke-width="1.5" stroke-linecap="square" stroke-linejoin="round" fill="none" stroke="#2ca02c" d="M69.378 393.432h16.66"/><path d="M77.708 396.432a3 3 0 1 0 0-6 3 3 0 0 0 0 6z" fill="#2ca02c"/><path stroke-linejoin="round" fill="none" stroke="#2ca02c" d="M77.708 396.432a3 3 0 1 0 0-6 3 3 0 0 0 0 6z"/><use xlink:href="#k" transform="matrix(8.33 0 0 -8.33 93.519 396.348)"/><use xlink:href="#ar" transform="matrix(8.33 0 0 -8.33 99.874 396.348)"/><use xlink:href="#l" transform="matrix(8.33 0 0 -8.33 103.04 396.456)"/><use xlink:href="#v" transform="matrix(8.33 0 0 -8.33 108.43 396.348)"/><use xlink:href="#u" transform="matrix(8.33 0 0 -8.33 110.72 396.348)"/><path stroke-width="1.5" stroke-linecap="square" stroke-linejoin="round" fill="none" stroke="#9467bd" d="M69.378 405.347h16.66"/><path d="M77.708 408.347a3 3 0 1 0 0-6 3 3 0 0 0 0 6z" fill="#9467bd"/><path stroke-linejoin="round" fill="none" stroke="#9467bd" d="M77.708 408.347a3 3 0 1 0 0-6 3 3 0 0 0 0 6z"/><use xlink:href="#g" transform="matrix(8.33 0 0 -8.33 93.519 408.263)"/><use xlink:href="#ar" transform="matrix(8.33 0 0 -8.33 99.175 408.263)"/><use xlink:href="#l" transform="matrix(8.33 0 0 -8.33 102.34 408.371)"/><use xlink:href="#v" transform="matrix(8.33 0 0 -8.33 107.73 408.263)"/><use xlink:href="#u" transform="matrix(8.33 0 0 -8.33 110.02 408.263)"/><path stroke-width="1.5" stroke-linecap="square" stroke-linejoin="round" fill="none" stroke="#e377c2" d="M69.378 417.262h16.66"/><path d="M77.708 420.262a3 3 0 1 0 0-6 3 3 0 0 0 0 6z" fill="#e377c2"/><path stroke-linejoin="round" fill="none" stroke="#e377c2" d="M77.708 420.262a3 3 0 1 0 0-6 3 3 0 0 0 0 6z"/><use xlink:href="#aq" transform="matrix(8.33 0 0 -8.33 93.427 420.286)"/><use xlink:href="#i" transform="matrix(8.33 0 0 -8.33 99.616 420.178)"/><use xlink:href="#as" transform="matrix(8.33 0 0 -8.33 104.256 420.178)"/><path stroke-width="1.5" stroke-linecap="square" stroke-linejoin="round" fill="none" stroke="#bcbd22" d="M69.378 429.177h16.66"/><path d="M77.708 432.177a3 3 0 1 0 0-6 3 3 0 0 0 0 6z" fill="#bcbd22"/><path stroke-linejoin="round" fill="none" stroke="#bcbd22" d="M77.708 432.177a3 3 0 1 0 0-6 3 3 0 0 0 0 6z"/><use xlink:href="#A" transform="matrix(8.33 0 0 -8.33 93.252 432.201)"/><use xlink:href="#at" transform="matrix(8.33 0 0 -8.33 98.75 433.817)"/><use xlink:href="#o" transform="matrix(8.33 0 0 -8.33 103.74 432.201)"/><use xlink:href="#au" transform="matrix(8.33 0 0 -8.33 109.187 432.093)"/><use xlink:href="#au" transform="matrix(8.33 0 0 -8.33 111.503 432.093)"/><path stroke-width="1.5" stroke-linecap="square" stroke-linejoin="round" fill="none" stroke="#17becf" d="M69.378 441.092h16.66"/><path d="M77.708 444.092a3 3 0 1 0 0-6 3 3 0 0 0 0 6z" fill="#17becf"/><path stroke-linejoin="round" fill="none" stroke="#17becf" d="M77.708 444.092a3 3 0 1 0 0-6 3 3 0 0 0 0 6z"/><use xlink:href="#av" transform="matrix(8.33 0 0 -8.33 93.519 444.008)"/><use xlink:href="#as" transform="matrix(8.33 0 0 -8.33 95.976 444.008)"/><use xlink:href="#i" transform="matrix(8.33 0 0 -8.33 100.999 444.008)"/><use xlink:href="#aw" transform="matrix(8.33 0 0 -8.33 104.992 444.116)"/><use xlink:href="#f" transform="matrix(8.33 0 0 -8.33 111.898 444.008)"/><path d="M555.881 668.3H988V370.858H555.881z" fill="#fff"/><path stroke-width=".8" stroke-linejoin="round" fill="none" stroke="#000" d="M575.523 668.3v3.5"/><use xlink:href="#a" transform="matrix(10 0 0 -10 569.792 682.894)"/><use xlink:href="#b" transform="matrix(10 0 0 -10 576.402 682.894)"/><path stroke-width=".8" stroke-linejoin="round" fill="none" stroke="#000" d="M677.258 668.3v3.5"/><use xlink:href="#c" transform="matrix(10 0 0 -10 668.717 682.894)"/><use xlink:href="#d" transform="matrix(10 0 0 -10 674.637 683.024)"/><use xlink:href="#b" transform="matrix(10 0 0 -10 681.317 682.894)"/><path stroke-width=".8" stroke-linejoin="round" fill="none" stroke="#000" d="M822.808 668.3v3.5"/><use xlink:href="#c" transform="matrix(10 0 0 -10 811.088 682.894)"/><use xlink:href="#d" transform="matrix(10 0 0 -10 817.008 683.024)"/><use xlink:href="#d" transform="matrix(10 0 0 -10 823.368 683.024)"/><use xlink:href="#b" transform="matrix(10 0 0 -10 830.048 682.894)"/><path stroke-width=".8" stroke-linejoin="round" fill="none" stroke="#000" d="M924.543 668.3v3.5"/><use xlink:href="#e" transform="matrix(10 0 0 -10 912.493 683.024)"/><use xlink:href="#d" transform="matrix(10 0 0 -10 918.743 683.024)"/><use xlink:href="#d" transform="matrix(10 0 0 -10 925.103 683.024)"/><use xlink:href="#b" transform="matrix(10 0 0 -10 931.783 682.894)"/><path stroke-width=".8" stroke-linejoin="round" fill="none" stroke="#000" d="M968.358 668.3v3.5"/><use xlink:href="#c" transform="matrix(10 0 0 -10 961.966 682.894)"/><use xlink:href="#f" transform="matrix(10 0 0 -10 968.206 682.894)"/><path stroke-width=".6" stroke-linejoin="round" fill="none" stroke="#000" d="M601.153 668.3v2M619.338 668.3v2M633.443 668.3v2M644.968 668.3v2M654.712 668.3v2M663.153 668.3v2M670.598 668.3v2M721.073 668.3v2M746.703 668.3v2M764.888 668.3v2M778.993 668.3v2M790.518 668.3v2M800.262 668.3v2M808.703 668.3v2M816.148 668.3v2M866.623 668.3v2M892.253 668.3v2M910.438 668.3v2M936.068 668.3v2M945.812 668.3v2M954.253 668.3v2M961.698 668.3v2"/><symbol id="bU"><path transform="translate(-.091) scale(.001)" d="M91 760h90V311l268 236h115L274 291 576 0H459L181 267V0H91v760z"/></symbol><use xlink:href="#A" transform="matrix(12 0 0 -12 730.076 698.253)"/><use xlink:href="#at" transform="matrix(12 0 0 -12 737.996 700.58)"/><use xlink:href="#l" transform="matrix(12 0 0 -12 745.244 698.253)"/><use xlink:href="#ar" transform="matrix(12 0 0 -12 752.972 698.097)"/><use xlink:href="#bU" transform="matrix(12 0 0 -12 757.904 698.097)"/><use xlink:href="#j" transform="matrix(12 0 0 -12 763.76 698.097)"/><use xlink:href="#k" transform="matrix(12 0 0 -12 768.752 698.097)"/><use xlink:href="#l" transform="matrix(12 0 0 -12 777.536 698.253)"/><use xlink:href="#m" transform="matrix(12 0 0 -12 784.496 698.097)"/><use xlink:href="#l" transform="matrix(12 0 0 -12 789.596 698.253)"/><use xlink:href="#n" transform="matrix(12 0 0 -12 796.88 698.253)"/><use xlink:href="#o" transform="matrix(12 0 0 -12 803.144 698.253)"/><use xlink:href="#m" transform="matrix(12 0 0 -12 810.188 698.097)"/><path stroke-width=".8" stroke-linejoin="round" fill="none" stroke="#000" d="M555.881 656.116h-3.5"/><use xlink:href="#d" transform="matrix(10 0 0 -10 543.182 660.042)"/><path stroke-width=".8" stroke-linejoin="round" fill="none" stroke="#000" d="M555.881 610.058h-3.5"/><use xlink:href="#a" transform="matrix(10 0 0 -10 536.892 613.855)"/><use xlink:href="#d" transform="matrix(10 0 0 -10 543.182 613.985)"/><path stroke-width=".8" stroke-linejoin="round" fill="none" stroke="#000" d="M555.881 564.001h-3.5"/><use xlink:href="#p" transform="matrix(10 0 0 -10 536.652 567.798)"/><use xlink:href="#d" transform="matrix(10 0 0 -10 543.182 567.928)"/><path stroke-width=".8" stroke-linejoin="round" fill="none" stroke="#000" d="M555.881 517.944h-3.5"/><use xlink:href="#q" transform="matrix(10 0 0 -10 536.862 521.87)"/><use xlink:href="#d" transform="matrix(10 0 0 -10 543.182 521.87)"/><path stroke-width=".8" stroke-linejoin="round" fill="none" stroke="#000" d="M555.881 471.887h-3.5"/><use xlink:href="#r" transform="matrix(10 0 0 -10 536.842 475.814)"/><use xlink:href="#d" transform="matrix(10 0 0 -10 543.182 475.814)"/><path stroke-width=".8" stroke-linejoin="round" fill="none" stroke="#000" d="M555.881 425.83h-3.5"/><use xlink:href="#c" transform="matrix(10 0 0 -10 530.903 429.626)"/><use xlink:href="#d" transform="matrix(10 0 0 -10 536.823 429.756)"/><use xlink:href="#d" transform="matrix(10 0 0 -10 543.183 429.756)"/><path stroke-width=".8" stroke-linejoin="round" fill="none" stroke="#000" d="M555.881 379.772h-3.5"/><use xlink:href="#c" transform="matrix(10 0 0 -10 530.903 383.57)"/><use xlink:href="#a" transform="matrix(10 0 0 -10 536.893 383.57)"/><use xlink:href="#d" transform="matrix(10 0 0 -10 543.183 383.7)"/><use xlink:href="#s" transform="matrix(0 -12 -12 0 523.303 591.418)"/><use xlink:href="#t" transform="matrix(0 -12 -12 0 523.46 583.766)"/><use xlink:href="#u" transform="scale(12) rotate(-90 45.808 2.2)"/><use xlink:href="#u" transform="matrix(0 -12 -12 0 523.303 568.478)"/><use xlink:href="#v" transform="matrix(0 -12 -12 0 523.303 560.834)"/><use xlink:href="#u" transform="matrix(0 -12 -12 0 523.303 557.534)"/><use xlink:href="#w" transform="matrix(0 -12 -12 0 525.787 550.358)"/><use xlink:href="#j" transform="matrix(0 -12 -12 0 523.303 543.398)"/><use xlink:href="#x" transform="scale(12) rotate(-90 44.288 .68)"/><use xlink:href="#v" transform="scale(12) rotate(-90 43.95 .34)"/><use xlink:href="#y" transform="matrix(0 -12 -12 0 523.303 528.181)"/><use xlink:href="#o" transform="matrix(0 -12 -12 0 523.46 516.925)"/><use xlink:href="#j" transform="matrix(0 -12 -12 0 523.303 510.205)"/><use xlink:href="#z" transform="matrix(0 -12 -12 0 524.875 505.357)"/><use xlink:href="#A" transform="matrix(0 -12 -12 0 523.46 500.917)"/><use xlink:href="#o" transform="matrix(0 -12 -12 0 523.46 493.43)"/><use xlink:href="#B" transform="matrix(0 -12 -12 0 523.46 486.05)"/><use xlink:href="#C" transform="matrix(0 -12 -12 0 523.46 479.45)"/><use xlink:href="#u" transform="matrix(0 -12 -12 0 523.303 471.673)"/><use xlink:href="#D" transform="matrix(0 -12 -12 0 523.46 464.497)"/><use xlink:href="#n" transform="matrix(0 -12 -12 0 523.46 456.89)"/><use xlink:href="#E" transform="matrix(0 -12 -12 0 524.875 450.325)"/><clipPath id="bV"><path transform="matrix(1 0 0 -1 0 720)" d="M555.881 51.7H988v297.442H555.881z"/></clipPath><g clip-path="url(#bV)"><path stroke-width="1.5" stroke-linecap="square" stroke-linejoin="round" fill="none" stroke="#1f77b4" d="m575.523 654.78 101.735-5.343 145.55-8.98 101.735-58.033 43.815-80.6"/><clipPath id="bW"><path transform="matrix(1 0 0 -1 575.523 654.78)" d="M-8-8H8V8H-8z"/></clipPath><g clip-path="url(#bW)"><path d="M575.523 657.78a3 3 0 1 0 0-6 3 3 0 0 0 0 6z" fill="#1f77b4"/><path stroke-linejoin="round" fill="none" stroke="#1f77b4" d="M575.523 657.78a3 3 0 1 0 0-6 3 3 0 0 0 0 6z"/></g><clipPath id="bX"><path transform="matrix(1 0 0 -1 677.258 649.437)" d="M-8-8H8V8H-8z"/></clipPath><g clip-path="url(#bX)"><path d="M677.258 652.437a3 3 0 1 0 0-6 3 3 0 0 0 0 6z" fill="#1f77b4"/><path stroke-linejoin="round" fill="none" stroke="#1f77b4" d="M677.258 652.437a3 3 0 1 0 0-6 3 3 0 0 0 0 6z"/></g><clipPath id="bY"><path transform="matrix(1 0 0 -1 822.808 640.456)" d="M-8-8H8V8H-8z"/></clipPath><g clip-path="url(#bY)"><path d="M822.808 643.456a3 3 0 1 0 0-6 3 3 0 0 0 0 6z" fill="#1f77b4"/><path stroke-linejoin="round" fill="none" stroke="#1f77b4" d="M822.808 643.456a3 3 0 1 0 0-6 3 3 0 0 0 0 6z"/></g><clipPath id="bZ"><path transform="matrix(1 0 0 -1 924.543 582.424)" d="M-8-8H8V8H-8z"/></clipPath><g clip-path="url(#bZ)"><path d="M924.543 585.424a3 3 0 1 0 0-6 3 3 0 0 0 0 6z" fill="#1f77b4"/><path stroke-linejoin="round" fill="none" stroke="#1f77b4" d="M924.543 585.424a3 3 0 1 0 0-6 3 3 0 0 0 0 6z"/></g><clipPath id="ca"><path transform="matrix(1 0 0 -1 968.358 501.824)" d="M-8-8H8V8H-8z"/></clipPath><g clip-path="url(#ca)"><path d="M968.358 504.824a3 3 0 1 0 0-6 3 3 0 0 0 0 6z" fill="#1f77b4"/><path stroke-linejoin="round" fill="none" stroke="#1f77b4" d="M968.358 504.824a3 3 0 1 0 0-6 3 3 0 0 0 0 6z"/></g></g><clipPath id="cb"><path transform="matrix(1 0 0 -1 0 720)" d="M555.881 51.7H988v297.442H555.881z"/></clipPath><g clip-path="url(#cb)"><path stroke-width="1.5" stroke-linecap="square" stroke-linejoin="round" fill="none" stroke="#2ca02c" d="m575.523 654.757 101.735-4.629 145.55-7.83 101.735-55.268 43.815-112.84"/><clipPath id="cc"><path transform="matrix(1 0 0 -1 575.523 654.757)" d="M-8-8H8V8H-8z"/></clipPath><g clip-path="url(#cc)"><path d="M575.523 657.757a3 3 0 1 0 0-6 3 3 0 0 0 0 6z" fill="#2ca02c"/><path stroke-linejoin="round" fill="none" stroke="#2ca02c" d="M575.523 657.757a3 3 0 1 0 0-6 3 3 0 0 0 0 6z"/></g><clipPath id="cd"><path transform="matrix(1 0 0 -1 677.258 650.128)" d="M-8-8H8V8H-8z"/></clipPath><g clip-path="url(#cd)"><path d="M677.258 653.128a3 3 0 1 0 0-6 3 3 0 0 0 0 6z" fill="#2ca02c"/><path stroke-linejoin="round" fill="none" stroke="#2ca02c" d="M677.258 653.128a3 3 0 1 0 0-6 3 3 0 0 0 0 6z"/></g><clipPath id="ce"><path transform="matrix(1 0 0 -1 822.808 642.298)" d="M-8-8H8V8H-8z"/></clipPath><g clip-path="url(#ce)"><path d="M822.808 645.298a3 3 0 1 0 0-6 3 3 0 0 0 0 6z" fill="#2ca02c"/><path stroke-linejoin="round" fill="none" stroke="#2ca02c" d="M822.808 645.298a3 3 0 1 0 0-6 3 3 0 0 0 0 6z"/></g><clipPath id="cf"><path transform="matrix(1 0 0 -1 924.543 587.03)" d="M-8-8H8V8H-8z"/></clipPath><g clip-path="url(#cf)"><path d="M924.543 590.03a3 3 0 1 0 0-6 3 3 0 0 0 0 6z" fill="#2ca02c"/><path stroke-linejoin="round" fill="none" stroke="#2ca02c" d="M924.543 590.03a3 3 0 1 0 0-6 3 3 0 0 0 0 6z"/></g><clipPath id="cg"><path transform="matrix(1 0 0 -1 968.358 474.19)" d="M-8-8H8V8H-8z"/></clipPath><g clip-path="url(#cg)"><path d="M968.358 477.19a3 3 0 1 0 0-6 3 3 0 0 0 0 6z" fill="#2ca02c"/><path stroke-linejoin="round" fill="none" stroke="#2ca02c" d="M968.358 477.19a3 3 0 1 0 0-6 3 3 0 0 0 0 6z"/></g></g><clipPath id="ch"><path transform="matrix(1 0 0 -1 0 720)" d="M555.881 51.7H988v297.442H555.881z"/></clipPath><g clip-path="url(#ch)"><path stroke-width="1.5" stroke-linecap="square" stroke-linejoin="round" fill="none" stroke="#9467bd" d="m575.523 654.619 101.735-5.642 145.55-6.448 101.735-43.985 43.815-89.812"/><clipPath id="ci"><path transform="matrix(1 0 0 -1 575.523 654.619)" d="M-8-8H8V8H-8z"/></clipPath><g clip-path="url(#ci)"><path d="M575.523 657.619a3 3 0 1 0 0-6 3 3 0 0 0 0 6z" fill="#9467bd"/><path stroke-linejoin="round" fill="none" stroke="#9467bd" d="M575.523 657.619a3 3 0 1 0 0-6 3 3 0 0 0 0 6z"/></g><clipPath id="cj"><path transform="matrix(1 0 0 -1 677.258 648.977)" d="M-8-8H8V8H-8z"/></clipPath><g clip-path="url(#cj)"><path d="M677.258 651.977a3 3 0 1 0 0-6 3 3 0 0 0 0 6z" fill="#9467bd"/><path stroke-linejoin="round" fill="none" stroke="#9467bd" d="M677.258 651.977a3 3 0 1 0 0-6 3 3 0 0 0 0 6z"/></g><clipPath id="ck"><path transform="matrix(1 0 0 -1 822.808 642.529)" d="M-8-8H8V8H-8z"/></clipPath><g clip-path="url(#ck)"><path d="M822.808 645.529a3 3 0 1 0 0-6 3 3 0 0 0 0 6z" fill="#9467bd"/><path stroke-linejoin="round" fill="none" stroke="#9467bd" d="M822.808 645.529a3 3 0 1 0 0-6 3 3 0 0 0 0 6z"/></g><clipPath id="cl"><path transform="matrix(1 0 0 -1 924.543 598.544)" d="M-8-8H8V8H-8z"/></clipPath><g clip-path="url(#cl)"><path d="M924.543 601.544a3 3 0 1 0 0-6 3 3 0 0 0 0 6z" fill="#9467bd"/><path stroke-linejoin="round" fill="none" stroke="#9467bd" d="M924.543 601.544a3 3 0 1 0 0-6 3 3 0 0 0 0 6z"/></g><clipPath id="cm"><path transform="matrix(1 0 0 -1 968.358 508.732)" d="M-8-8H8V8H-8z"/></clipPath><g clip-path="url(#cm)"><path d="M968.358 511.732a3 3 0 1 0 0-6 3 3 0 0 0 0 6z" fill="#9467bd"/><path stroke-linejoin="round" fill="none" stroke="#9467bd" d="M968.358 511.732a3 3 0 1 0 0-6 3 3 0 0 0 0 6z"/></g></g><clipPath id="cn"><path transform="matrix(1 0 0 -1 0 720)" d="M555.881 51.7H988v297.442H555.881z"/></clipPath><g clip-path="url(#cn)"><path stroke-width="1.5" stroke-linecap="square" stroke-linejoin="round" fill="none" stroke="#e377c2" d="m575.523 654.734 101.735-5.988 145.55-7.599 101.735-70.237 43.815-133.566"/><clipPath id="co"><path transform="matrix(1 0 0 -1 575.523 654.734)" d="M-8-8H8V8H-8z"/></clipPath><g clip-path="url(#co)"><path d="M575.523 657.734a3 3 0 1 0 0-6 3 3 0 0 0 0 6z" fill="#e377c2"/><path stroke-linejoin="round" fill="none" stroke="#e377c2" d="M575.523 657.734a3 3 0 1 0 0-6 3 3 0 0 0 0 6z"/></g><clipPath id="cp"><path transform="matrix(1 0 0 -1 677.258 648.746)" d="M-8-8H8V8H-8z"/></clipPath><g clip-path="url(#cp)"><path d="M677.258 651.746a3 3 0 1 0 0-6 3 3 0 0 0 0 6z" fill="#e377c2"/><path stroke-linejoin="round" fill="none" stroke="#e377c2" d="M677.258 651.746a3 3 0 1 0 0-6 3 3 0 0 0 0 6z"/></g><clipPath id="cq"><path transform="matrix(1 0 0 -1 822.808 641.147)" d="M-8-8H8V8H-8z"/></clipPath><g clip-path="url(#cq)"><path d="M822.808 644.147a3 3 0 1 0 0-6 3 3 0 0 0 0 6z" fill="#e377c2"/><path stroke-linejoin="round" fill="none" stroke="#e377c2" d="M822.808 644.147a3 3 0 1 0 0-6 3 3 0 0 0 0 6z"/></g><clipPath id="cr"><path transform="matrix(1 0 0 -1 924.543 570.91)" d="M-8-8H8V8H-8z"/></clipPath><g clip-path="url(#cr)"><path d="M924.543 573.91a3 3 0 1 0 0-6 3 3 0 0 0 0 6z" fill="#e377c2"/><path stroke-linejoin="round" fill="none" stroke="#e377c2" d="M924.543 573.91a3 3 0 1 0 0-6 3 3 0 0 0 0 6z"/></g><clipPath id="cs"><path transform="matrix(1 0 0 -1 968.358 437.344)" d="M-8-8H8V8H-8z"/></clipPath><g clip-path="url(#cs)"><path d="M968.358 440.344a3 3 0 1 0 0-6 3 3 0 0 0 0 6z" fill="#e377c2"/><path stroke-linejoin="round" fill="none" stroke="#e377c2" d="M968.358 440.344a3 3 0 1 0 0-6 3 3 0 0 0 0 6z"/></g></g><clipPath id="ct"><path transform="matrix(1 0 0 -1 0 720)" d="M555.881 51.7H988v297.442H555.881z"/></clipPath><g clip-path="url(#ct)"><path stroke-width="1.5" stroke-linecap="square" stroke-linejoin="round" fill="none" stroke="#bcbd22" d="m575.523 654.573 101.735-6.287 145.55-11.745 101.735-90.963 43.815-126.657"/><clipPath id="cu"><path transform="matrix(1 0 0 -1 575.523 654.573)" d="M-8-8H8V8H-8z"/></clipPath><g clip-path="url(#cu)"><path d="M575.523 657.573a3 3 0 1 0 0-6 3 3 0 0 0 0 6z" fill="#bcbd22"/><path stroke-linejoin="round" fill="none" stroke="#bcbd22" d="M575.523 657.573a3 3 0 1 0 0-6 3 3 0 0 0 0 6z"/></g><clipPath id="cv"><path transform="matrix(1 0 0 -1 677.258 648.286)" d="M-8-8H8V8H-8z"/></clipPath><g clip-path="url(#cv)"><path d="M677.258 651.286a3 3 0 1 0 0-6 3 3 0 0 0 0 6z" fill="#bcbd22"/><path stroke-linejoin="round" fill="none" stroke="#bcbd22" d="M677.258 651.286a3 3 0 1 0 0-6 3 3 0 0 0 0 6z"/></g><clipPath id="cw"><path transform="matrix(1 0 0 -1 822.808 636.541)" d="M-8-8H8V8H-8z"/></clipPath><g clip-path="url(#cw)"><path d="M822.808 639.541a3 3 0 1 0 0-6 3 3 0 0 0 0 6z" fill="#bcbd22"/><path stroke-linejoin="round" fill="none" stroke="#bcbd22" d="M822.808 639.541a3 3 0 1 0 0-6 3 3 0 0 0 0 6z"/></g><clipPath id="cx"><path transform="matrix(1 0 0 -1 924.543 545.578)" d="M-8-8H8V8H-8z"/></clipPath><g clip-path="url(#cx)"><path d="M924.543 548.578a3 3 0 1 0 0-6 3 3 0 0 0 0 6z" fill="#bcbd22"/><path stroke-linejoin="round" fill="none" stroke="#bcbd22" d="M924.543 548.578a3 3 0 1 0 0-6 3 3 0 0 0 0 6z"/></g><clipPath id="cy"><path transform="matrix(1 0 0 -1 968.358 418.92)" d="M-8-8H8V8H-8z"/></clipPath><g clip-path="url(#cy)"><path d="M968.358 421.92a3 3 0 1 0 0-6 3 3 0 0 0 0 6z" fill="#bcbd22"/><path stroke-linejoin="round" fill="none" stroke="#bcbd22" d="M968.358 421.92a3 3 0 1 0 0-6 3 3 0 0 0 0 6z"/></g></g><clipPath id="cz"><path transform="matrix(1 0 0 -1 0 720)" d="M555.881 51.7H988v297.442H555.881z"/></clipPath><g clip-path="url(#cz)"><path stroke-width="1.5" stroke-linecap="square" stroke-linejoin="round" fill="none" stroke="#17becf" d="m575.523 654.457 101.735-7.092 145.55-7.6 101.735-80.37 43.815-175.017"/><clipPath id="cA"><path transform="matrix(1 0 0 -1 575.523 654.457)" d="M-8-8H8V8H-8z"/></clipPath><g clip-path="url(#cA)"><path d="M575.523 657.457a3 3 0 1 0 0-6 3 3 0 0 0 0 6z" fill="#17becf"/><path stroke-linejoin="round" fill="none" stroke="#17becf" d="M575.523 657.457a3 3 0 1 0 0-6 3 3 0 0 0 0 6z"/></g><clipPath id="cB"><path transform="matrix(1 0 0 -1 677.258 647.365)" d="M-8-8H8V8H-8z"/></clipPath><g clip-path="url(#cB)"><path d="M677.258 650.365a3 3 0 1 0 0-6 3 3 0 0 0 0 6z" fill="#17becf"/><path stroke-linejoin="round" fill="none" stroke="#17becf" d="M677.258 650.365a3 3 0 1 0 0-6 3 3 0 0 0 0 6z"/></g><clipPath id="cC"><path transform="matrix(1 0 0 -1 822.808 639.765)" d="M-8-8H8V8H-8z"/></clipPath><g clip-path="url(#cC)"><path d="M822.808 642.765a3 3 0 1 0 0-6 3 3 0 0 0 0 6z" fill="#17becf"/><path stroke-linejoin="round" fill="none" stroke="#17becf" d="M822.808 642.765a3 3 0 1 0 0-6 3 3 0 0 0 0 6z"/></g><clipPath id="cD"><path transform="matrix(1 0 0 -1 924.543 559.395)" d="M-8-8H8V8H-8z"/></clipPath><g clip-path="url(#cD)"><path d="M924.543 562.395a3 3 0 1 0 0-6 3 3 0 0 0 0 6z" fill="#17becf"/><path stroke-linejoin="round" fill="none" stroke="#17becf" d="M924.543 562.395a3 3 0 1 0 0-6 3 3 0 0 0 0 6z"/></g><clipPath id="cE"><path transform="matrix(1 0 0 -1 968.358 384.378)" d="M-8-8H8V8H-8z"/></clipPath><g clip-path="url(#cE)"><path d="M968.358 387.378a3 3 0 1 0 0-6 3 3 0 0 0 0 6z" fill="#17becf"/><path stroke-linejoin="round" fill="none" stroke="#17becf" d="M968.358 387.378a3 3 0 1 0 0-6 3 3 0 0 0 0 6z"/></g></g><path stroke-width=".8" stroke-linecap="square" stroke-miterlimit="10" fill="none" stroke="#000" d="M555.881 668.3V370.858M988 668.3V370.858M555.881 668.3H988M555.881 370.858H988"/><path d="M561.712 449.012h55.797c1.11 0 1.666-.556 1.666-1.666v-70.657c0-1.11-.555-1.666-1.666-1.666h-55.797c-1.11 0-1.666.555-1.666 1.666v70.657c0 1.11.556 1.666 1.666 1.666z" fill="#fff" fill-opacity=".8"/><path stroke-miterlimit="10" fill="none" stroke="#d5d6d5" stroke-opacity=".8" d="M561.712 449.012h55.797c1.11 0 1.666-.556 1.666-1.666v-70.657c0-1.11-.555-1.666-1.666-1.666h-55.797c-1.11 0-1.666.555-1.666 1.666v70.657c0 1.11.556 1.666 1.666 1.666z"/><path stroke-width="1.5" stroke-linecap="square" stroke-linejoin="round" fill="none" stroke="#1f77b4" d="M563.378 381.517h16.66"/><path d="M571.708 384.517a3 3 0 1 0 0-6 3 3 0 0 0 0 6z" fill="#1f77b4"/><path stroke-linejoin="round" fill="none" stroke="#1f77b4" d="M571.708 384.517a3 3 0 1 0 0-6 3 3 0 0 0 0 6z"/><use xlink:href="#i" transform="matrix(8.33 0 0 -8.33 587.519 384.433)"/><use xlink:href="#ap" transform="matrix(8.33 0 0 -8.33 592.158 384.433)"/><use xlink:href="#f" transform="matrix(8.33 0 0 -8.33 597.423 384.433)"/><use xlink:href="#aq" transform="matrix(8.33 0 0 -8.33 604.52 384.541)"/><use xlink:href="#s" transform="matrix(8.33 0 0 -8.33 610.71 384.433)"/><path stroke-width="1.5" stroke-linecap="square" stroke-linejoin="round" fill="none" stroke="#2ca02c" d="M563.378 393.432h16.66"/><path d="M571.708 396.432a3 3 0 1 0 0-6 3 3 0 0 0 0 6z" fill="#2ca02c"/><path stroke-linejoin="round" fill="none" stroke="#2ca02c" d="M571.708 396.432a3 3 0 1 0 0-6 3 3 0 0 0 0 6z"/><use xlink:href="#k" transform="matrix(8.33 0 0 -8.33 587.519 396.348)"/><use xlink:href="#ar" transform="matrix(8.33 0 0 -8.33 593.874 396.348)"/><use xlink:href="#l" transform="matrix(8.33 0 0 -8.33 597.04 396.456)"/><use xlink:href="#v" transform="matrix(8.33 0 0 -8.33 602.43 396.348)"/><use xlink:href="#u" transform="matrix(8.33 0 0 -8.33 604.72 396.348)"/><path stroke-width="1.5" stroke-linecap="square" stroke-linejoin="round" fill="none" stroke="#9467bd" d="M563.378 405.347h16.66"/><path d="M571.708 408.347a3 3 0 1 0 0-6 3 3 0 0 0 0 6z" fill="#9467bd"/><path stroke-linejoin="round" fill="none" stroke="#9467bd" d="M571.708 408.347a3 3 0 1 0 0-6 3 3 0 0 0 0 6z"/><use xlink:href="#g" transform="matrix(8.33 0 0 -8.33 587.519 408.263)"/><use xlink:href="#ar" transform="matrix(8.33 0 0 -8.33 593.175 408.263)"/><use xlink:href="#l" transform="matrix(8.33 0 0 -8.33 596.34 408.371)"/><use xlink:href="#v" transform="matrix(8.33 0 0 -8.33 601.73 408.263)"/><use xlink:href="#u" transform="matrix(8.33 0 0 -8.33 604.02 408.263)"/><path stroke-width="1.5" stroke-linecap="square" stroke-linejoin="round" fill="none" stroke="#e377c2" d="M563.378 417.262h16.66"/><path d="M571.708 420.262a3 3 0 1 0 0-6 3 3 0 0 0 0 6z" fill="#e377c2"/><path stroke-linejoin="round" fill="none" stroke="#e377c2" d="M571.708 420.262a3 3 0 1 0 0-6 3 3 0 0 0 0 6z"/><use xlink:href="#aq" transform="matrix(8.33 0 0 -8.33 587.427 420.286)"/><use xlink:href="#i" transform="matrix(8.33 0 0 -8.33 593.616 420.178)"/><use xlink:href="#as" transform="matrix(8.33 0 0 -8.33 598.256 420.178)"/><path stroke-width="1.5" stroke-linecap="square" stroke-linejoin="round" fill="none" stroke="#bcbd22" d="M563.378 429.177h16.66"/><path d="M571.708 432.177a3 3 0 1 0 0-6 3 3 0 0 0 0 6z" fill="#bcbd22"/><path stroke-linejoin="round" fill="none" stroke="#bcbd22" d="M571.708 432.177a3 3 0 1 0 0-6 3 3 0 0 0 0 6z"/><use xlink:href="#A" transform="matrix(8.33 0 0 -8.33 587.252 432.201)"/><use xlink:href="#at" transform="matrix(8.33 0 0 -8.33 592.75 433.817)"/><use xlink:href="#o" transform="matrix(8.33 0 0 -8.33 597.74 432.201)"/><use xlink:href="#au" transform="matrix(8.33 0 0 -8.33 603.187 432.093)"/><use xlink:href="#au" transform="matrix(8.33 0 0 -8.33 605.503 432.093)"/><path stroke-width="1.5" stroke-linecap="square" stroke-linejoin="round" fill="none" stroke="#17becf" d="M563.378 441.092h16.66"/><path d="M571.708 444.092a3 3 0 1 0 0-6 3 3 0 0 0 0 6z" fill="#17becf"/><path stroke-linejoin="round" fill="none" stroke="#17becf" d="M571.708 444.092a3 3 0 1 0 0-6 3 3 0 0 0 0 6z"/><use xlink:href="#av" transform="matrix(8.33 0 0 -8.33 587.519 444.008)"/><use xlink:href="#as" transform="matrix(8.33 0 0 -8.33 589.976 444.008)"/><use xlink:href="#i" transform="matrix(8.33 0 0 -8.33 594.999 444.008)"/><use xlink:href="#aw" transform="matrix(8.33 0 0 -8.33 598.992 444.116)"/><use xlink:href="#f" transform="matrix(8.33 0 0 -8.33 605.898 444.008)"/></svg>