<svg xmlns="http://www.w3.org/2000/svg" xmlns:xlink="http://www.w3.org/1999/xlink" width="960" height="576" viewBox="0 0 720 432"><path d="M0 432h720V0H0z" fill="#fff"/><path d="M47.81 349.75H709.2V26.16H47.81z" fill="#fff"/><path stroke-width=".8" stroke-linejoin="round" fill="none" stroke="#000" d="M77.873 349.75v3.5"/><symbol id="a"><path transform="translate(-.098) scale(.001)" d="M98 729h99V430h358v299h99V0h-99v347H197V0H98v729z"/></symbol><symbol id="b"><path transform="translate(-.098) scale(.001)" d="M197 648V81h119c100 0 174 22 221 68 46 46 70 118 70 216s-24 169-70 215c-47 45-121 68-221 68H197zm-99 81h203c141 0 245-30 311-88 66-59 99-151 99-276 0-126-34-218-100-277S441 0 301 0H98v729z"/></symbol><symbol id="c"><path transform="translate(-.098) scale(.001)" d="M98 729h419v-83H197V431h289v-83H197V0H98v729z"/></symbol><symbol id="d"><path transform="matrix(.001 0 0 .001 -.066 .013)" d="M535 705v-96c-38 18-73 31-106 40-34 8-66 13-96 13-54 0-96-11-125-31-29-21-43-51-43-89 0-32 9-57 29-73 19-17 56-30 110-40l60-12c73-14 127-39 162-74 35-36 53-83 53-142 0-71-24-124-71-160-48-36-117-54-208-54-35 0-72 4-111 11S110 16 69 32v102c40-23 79-40 117-51 38-12 76-17 114-17 56 0 99 11 130 33 30 22 46 53 46 95 0 36-11 64-33 84s-58 35-108 45l-60 12c-74 14-127 37-160 69-33 31-49 74-49 130 0 64 22 115 68 152 45 37 108 56 188 56 34 0 68-3 104-9 35-6 71-16 109-28z"/></symbol><use xlink:href="#a" transform="scale(10 -10) rotate(45 49.494 -10.474)"/><use xlink:href="#b" transform="scale(10 -10) rotate(45 49.118 -9.566)"/><use xlink:href="#c" transform="scale(10 -10) rotate(45 48.733 -8.636)"/><use xlink:href="#d" transform="scale(10 -10) rotate(45 48.486 -7.995)"/><path stroke-width=".8" stroke-linejoin="round" fill="none" stroke="#000" d="M117.957 349.75v3.5"/><symbol id="e"><path transform="matrix(.001 0 0 .001 -.06 .013)" d="M343 275c-73 0-123-9-151-25-28-17-42-45-42-85 0-32 10-58 31-76 21-19 50-28 86-28 50 0 90 17 120 53 30 35 45 82 45 141v20h-89zm179 37V0h-90v83c-21-34-47-58-77-73s-68-23-112-23c-56 0-101 15-134 46s-49 73-49 126c0 61 20 107 62 139 41 31 102 47 184 47h126v9c0 41-14 73-41 96-27 22-65 34-114 34-32 0-62-4-92-12s-58-19-85-33v83c32 12 64 22 95 28s61 10 91 10c79 0 138-21 177-62s59-103 59-186z"/></symbol><symbol id="f"><path transform="matrix(.001 0 0 .001 -.055 .013)" d="M454 464v296h90V0h-90v82c-19-33-43-57-72-72s-63-23-103-23c-66 0-120 26-162 78S55 187 55 273s20 155 62 208c42 52 96 79 162 79 40 0 74-8 103-24s53-40 72-72zM148 273c0-66 13-118 40-156s64-56 112-56 85 18 113 56c27 38 41 90 41 156s-14 117-41 155c-28 38-65 57-113 57s-85-19-112-57-40-89-40-155z"/></symbol><symbol id="g"><path transform="matrix(.001 0 0 .001 -.055 .013)" d="M306 484c-48 0-86-19-114-57s-42-89-42-154c0-66 13-117 41-155s66-56 115-56c48 0 86 18 114 56s42 89 42 155c0 64-14 116-42 154s-66 57-114 57zm0 76c78 0 139-26 184-76 44-51 67-121 67-211s-23-160-67-210c-45-51-106-76-184-76-79 0-141 25-185 76-44 50-66 120-66 210s22 160 66 211c44 50 106 76 185 76z"/></symbol><symbol id="h"><path transform="matrix(.001 0 0 .001 -.091 .207)" d="M181 82v-289H91v754h90v-83c18 32 42 56 71 72s64 24 104 24c66 0 120-27 162-79 41-53 62-122 62-208s-21-156-62-208c-42-52-96-78-162-78-40 0-75 8-104 23s-53 39-71 72zm306 191c0 66-14 117-41 155-28 38-65 57-112 57-48 0-85-19-112-57-28-38-41-89-41-155s13-118 41-156c27-38 64-56 112-56 47 0 84 18 112 56 27 38 41 90 41 156z"/></symbol><use xlink:href="#a" transform="scale(10 -10) rotate(45 52.269 -6.524)"/><use xlink:href="#e" transform="scale(10 -10) rotate(45 51.928 -5.656)"/><use xlink:href="#f" transform="scale(10 -10) rotate(45 51.624 -4.922)"/><use xlink:href="#g" transform="scale(10 -10) rotate(45 51.306 -4.155)"/><use xlink:href="#g" transform="scale(10 -10) rotate(45 51 -3.416)"/><use xlink:href="#h" transform="scale(10 -10) rotate(45 50.91 -2.537)"/><path stroke-width=".8" stroke-linejoin="round" fill="none" stroke="#000" d="M158.042 349.75v3.5"/><symbol id="i"><path transform="translate(-.091) scale(.001)" d="M411 463c-10 6-21 10-33 13-12 2-25 4-39 4-51 0-90-17-117-50-28-33-41-80-41-142V0H91v547h90v-85c18 33 43 58 73 74s67 24 111 24c6 0 13-1 21-1 7-1 15-2 25-4v-92z"/></symbol><symbol id="j"><path transform="translate(-.091) scale(.001)" d="M91 760h90V311l268 236h115L274 291 576 0H459L181 267V0H91v760z"/></symbol><use xlink:href="#d" transform="scale(10 -10) rotate(45 53.638 -.948)"/><use xlink:href="#h" transform="scale(10 -10) rotate(45 53.542 -.054)"/><use xlink:href="#e" transform="scale(10 -10) rotate(45 53.006 .578)"/><use xlink:href="#i" transform="scale(10 -10) rotate(45 52.668 1.349)"/><use xlink:href="#j" transform="scale(10 -10) rotate(45 52.462 1.845)"/><path stroke-width=".8" stroke-linejoin="round" fill="none" stroke="#000" d="M198.126 349.75v3.5"/><symbol id="k"><path transform="translate(-.045) scale(.001)" d="M56 729h573v-75L168 83h472V0H45v75l461 571H56v83z"/></symbol><symbol id="l"><path transform="matrix(.001 0 0 .001 -.055 .013)" d="M562 296v-44H149c4-62 22-110 56-142 33-32 79-48 139-48 34 0 68 4 100 12s65 21 97 39V28c-32-14-65-25-99-31s-69-10-103-10c-88 0-157 25-208 75S55 181 55 268c0 89 24 160 72 213 48 52 114 79 196 79 74 0 132-24 175-71 42-48 64-112 64-193zm-90 26c-1 49-15 88-41 118-27 29-63 44-107 44-50 0-90-15-120-43s-48-68-52-119h320z"/></symbol><use xlink:href="#k" transform="scale(10 -10) rotate(45 57.31 1.929)"/><use xlink:href="#g" transform="scale(10 -10) rotate(45 56.979 2.774)"/><use xlink:href="#g" transform="scale(10 -10) rotate(45 56.673 3.513)"/><use xlink:href="#j" transform="scale(10 -10) rotate(45 56.333 4.288)"/><use xlink:href="#l" transform="scale(10 -10) rotate(45 56.094 4.909)"/><use xlink:href="#l" transform="scale(10 -10) rotate(45 55.787 5.651)"/><use xlink:href="#h" transform="scale(10 -10) rotate(45 55.696 6.534)"/><use xlink:href="#l" transform="scale(10 -10) rotate(45 55.162 7.16)"/><use xlink:href="#i" transform="scale(10 -10) rotate(45 54.82 7.94)"/><path stroke-width=".8" stroke-linejoin="round" fill="none" stroke="#000" d="M238.21 349.75v3.5"/><symbol id="m"><path transform="translate(-.098) scale(.001)" d="M197 348V81h158c53 0 92 11 118 33 25 22 38 55 38 101 0 45-13 78-38 100-26 22-65 33-118 33H197zm0 300V428h146c48 0 83 9 107 27s36 45 36 83c0 36-12 64-36 82s-59 28-107 28H197zm-99 81h252c75 0 133-16 174-47 40-32 61-76 61-133 0-45-11-81-32-107s-51-43-91-49c48-11 86-33 113-66 26-33 40-74 40-123 0-66-23-116-67-151C504 17 441 0 360 0H98v729z"/></symbol><symbol id="n"><path transform="matrix(.001 0 0 .001 -.056 .013)" d="M595 104v196H434v81h259V68c-38-28-80-48-126-61s-95-20-147-20c-114 0-204 33-268 99S56 245 56 364c0 118 32 211 96 278 64 66 154 100 268 100 47 0 92-6 135-18s83-29 119-51V568c-37 30-76 53-117 69s-84 24-129 24c-90 0-157-25-201-75-45-50-67-124-67-222 0-99 22-173 67-223 44-50 111-74 201-74 34 0 65 3 93 9s52 15 74 28z"/></symbol><symbol id="o"><path transform="translate(-.098) scale(.001)" d="M98 729h99V83h355V0H98v729z"/></symbol><use xlink:href="#m" transform="scale(10 -10) rotate(45 57.028 9.437)"/><use xlink:href="#n" transform="scale(10 -10) rotate(45 56.73 10.2)"/><use xlink:href="#o" transform="scale(10 -10) rotate(45 56.306 11.18)"/><path stroke-width=".8" stroke-linejoin="round" fill="none" stroke="#000" d="M278.294 349.75v3.5"/><symbol id="p"><path transform="translate(-.098) scale(.001)" d="M197 648V374h124c46 0 81 11 106 35s38 58 38 102-13 77-38 101-60 36-106 36H197zm-99 81h223c81 0 143-19 185-56s63-91 63-162c0-72-21-127-63-163-42-37-104-55-185-55H197V0H98v729z"/></symbol><symbol id="q"><path transform="matrix(.001 0 0 .001 -.056 .013)" d="M644 673V569c-34 30-69 53-107 69-38 15-77 23-119 23-84 0-148-26-192-77s-66-124-66-220 22-170 66-221 108-76 192-76c42 0 81 7 119 23 38 15 73 38 107 69V56c-35-24-72-41-110-52s-79-17-122-17C302-13 215 20 151 87S56 246 56 364c0 117 31 209 95 277 64 67 151 101 261 101 44 0 85-6 123-17 38-12 75-29 109-52z"/></symbol><use xlink:href="#a" transform="scale(10 -10) rotate(45 59.064 14.239)"/><use xlink:href="#p" transform="scale(10 -10) rotate(45 58.688 15.146)"/><use xlink:href="#q" transform="scale(10 -10) rotate(45 58.424 15.83)"/><path stroke-width=".8" stroke-linejoin="round" fill="none" stroke="#000" d="M318.379 349.75v3.5"/><symbol id="r"><path transform="translate(.002) scale(.001)" d="M-2 729h616v-83H355V0h-99v646H-2v83z"/></symbol><symbol id="s"><path transform="translate(-.091) scale(.001)" d="M549 330V0h-90v327c0 52-11 90-31 116s-50 39-90 39c-49 0-87-16-115-47s-42-73-42-126V0H91v760h90V462c21 32 46 57 76 73 29 16 63 25 101 25 62 0 110-20 142-59s49-96 49-171z"/></symbol><symbol id="t"><path transform="matrix(.001 0 0 .001 -.085 .013)" d="M85 216v331h90V219c0-52 10-90 30-116s50-39 91-39c48 0 87 15 115 46s42 73 42 127v310h90V0h-90v84c-22-34-48-58-76-74-29-15-62-23-100-23-63 0-111 19-143 58-33 38-49 95-49 171zm226 344z"/></symbol><symbol id="u"><path transform="translate(-.091) scale(.001)" d="M549 330V0h-90v327c0 52-11 90-31 116s-50 39-90 39c-49 0-87-16-115-47s-42-73-42-126V0H91v547h90v-85c21 32 46 57 76 73 29 16 63 25 101 25 62 0 110-20 142-59s49-96 49-171z"/></symbol><symbol id="v"><path transform="matrix(.001 0 0 .001 -.091 .013)" d="M487 273c0 66-14 117-41 155-28 38-65 57-112 57-48 0-85-19-112-57-28-38-41-89-41-155s13-118 41-156c27-38 64-56 112-56 47 0 84 18 112 56 27 38 41 90 41 156zM181 464c18 32 42 56 71 72s64 24 104 24c66 0 120-27 162-79 41-53 62-122 62-208s-21-156-62-208c-42-52-96-78-162-78-40 0-75 8-104 23s-53 39-71 72V0H91v760h90V464z"/></symbol><symbol id="w"><path transform="translate(-.094) scale(.001)" d="M94 547h90V0H94v547zm0 213h90V646H94v114z"/></symbol><use xlink:href="#r" transform="scale(10 -10) rotate(45 63.871 15.783)"/><use xlink:href="#s" transform="scale(10 -10) rotate(45 63.52 16.633)"/><use xlink:href="#t" transform="scale(10 -10) rotate(45 63.22 17.397)"/><use xlink:href="#u" transform="scale(10 -10) rotate(45 62.885 18.163)"/><use xlink:href="#f" transform="scale(10 -10) rotate(45 62.602 18.892)"/><use xlink:href="#l" transform="scale(10 -10) rotate(45 62.284 19.658)"/><use xlink:href="#i" transform="scale(10 -10) rotate(45 61.943 20.437)"/><use xlink:href="#v" transform="scale(10 -10) rotate(45 61.753 20.94)"/><use xlink:href="#w" transform="scale(10 -10) rotate(45 61.419 21.704)"/><use xlink:href="#i" transform="scale(10 -10) rotate(45 61.281 22.036)"/><use xlink:href="#f" transform="scale(10 -10) rotate(45 61.118 22.474)"/><path stroke-width=".8" stroke-linejoin="round" fill="none" stroke="#000" d="M358.463 349.75v3.5"/><symbol id="x"><path transform="translate(-.033) scale(.001)" d="M33 729h100l153-616 153 616h111l153-616 153 616h100L773 0H649L495 633 340 0H216L33 729z"/></symbol><symbol id="y"><path transform="translate(-.042) scale(.001)" d="M42 547h90l112-427 112 427h106l112-427 112 427h90L633 0H527L409 448 291 0H185L42 547z"/></symbol><symbol id="z"><path transform="matrix(.001 0 0 .001 -.054 .013)" d="M443 531v-85c-26 12-52 22-79 29-28 6-56 10-85 10-45 0-79-7-101-21s-33-34-33-61c0-21 8-37 24-49s48-24 96-34l31-7c64-14 109-34 136-58 26-25 40-60 40-104 0-51-20-91-60-120-40-30-96-44-166-44-30 0-60 3-92 8S89 8 54 20v93c33-18 66-31 98-39 32-9 64-13 96-13 42 0 75 7 98 21 22 14 34 35 34 62 0 24-9 43-25 56s-52 26-108 38l-31 7c-56 12-97 30-121 54-25 24-37 57-37 100 0 51 18 91 54 119s88 42 156 42c33 0 64-3 94-8 29-5 56-12 81-21z"/></symbol><use xlink:href="#x" transform="scale(10 -10) rotate(45 64.737 21.956)"/><use xlink:href="#w" transform="scale(10 -10) rotate(45 64.223 23.197)"/><use xlink:href="#u" transform="scale(10 -10) rotate(45 64.085 23.53)"/><use xlink:href="#f" transform="scale(10 -10) rotate(45 63.802 24.258)"/><use xlink:href="#g" transform="scale(10 -10) rotate(45 63.485 25.024)"/><use xlink:href="#y" transform="scale(10 -10) rotate(45 63.17 25.74)"/><use xlink:href="#z" transform="scale(10 -10) rotate(45 62.77 26.749)"/><path stroke-width=".8" stroke-linejoin="round" fill="none" stroke="#000" d="M398.547 349.75v3.5"/><symbol id="A"><path transform="translate(-.029) scale(.001)" d="M549 547 351 281 559 0H453L294 215 135 0H29l212 286L47 547h106l145-195 145 195h106z"/></symbol><use xlink:href="#o" transform="scale(10 -10) rotate(45 65.513 28.252)"/><use xlink:href="#w" transform="scale(10 -10) rotate(45 65.236 28.92)"/><use xlink:href="#u" transform="scale(10 -10) rotate(45 65.099 29.252)"/><use xlink:href="#t" transform="scale(10 -10) rotate(45 64.8 30.016)"/><use xlink:href="#A" transform="scale(10 -10) rotate(45 64.496 30.707)"/><path stroke-width=".8" stroke-linejoin="round" fill="none" stroke="#000" d="M438.631 349.75v3.5"/><symbol id="B"><path transform="translate(-.008) scale(.001)" d="M342 632 208 269h268L342 632zm-56 97h112L676 0H573l-66 187H178L112 0H8l278 729z"/></symbol><use xlink:href="#B" transform="scale(10 -10) rotate(45 68.369 32.052)"/><use xlink:href="#u" transform="scale(10 -10) rotate(45 67.985 32.978)"/><use xlink:href="#f" transform="scale(10 -10) rotate(45 67.702 33.706)"/><use xlink:href="#i" transform="scale(10 -10) rotate(45 67.35 34.51)"/><use xlink:href="#w" transform="scale(10 -10) rotate(45 67.144 35.01)"/><use xlink:href="#g" transform="scale(10 -10) rotate(45 67.04 35.304)"/><use xlink:href="#f" transform="scale(10 -10) rotate(45 66.734 36.043)"/><path stroke-width=".8" stroke-linejoin="round" fill="none" stroke="#000" d="M478.716 349.75v3.5"/><symbol id="C"><path transform="translate(-.094) scale(.001)" d="M94 760h90V0H94v760z"/></symbol><symbol id="D"><path transform="translate(-.027) scale(.001)" d="M183 702V547h185v-70H183V180c0-45 6-74 18-86 12-13 37-19 75-19h92V0h-92c-70 0-118 13-144 39s-39 73-39 141v297H27v70h66v155h90z"/></symbol><use xlink:href="#a" transform="scale(10 -10) rotate(45 71.24 35.947)"/><use xlink:href="#l" transform="scale(10 -10) rotate(45 70.902 36.81)"/><use xlink:href="#e" transform="scale(10 -10) rotate(45 70.592 37.558)"/><use xlink:href="#C" transform="scale(10 -10) rotate(45 70.253 38.332)"/><use xlink:href="#D" transform="scale(10 -10) rotate(45 70.147 38.587)"/><use xlink:href="#s" transform="scale(10 -10) rotate(45 69.919 39.137)"/><use xlink:href="#B" transform="scale(10 -10) rotate(45 69.644 39.802)"/><use xlink:href="#h" transform="scale(10 -10) rotate(45 69.51 40.832)"/><use xlink:href="#h" transform="scale(10 -10) rotate(45 69.192 41.598)"/><path stroke-width=".8" stroke-linejoin="round" fill="none" stroke="#000" d="M518.8 349.75v3.5"/><symbol id="E"><path transform="matrix(.001 0 0 .001 -.055 .013)" d="M488 526v-84c-26 14-51 24-77 31s-51 11-77 11c-58 0-104-19-136-56s-48-89-48-155c0-67 16-119 48-156s78-55 136-55c26 0 51 3 77 10s51 18 77 32V21C462 9 436 0 410-5c-27-5-56-8-86-8-82 0-148 25-196 77-49 51-73 121-73 209 0 89 24 159 73 210s116 77 202 77c28 0 55-3 81-9s52-14 77-25z"/></symbol><use xlink:href="#B" transform="scale(10 -10) rotate(45 72.27 41.852)"/><use xlink:href="#h" transform="scale(10 -10) rotate(45 72.137 42.882)"/><use xlink:href="#e" transform="scale(10 -10) rotate(45 71.6 43.514)"/><use xlink:href="#E" transform="scale(10 -10) rotate(45 71.297 44.248)"/><use xlink:href="#s" transform="scale(10 -10) rotate(45 70.988 44.948)"/><use xlink:href="#l" transform="scale(10 -10) rotate(45 70.705 45.677)"/><path stroke-width=".8" stroke-linejoin="round" fill="none" stroke="#000" d="M558.884 349.75v3.5"/><symbol id="F"><path transform="translate(-.023) scale(.001)" d="M371 760v-75h-86c-32 0-55-7-67-20-13-13-19-36-19-70v-48h148v-70H199V0h-90v477H23v70h86v38c0 60 14 105 42 133s73 42 135 42h85z"/></symbol><use xlink:href="#p" transform="scale(10 -10) rotate(45 74.473 46.519)"/><use xlink:href="#i" transform="scale(10 -10) rotate(45 74.183 47.218)"/><use xlink:href="#g" transform="scale(10 -10) rotate(45 74.022 47.65)"/><use xlink:href="#A" transform="scale(10 -10) rotate(45 73.729 48.315)"/><use xlink:href="#w" transform="scale(10 -10) rotate(45 73.4 49.109)"/><use xlink:href="#F" transform="scale(10 -10) rotate(45 73.297 49.358)"/><use xlink:href="#w" transform="scale(10 -10) rotate(45 73.085 49.869)"/><use xlink:href="#l" transform="scale(10 -10) rotate(45 72.981 50.164)"/><use xlink:href="#i" transform="scale(10 -10) rotate(45 72.64 50.943)"/><path stroke-width=".8" stroke-linejoin="round" fill="none" stroke="#000" d="M598.968 349.75v3.5"/><symbol id="G"><path transform="matrix(.001 0 0 .001 -.056 .013)" d="M394 662c-72 0-129-27-171-80-42-54-63-126-63-218s21-165 63-218c42-54 99-80 171-80 71 0 128 26 170 80 42 53 63 126 63 218s-21 164-63 218c-42 53-99 80-170 80zm0 80c102 0 183-35 245-103 61-68 92-160 92-275 0-116-31-207-92-275C577 21 496-13 394-13 291-13 209 21 148 89c-62 68-92 159-92 275 0 115 30 207 92 275 61 68 143 103 246 103z"/></symbol><use xlink:href="#G" transform="scale(10 -10) rotate(45 76.92 50.844)"/><use xlink:href="#h" transform="scale(10 -10) rotate(45 76.744 51.933)"/><use xlink:href="#l" transform="scale(10 -10) rotate(45 76.21 52.56)"/><use xlink:href="#u" transform="scale(10 -10) rotate(45 75.87 53.339)"/><use xlink:href="#d" transform="scale(10 -10) rotate(45 75.58 54.08)"/><use xlink:href="#d" transform="scale(10 -10) rotate(45 75.263 54.847)"/><use xlink:href="#a" transform="scale(10 -10) rotate(45 74.914 55.645)"/><path stroke-width=".8" stroke-linejoin="round" fill="none" stroke="#000" d="M639.053 349.75v3.5"/><use xlink:href="#G" transform="scale(10 -10) rotate(45 79.432 55.099)"/><use xlink:href="#h" transform="scale(10 -10) rotate(45 79.255 56.188)"/><use xlink:href="#l" transform="scale(10 -10) rotate(45 78.721 56.814)"/><use xlink:href="#u" transform="scale(10 -10) rotate(45 78.38 57.593)"/><use xlink:href="#d" transform="scale(10 -10) rotate(45 78.091 58.335)"/><use xlink:href="#D" transform="scale(10 -10) rotate(45 77.777 59.048)"/><use xlink:href="#e" transform="scale(10 -10) rotate(45 77.58 59.567)"/><use xlink:href="#E" transform="scale(10 -10) rotate(45 77.277 60.301)"/><use xlink:href="#j" transform="scale(10 -10) rotate(45 76.968 61.002)"/><path stroke-width=".8" stroke-linejoin="round" fill="none" stroke="#000" d="M679.137 349.75v3.5"/><symbol id="H"><path transform="translate(-.098) scale(.001)" d="M98 729h147l186-496 187 496h147V0h-96v640L481 140h-99L194 640V0H98v729z"/></symbol><use xlink:href="#H" transform="scale(10 -10) rotate(45 79.087 62.647)"/><use xlink:href="#e" transform="scale(10 -10) rotate(45 78.69 63.649)"/><use xlink:href="#E" transform="scale(10 -10) rotate(45 78.387 64.383)"/><use xlink:href="#b" transform="matrix(10 0 0 -10 357.29 418.46)"/><use xlink:href="#e" transform="matrix(10 0 0 -10 364.61 418.59)"/><use xlink:href="#D" transform="matrix(10 0 0 -10 370.41 418.46)"/><use xlink:href="#e" transform="matrix(10 0 0 -10 374.66 418.59)"/><use xlink:href="#z" transform="matrix(10 0 0 -10 380.73 418.59)"/><use xlink:href="#l" transform="matrix(10 0 0 -10 385.95 418.59)"/><use xlink:href="#D" transform="matrix(10 0 0 -10 391.82 418.46)"/><use xlink:href="#z" transform="matrix(10 0 0 -10 396.01 418.59)"/><path stroke-width=".8" stroke-linejoin="round" fill="none" stroke="#000" d="M47.81 302.573h-3.5"/><symbol id="I"><path transform="matrix(.001 0 0 .001 -.066 .013)" d="M318 664c-51 0-89-25-115-75s-38-125-38-225 12-175 38-225 64-75 115-75 89 25 115 75c25 50 38 125 38 225s-13 175-38 225c-26 50-64 75-115 75zm0 78c81 0 143-33 187-97 43-65 65-159 65-281 0-123-22-217-65-281-44-64-106-96-188-96S173 19 130 83 66 241 66 364c0 122 21 216 64 281 43 64 106 97 188 97z"/></symbol><symbol id="J"><path transform="translate(-.107) scale(.001)" d="M107 124h103V0H107v124z"/></symbol><symbol id="K"><path transform="translate(-.073) scale(.001)" d="M192 83h344V0H73v83c37 38 88 90 153 156 64 65 105 107 122 126 32 35 54 65 66 90 12 24 19 49 19 73 0 38-14 70-41 94s-62 37-106 37c-31 0-64-6-98-16-34-11-71-27-110-49v100c40 16 77 28 111 36s66 12 95 12c75 0 135-19 180-57s68-88 68-151c0-30-6-59-17-85-11-27-31-59-61-95-8-10-34-37-78-82S271 164 192 83z"/></symbol><use xlink:href="#I" transform="matrix(10 0 0 -10 25.564 306.5)"/><use xlink:href="#J" transform="matrix(10 0 0 -10 32.334 306.37)"/><use xlink:href="#K" transform="matrix(10 0 0 -10 35.174 306.37)"/><path stroke-width=".8" stroke-linejoin="round" fill="none" stroke="#000" d="M47.81 236.983h-3.5"/><symbol id="L"><path transform="translate(-.049) scale(.001)" d="M378 643 129 254h249v389zm-26 86h124V254h104v-82H476V0h-98v172H49v95l303 462z"/></symbol><use xlink:href="#I" transform="matrix(10 0 0 -10 25.564 240.91)"/><use xlink:href="#J" transform="matrix(10 0 0 -10 32.334 240.78)"/><use xlink:href="#L" transform="matrix(10 0 0 -10 34.934 240.78)"/><path stroke-width=".8" stroke-linejoin="round" fill="none" stroke="#000" d="M47.81 171.393h-3.5"/><symbol id="M"><path transform="matrix(.001 0 0 .001 -.07 .013)" d="M330 404c-44 0-79-16-105-46s-39-72-39-124c0-53 13-95 39-125s61-45 105-45 79 15 105 45 39 72 39 125c0 52-13 94-39 124s-61 46-105 46zm196 309v-90c-25 12-50 21-75 27-26 6-51 9-75 9-66 0-116-22-150-66s-54-111-58-199c19 28 43 50 72 65s61 23 96 23c73 0 131-23 173-67s64-105 64-181c0-75-23-135-67-180S403-13 330-13c-84 0-149 32-193 96-45 64-67 158-67 281 0 115 27 207 82 275 54 68 128 103 220 103 24 0 49-3 75-7 25-5 51-12 79-22z"/></symbol><use xlink:href="#I" transform="matrix(10 0 0 -10 25.564 175.32)"/><use xlink:href="#J" transform="matrix(10 0 0 -10 32.334 175.19)"/><use xlink:href="#M" transform="matrix(10 0 0 -10 35.144 175.32)"/><path stroke-width=".8" stroke-linejoin="round" fill="none" stroke="#000" d="M47.81 105.803h-3.5"/><symbol id="N"><path transform="matrix(.001 0 0 .001 -.068 .013)" d="M318 346c-47 0-84-13-111-38s-40-59-40-103 13-79 40-104 64-37 111-37c46 0 83 12 110 38 27 25 41 59 41 103s-14 78-40 103c-27 25-64 38-111 38zm-99 42c-42 10-75 30-99 59s-35 64-35 106c0 58 20 104 62 138 41 34 98 51 171 51 72 0 129-17 171-51 41-34 62-80 62-138 0-42-12-77-36-106s-56-49-98-59c47-11 84-33 111-65 26-32 40-72 40-118 0-71-22-125-65-162-44-38-106-56-186-56S175 5 132 43c-43 37-64 91-64 162 0 46 13 86 40 118 26 32 63 54 111 65zm-36 156c0-38 11-68 35-89s57-31 100-31c42 0 75 10 99 31s36 51 36 89-12 67-36 88-57 32-99 32c-43 0-76-11-100-32s-35-50-35-88z"/></symbol><use xlink:href="#I" transform="matrix(10 0 0 -10 25.564 109.73)"/><use xlink:href="#J" transform="matrix(10 0 0 -10 32.334 109.6)"/><use xlink:href="#N" transform="matrix(10 0 0 -10 35.124 109.73)"/><path stroke-width=".8" stroke-linejoin="round" fill="none" stroke="#000" d="M47.81 40.213h-3.5"/><symbol id="O"><path transform="translate(-.11) scale(.001)" d="M124 83h161v556l-175-35v90l174 35h99V83h161V0H124v83z"/></symbol><use xlink:href="#O" transform="matrix(10 0 0 -10 26.004 44.01)"/><use xlink:href="#J" transform="matrix(10 0 0 -10 32.334 44.01)"/><use xlink:href="#I" transform="matrix(10 0 0 -10 35.104 44.14)"/><symbol id="P"><path transform="translate(-.098) scale(.001)" d="M98 729h461v-83H197V430h347v-83H197V83h371V0H98v729z"/></symbol><symbol id="R"><path transform="translate(-.091) scale(.001)" d="M520 442c22 40 49 69 80 89 31 19 68 29 111 29 56 0 100-20 131-60s47-97 47-170V0h-90v327c0 52-10 91-28 117-19 25-47 38-85 38-47 0-84-16-111-47s-40-73-40-126V0h-90v327c0 52-10 91-28 117-19 25-48 38-86 38-46 0-83-16-110-47s-40-73-40-126V0H91v547h90v-85c20 33 45 58 74 74 28 16 62 24 102 24s73-10 101-30 48-50 62-88z"/></symbol><symbol id="S"><path transform="matrix(.001 0 0 .001 -.086 .131)" d="M310 759c-44-76-76-150-97-223-22-73-32-147-32-222 0-76 10-150 32-223 21-74 53-147 97-222h-78C183-54 146 20 122 94S86 241 86 314c0 72 12 145 36 219s60 149 110 226h78z"/></symbol><symbol id="T"><path transform="matrix(.001 0 0 .001 -.08 .131)" d="M80 759h78c48-77 85-152 109-226s37-147 37-219c0-73-13-146-37-220S206-54 158-131H80c43 75 75 148 97 222 21 73 32 147 32 223 0 75-11 149-32 222-22 73-54 147-97 223z"/></symbol><use xlink:href="#P" transform="matrix(0 -10 -10 0 18.826 230.967)"/><use xlink:href="#A" transform="matrix(0 -10 -10 0 18.826 225.337)"/><use xlink:href="#l" transform="matrix(0 -10 -10 0 18.956 219.454)"/><use xlink:href="#E" transform="matrix(0 -10 -10 0 18.956 213.304)"/><use xlink:href="#t" transform="matrix(0 -10 -10 0 18.956 207.504)"/><use xlink:href="#D" transform="matrix(0 -10 -10 0 18.826 201.744)"/><use xlink:href="#w" transform="matrix(0 -10 -10 0 18.826 197.154)"/><use xlink:href="#g" transform="matrix(0 -10 -10 0 18.956 194.764)"/><use xlink:href="#u" transform="matrix(0 -10 -10 0 18.826 188.284)"/><use xlink:href="#Q" transform="matrix(0 -10 -10 0 18.826 182.854)"/><use xlink:href="#D" transform="matrix(0 -10 -10 0 18.826 179.404)"/><use xlink:href="#w" transform="scale(10) rotate(-90 9.682 7.8)"/><use xlink:href="#R" transform="matrix(0 -10 -10 0 18.826 172.064)"/><use xlink:href="#l" transform="matrix(0 -10 -10 0 18.956 162.684)"/><use xlink:href="#S" transform="matrix(0 -10 -10 0 20.136 156.224)"/><use xlink:href="#z" transform="matrix(0 -10 -10 0 18.956 152.644)"/><use xlink:href="#T" transform="matrix(0 -10 -10 0 20.136 147.174)"/><clipPath id="U"><path transform="matrix(1 0 0 -1 0 432)" d="M47.81 82.25H709.2v323.59H47.81z"/></clipPath><g clip-path="url(#U)"><path stroke-width="1.5" stroke-linecap="square" stroke-linejoin="round" fill="none" stroke="#1f77b4" d="m77.873 225.177 40.084-52.8 40.085-27.548 40.084-26.236 40.084 89.859 40.084-59.688 40.085-39.682 40.084 35.42 40.084 63.95 40.084 66.574 40.085-59.687 40.084 30.827 40.084 85.267 40.084-25.58 40.085-85.267 40.084-81.988"/><clipPath id="V"><path transform="matrix(1 0 0 -1 77.873 225.177)" d="M-8-8H8V8H-8z"/></clipPath><g clip-path="url(#V)"><path d="M77.873 228.177a3 3 0 1 0 0-6 3 3 0 0 0 0 6z" fill="#1f77b4"/><path stroke-linejoin="round" fill="none" stroke="#1f77b4" d="M77.873 228.177a3 3 0 1 0 0-6 3 3 0 0 0 0 6z"/></g><clipPath id="W"><path transform="matrix(1 0 0 -1 117.957 172.377)" d="M-8-8H8V8H-8z"/></clipPath><g clip-path="url(#W)"><path d="M117.957 175.377a3 3 0 1 0 0-6 3 3 0 0 0 0 6z" fill="#1f77b4"/><path stroke-linejoin="round" fill="none" stroke="#1f77b4" d="M117.957 175.377a3 3 0 1 0 0-6 3 3 0 0 0 0 6z"/></g><clipPath id="X"><path transform="matrix(1 0 0 -1 158.042 144.83)" d="M-8-8H8V8H-8z"/></clipPath><g clip-path="url(#X)"><path d="M158.042 147.83a3 3 0 1 0 0-6.001 3 3 0 0 0 0 6z" fill="#1f77b4"/><path stroke-linejoin="round" fill="none" stroke="#1f77b4" d="M158.042 147.83a3 3 0 1 0 0-6.001 3 3 0 0 0 0 6z"/></g><clipPath id="Y"><path transform="matrix(1 0 0 -1 198.126 118.593)" d="M-8-8H8V8H-8z"/></clipPath><g clip-path="url(#Y)"><path d="M198.126 121.593a3 3 0 1 0 0-6 3 3 0 0 0 0 6z" fill="#1f77b4"/><path stroke-linejoin="round" fill="none" stroke="#1f77b4" d="M198.126 121.593a3 3 0 1 0 0-6 3 3 0 0 0 0 6z"/></g><clipPath id="Z"><path transform="matrix(1 0 0 -1 238.21 208.452)" d="M-8-8H8V8H-8z"/></clipPath><g clip-path="url(#Z)"><path d="M238.21 211.452a3 3 0 1 0 0-6 3 3 0 0 0 0 6z" fill="#1f77b4"/><path stroke-linejoin="round" fill="none" stroke="#1f77b4" d="M238.21 211.452a3 3 0 1 0 0-6 3 3 0 0 0 0 6z"/></g><clipPath id="aa"><path transform="matrix(1 0 0 -1 278.294 148.764)" d="M-8-8H8V8H-8z"/></clipPath><g clip-path="url(#aa)"><path d="M278.294 151.764a3 3 0 1 0 0-6 3 3 0 0 0 0 6z" fill="#1f77b4"/><path stroke-linejoin="round" fill="none" stroke="#1f77b4" d="M278.294 151.764a3 3 0 1 0 0-6 3 3 0 0 0 0 6z"/></g><clipPath id="ab"><path transform="matrix(1 0 0 -1 318.379 109.082)" d="M-8-8H8V8H-8z"/></clipPath><g clip-path="url(#ab)"><path d="M318.379 112.082a3 3 0 1 0 0-6 3 3 0 0 0 0 6z" fill="#1f77b4"/><path stroke-linejoin="round" fill="none" stroke="#1f77b4" d="M318.379 112.082a3 3 0 1 0 0-6 3 3 0 0 0 0 6z"/></g><clipPath id="ac"><path transform="matrix(1 0 0 -1 358.463 144.501)" d="M-8-8H8V8H-8z"/></clipPath><g clip-path="url(#ac)"><path d="M358.463 147.501a3 3 0 1 0 0-6 3 3 0 0 0 0 6z" fill="#1f77b4"/><path stroke-linejoin="round" fill="none" stroke="#1f77b4" d="M358.463 147.501a3 3 0 1 0 0-6 3 3 0 0 0 0 6z"/></g><clipPath id="ad"><path transform="matrix(1 0 0 -1 398.547 208.452)" d="M-8-8H8V8H-8z"/></clipPath><g clip-path="url(#ad)"><path d="M398.547 211.452a3 3 0 1 0 0-6 3 3 0 0 0 0 6z" fill="#1f77b4"/><path stroke-linejoin="round" fill="none" stroke="#1f77b4" d="M398.547 211.452a3 3 0 1 0 0-6 3 3 0 0 0 0 6z"/></g><clipPath id="ae"><path transform="matrix(1 0 0 -1 438.631 275.026)" d="M-8-8H8V8H-8z"/></clipPath><g clip-path="url(#ae)"><path d="M438.631 278.026a3 3 0 1 0 0-6 3 3 0 0 0 0 6z" fill="#1f77b4"/><path stroke-linejoin="round" fill="none" stroke="#1f77b4" d="M438.631 278.026a3 3 0 1 0 0-6 3 3 0 0 0 0 6z"/></g><clipPath id="af"><path transform="matrix(1 0 0 -1 478.716 215.339)" d="M-8-8H8V8H-8z"/></clipPath><g clip-path="url(#af)"><path d="M478.716 218.339a3 3 0 1 0 0-6 3 3 0 0 0 0 6z" fill="#1f77b4"/><path stroke-linejoin="round" fill="none" stroke="#1f77b4" d="M478.716 218.339a3 3 0 1 0 0-6 3 3 0 0 0 0 6z"/></g><clipPath id="ag"><path transform="matrix(1 0 0 -1 518.8 246.166)" d="M-8-8H8V8H-8z"/></clipPath><g clip-path="url(#ag)"><path d="M518.8 249.166a3 3 0 1 0 0-6 3 3 0 0 0 0 6z" fill="#1f77b4"/><path stroke-linejoin="round" fill="none" stroke="#1f77b4" d="M518.8 249.166a3 3 0 1 0 0-6 3 3 0 0 0 0 6z"/></g><clipPath id="ah"><path transform="matrix(1 0 0 -1 558.884 331.433)" d="M-8-8H8V8H-8z"/></clipPath><g clip-path="url(#ah)"><path d="M558.884 334.433a3 3 0 1 0 0-6 3 3 0 0 0 0 6z" fill="#1f77b4"/><path stroke-linejoin="round" fill="none" stroke="#1f77b4" d="M558.884 334.433a3 3 0 1 0 0-6 3 3 0 0 0 0 6z"/></g><clipPath id="ai"><path transform="matrix(1 0 0 -1 598.968 305.853)" d="M-8-8H8V8H-8z"/></clipPath><g clip-path="url(#ai)"><path d="M598.968 308.853a3 3 0 1 0 0-6 3 3 0 0 0 0 6z" fill="#1f77b4"/><path stroke-linejoin="round" fill="none" stroke="#1f77b4" d="M598.968 308.853a3 3 0 1 0 0-6 3 3 0 0 0 0 6z"/></g><clipPath id="aj"><path transform="matrix(1 0 0 -1 639.053 220.586)" d="M-8-8H8V8H-8z"/></clipPath><g clip-path="url(#aj)"><path d="M639.053 223.586a3 3 0 1 0 0-6 3 3 0 0 0 0 6z" fill="#1f77b4"/><path stroke-linejoin="round" fill="none" stroke="#1f77b4" d="M639.053 223.586a3 3 0 1 0 0-6 3 3 0 0 0 0 6z"/></g><clipPath id="ak"><path transform="matrix(1 0 0 -1 679.137 138.598)" d="M-8-8H8V8H-8z"/></clipPath><g clip-path="url(#ak)"><path d="M679.137 141.598a3 3 0 1 0 0-6 3 3 0 0 0 0 6z" fill="#1f77b4"/><path stroke-linejoin="round" fill="none" stroke="#1f77b4" d="M679.137 141.598a3 3 0 1 0 0-6 3 3 0 0 0 0 6z"/></g></g><clipPath id="al"><path transform="matrix(1 0 0 -1 0 432)" d="M47.81 82.25H709.2v323.59H47.81z"/></clipPath><g clip-path="url(#al)"><path stroke-width="1.5" stroke-linecap="square" stroke-linejoin="round" fill="none" stroke="#ff7f0e" d="m77.873 208.78 40.084-165.616 40.085 120.358 40.084-80.676 40.084 128.885 40.084-99.37 40.085-14.429 40.084 9.183 40.084 92.81 40.084 55.424 40.085-15.414 40.084 3.28 40.084 47.224 40.084 12.462 40.085-66.246 40.084-124.949"/><clipPath id="am"><path transform="matrix(1 0 0 -1 77.873 208.78)" d="M-8-8H8V8H-8z"/></clipPath><g clip-path="url(#am)"><path d="M77.873 211.78a3 3 0 1 0 0-6 3 3 0 0 0 0 6z" fill="#ff7f0e"/><path stroke-linejoin="round" fill="none" stroke="#ff7f0e" d="M77.873 211.78a3 3 0 1 0 0-6 3 3 0 0 0 0 6z"/></g><clipPath id="an"><path transform="matrix(1 0 0 -1 117.957 43.164)" d="M-8-8H8V8H-8z"/></clipPath><g clip-path="url(#an)"><path d="M117.957 46.164a3 3 0 1 0 0-6 3 3 0 0 0 0 6z" fill="#ff7f0e"/><path stroke-linejoin="round" fill="none" stroke="#ff7f0e" d="M117.957 46.164a3 3 0 1 0 0-6 3 3 0 0 0 0 6z"/></g><clipPath id="ao"><path transform="matrix(1 0 0 -1 158.042 163.522)" d="M-8-8H8V8H-8z"/></clipPath><g clip-path="url(#ao)"><path d="M158.042 166.522a3 3 0 1 0 0-6 3 3 0 0 0 0 6z" fill="#ff7f0e"/><path stroke-linejoin="round" fill="none" stroke="#ff7f0e" d="M158.042 166.522a3 3 0 1 0 0-6 3 3 0 0 0 0 6z"/></g><clipPath id="ap"><path transform="matrix(1 0 0 -1 198.126 82.846)" d="M-8-8H8V8H-8z"/></clipPath><g clip-path="url(#ap)"><path d="M198.126 85.846a3 3 0 1 0 0-6 3 3 0 0 0 0 6z" fill="#ff7f0e"/><path stroke-linejoin="round" fill="none" stroke="#ff7f0e" d="M198.126 85.846a3 3 0 1 0 0-6 3 3 0 0 0 0 6z"/></g><clipPath id="aq"><path transform="matrix(1 0 0 -1 238.21 211.731)" d="M-8-8H8V8H-8z"/></clipPath><g clip-path="url(#aq)"><path d="M238.21 214.731a3 3 0 1 0 0-6 3 3 0 0 0 0 6z" fill="#ff7f0e"/><path stroke-linejoin="round" fill="none" stroke="#ff7f0e" d="M238.21 214.731a3 3 0 1 0 0-6 3 3 0 0 0 0 6z"/></g><clipPath id="ar"><path transform="matrix(1 0 0 -1 278.294 112.362)" d="M-8-8H8V8H-8z"/></clipPath><g clip-path="url(#ar)"><path d="M278.294 115.362a3 3 0 1 0 0-6 3 3 0 0 0 0 6z" fill="#ff7f0e"/><path stroke-linejoin="round" fill="none" stroke="#ff7f0e" d="M278.294 115.362a3 3 0 1 0 0-6 3 3 0 0 0 0 6z"/></g><clipPath id="as"><path transform="matrix(1 0 0 -1 318.379 97.932)" d="M-8-8H8V8H-8z"/></clipPath><g clip-path="url(#as)"><path d="M318.379 100.932a3 3 0 1 0 0-6 3 3 0 0 0 0 6z" fill="#ff7f0e"/><path stroke-linejoin="round" fill="none" stroke="#ff7f0e" d="M318.379 100.932a3 3 0 1 0 0-6 3 3 0 0 0 0 6z"/></g><clipPath id="at"><path transform="matrix(1 0 0 -1 358.463 107.115)" d="M-8-8H8V8H-8z"/></clipPath><g clip-path="url(#at)"><path d="M358.463 110.115a3 3 0 1 0 0-6 3 3 0 0 0 0 6z" fill="#ff7f0e"/><path stroke-linejoin="round" fill="none" stroke="#ff7f0e" d="M358.463 110.115a3 3 0 1 0 0-6 3 3 0 0 0 0 6z"/></g><clipPath id="au"><path transform="matrix(1 0 0 -1 398.547 199.925)" d="M-8-8H8V8H-8z"/></clipPath><g clip-path="url(#au)"><path d="M398.547 202.925a3 3 0 1 0 0-6 3 3 0 0 0 0 6z" fill="#ff7f0e"/><path stroke-linejoin="round" fill="none" stroke="#ff7f0e" d="M398.547 202.925a3 3 0 1 0 0-6 3 3 0 0 0 0 6z"/></g><clipPath id="av"><path transform="matrix(1 0 0 -1 438.631 255.349)" d="M-8-8H8V8H-8z"/></clipPath><g clip-path="url(#av)"><path d="M438.631 258.349a3 3 0 1 0 0-6 3 3 0 0 0 0 6z" fill="#ff7f0e"/><path stroke-linejoin="round" fill="none" stroke="#ff7f0e" d="M438.631 258.349a3 3 0 1 0 0-6 3 3 0 0 0 0 6z"/></g><clipPath id="aw"><path transform="matrix(1 0 0 -1 478.716 239.935)" d="M-8-8H8V8H-8z"/></clipPath><g clip-path="url(#aw)"><path d="M478.716 242.935a3 3 0 1 0 0-6 3 3 0 0 0 0 6z" fill="#ff7f0e"/><path stroke-linejoin="round" fill="none" stroke="#ff7f0e" d="M478.716 242.935a3 3 0 1 0 0-6 3 3 0 0 0 0 6z"/></g><clipPath id="ax"><path transform="matrix(1 0 0 -1 518.8 243.214)" d="M-8-8H8V8H-8z"/></clipPath><g clip-path="url(#ax)"><path d="M518.8 246.214a3 3 0 1 0 0-6 3 3 0 0 0 0 6z" fill="#ff7f0e"/><path stroke-linejoin="round" fill="none" stroke="#ff7f0e" d="M518.8 246.214a3 3 0 1 0 0-6 3 3 0 0 0 0 6z"/></g><clipPath id="ay"><path transform="matrix(1 0 0 -1 558.884 290.44)" d="M-8-8H8V8H-8z"/></clipPath><g clip-path="url(#ay)"><path d="M558.884 293.44a3 3 0 1 0 0-6 3 3 0 0 0 0 6z" fill="#ff7f0e"/><path stroke-linejoin="round" fill="none" stroke="#ff7f0e" d="M558.884 293.44a3 3 0 1 0 0-6 3 3 0 0 0 0 6z"/></g><clipPath id="az"><path transform="matrix(1 0 0 -1 598.968 302.901)" d="M-8-8H8V8H-8z"/></clipPath><g clip-path="url(#az)"><path d="M598.968 305.901a3 3 0 1 0 0-6 3 3 0 0 0 0 6z" fill="#ff7f0e"/><path stroke-linejoin="round" fill="none" stroke="#ff7f0e" d="M598.968 305.901a3 3 0 1 0 0-6 3 3 0 0 0 0 6z"/></g><clipPath id="aA"><path transform="matrix(1 0 0 -1 639.053 236.655)" d="M-8-8H8V8H-8z"/></clipPath><g clip-path="url(#aA)"><path d="M639.053 239.655a3 3 0 1 0 0-6 3 3 0 0 0 0 6z" fill="#ff7f0e"/><path stroke-linejoin="round" fill="none" stroke="#ff7f0e" d="M639.053 239.655a3 3 0 1 0 0-6 3 3 0 0 0 0 6z"/></g><clipPath id="aB"><path transform="matrix(1 0 0 -1 679.137 111.706)" d="M-8-8H8V8H-8z"/></clipPath><g clip-path="url(#aB)"><path d="M679.137 114.706a3 3 0 1 0 0-6 3 3 0 0 0 0 6z" fill="#ff7f0e"/><path stroke-linejoin="round" fill="none" stroke="#ff7f0e" d="M679.137 114.706a3 3 0 1 0 0-6 3 3 0 0 0 0 6z"/></g></g><clipPath id="aC"><path transform="matrix(1 0 0 -1 0 432)" d="M47.81 82.25H709.2v323.59H47.81z"/></clipPath><g clip-path="url(#aC)"><path stroke-width="1.5" stroke-linecap="square" stroke-linejoin="round" fill="none" stroke="#2ca02c" d="M77.873 192.382 117.957 74.32l40.085 33.779 40.084 19.677 40.084 81.987 40.084-102.648 40.085 1.967 40.084 33.451 40.084 63.95 40.084 64.935 40.085-57.72 40.084 32.14 40.084 89.203 40.084-28.204 40.085-100.025 40.084-78.38"/><clipPath id="aD"><path transform="matrix(1 0 0 -1 77.873 192.382)" d="M-8-8H8V8H-8z"/></clipPath><g clip-path="url(#aD)"><path d="M77.873 195.382a3 3 0 1 0 0-6 3 3 0 0 0 0 6z" fill="#2ca02c"/><path stroke-linejoin="round" fill="none" stroke="#2ca02c" d="M77.873 195.382a3 3 0 1 0 0-6 3 3 0 0 0 0 6z"/></g><clipPath id="aE"><path transform="matrix(1 0 0 -1 117.957 74.32)" d="M-8-8H8V8H-8z"/></clipPath><g clip-path="url(#aE)"><path d="M117.957 77.32a3 3 0 1 0 0-6 3 3 0 0 0 0 6z" fill="#2ca02c"/><path stroke-linejoin="round" fill="none" stroke="#2ca02c" d="M117.957 77.32a3 3 0 1 0 0-6 3 3 0 0 0 0 6z"/></g><clipPath id="aF"><path transform="matrix(1 0 0 -1 158.042 108.099)" d="M-8-8H8V8H-8z"/></clipPath><g clip-path="url(#aF)"><path d="M158.042 111.099a3 3 0 1 0 0-6 3 3 0 0 0 0 6z" fill="#2ca02c"/><path stroke-linejoin="round" fill="none" stroke="#2ca02c" d="M158.042 111.099a3 3 0 1 0 0-6 3 3 0 0 0 0 6z"/></g><clipPath id="aG"><path transform="matrix(1 0 0 -1 198.126 127.776)" d="M-8-8H8V8H-8z"/></clipPath><g clip-path="url(#aG)"><path d="M198.126 130.776a3 3 0 1 0 0-6 3 3 0 0 0 0 6z" fill="#2ca02c"/><path stroke-linejoin="round" fill="none" stroke="#2ca02c" d="M198.126 130.776a3 3 0 1 0 0-6 3 3 0 0 0 0 6z"/></g><clipPath id="aH"><path transform="matrix(1 0 0 -1 238.21 209.763)" d="M-8-8H8V8H-8z"/></clipPath><g clip-path="url(#aH)"><path d="M238.21 212.763a3 3 0 1 0 0-6 3 3 0 0 0 0 6z" fill="#2ca02c"/><path stroke-linejoin="round" fill="none" stroke="#2ca02c" d="M238.21 212.763a3 3 0 1 0 0-6 3 3 0 0 0 0 6z"/></g><clipPath id="aI"><path transform="matrix(1 0 0 -1 278.294 107.115)" d="M-8-8H8V8H-8z"/></clipPath><g clip-path="url(#aI)"><path d="M278.294 110.115a3 3 0 1 0 0-6 3 3 0 0 0 0 6z" fill="#2ca02c"/><path stroke-linejoin="round" fill="none" stroke="#2ca02c" d="M278.294 110.115a3 3 0 1 0 0-6 3 3 0 0 0 0 6z"/></g><clipPath id="aJ"><path transform="matrix(1 0 0 -1 318.379 109.082)" d="M-8-8H8V8H-8z"/></clipPath><g clip-path="url(#aJ)"><path d="M318.379 112.082a3 3 0 1 0 0-6 3 3 0 0 0 0 6z" fill="#2ca02c"/><path stroke-linejoin="round" fill="none" stroke="#2ca02c" d="M318.379 112.082a3 3 0 1 0 0-6 3 3 0 0 0 0 6z"/></g><clipPath id="aK"><path transform="matrix(1 0 0 -1 358.463 142.533)" d="M-8-8H8V8H-8z"/></clipPath><g clip-path="url(#aK)"><path d="M358.463 145.533a3 3 0 1 0 0-6 3 3 0 0 0 0 6z" fill="#2ca02c"/><path stroke-linejoin="round" fill="none" stroke="#2ca02c" d="M358.463 145.533a3 3 0 1 0 0-6 3 3 0 0 0 0 6z"/></g><clipPath id="aL"><path transform="matrix(1 0 0 -1 398.547 206.484)" d="M-8-8H8V8H-8z"/></clipPath><g clip-path="url(#aL)"><path d="M398.547 209.484a3 3 0 1 0 0-6 3 3 0 0 0 0 6z" fill="#2ca02c"/><path stroke-linejoin="round" fill="none" stroke="#2ca02c" d="M398.547 209.484a3 3 0 1 0 0-6 3 3 0 0 0 0 6z"/></g><clipPath id="aM"><path transform="matrix(1 0 0 -1 438.631 271.418)" d="M-8-8H8V8H-8z"/></clipPath><g clip-path="url(#aM)"><path d="M438.631 274.418a3 3 0 1 0 0-6 3 3 0 0 0 0 6z" fill="#2ca02c"/><path stroke-linejoin="round" fill="none" stroke="#2ca02c" d="M438.631 274.418a3 3 0 1 0 0-6 3 3 0 0 0 0 6z"/></g><clipPath id="aN"><path transform="matrix(1 0 0 -1 478.716 213.699)" d="M-8-8H8V8H-8z"/></clipPath><g clip-path="url(#aN)"><path d="M478.716 216.699a3 3 0 1 0 0-6 3 3 0 0 0 0 6z" fill="#2ca02c"/><path stroke-linejoin="round" fill="none" stroke="#2ca02c" d="M478.716 216.699a3 3 0 1 0 0-6 3 3 0 0 0 0 6z"/></g><clipPath id="aO"><path transform="matrix(1 0 0 -1 518.8 245.838)" d="M-8-8H8V8H-8z"/></clipPath><g clip-path="url(#aO)"><path d="M518.8 248.838a3 3 0 1 0 0-6 3 3 0 0 0 0 6z" fill="#2ca02c"/><path stroke-linejoin="round" fill="none" stroke="#2ca02c" d="M518.8 248.838a3 3 0 1 0 0-6 3 3 0 0 0 0 6z"/></g><clipPath id="aP"><path transform="matrix(1 0 0 -1 558.884 335.04)" d="M-8-8H8V8H-8z"/></clipPath><g clip-path="url(#aP)"><path d="M558.884 338.04a3 3 0 1 0 0-6 3 3 0 0 0 0 6z" fill="#2ca02c"/><path stroke-linejoin="round" fill="none" stroke="#2ca02c" d="M558.884 338.04a3 3 0 1 0 0-6 3 3 0 0 0 0 6z"/></g><clipPath id="aQ"><path transform="matrix(1 0 0 -1 598.968 306.837)" d="M-8-8H8V8H-8z"/></clipPath><g clip-path="url(#aQ)"><path d="M598.968 309.837a3 3 0 1 0 0-6 3 3 0 0 0 0 6z" fill="#2ca02c"/><path stroke-linejoin="round" fill="none" stroke="#2ca02c" d="M598.968 309.837a3 3 0 1 0 0-6 3 3 0 0 0 0 6z"/></g><clipPath id="aR"><path transform="matrix(1 0 0 -1 639.053 206.812)" d="M-8-8H8V8H-8z"/></clipPath><g clip-path="url(#aR)"><path d="M639.053 209.812a3 3 0 1 0 0-6 3 3 0 0 0 0 6z" fill="#2ca02c"/><path stroke-linejoin="round" fill="none" stroke="#2ca02c" d="M639.053 209.812a3 3 0 1 0 0-6 3 3 0 0 0 0 6z"/></g><clipPath id="aS"><path transform="matrix(1 0 0 -1 679.137 128.432)" d="M-8-8H8V8H-8z"/></clipPath><g clip-path="url(#aS)"><path d="M679.137 131.432a3 3 0 1 0 0-6 3 3 0 0 0 0 6z" fill="#2ca02c"/><path stroke-linejoin="round" fill="none" stroke="#2ca02c" d="M679.137 131.432a3 3 0 1 0 0-6 3 3 0 0 0 0 6z"/></g></g><clipPath id="aT"><path transform="matrix(1 0 0 -1 0 432)" d="M47.81 82.25H709.2v323.59H47.81z"/></clipPath><g clip-path="url(#aT)"><path stroke-width="1.5" stroke-linecap="square" stroke-linejoin="round" fill="none" stroke="#d62728" d="m77.873 223.21 40.084-53.457 40.085-23.94 40.084-28.532 40.084 89.203 40.084-58.703 40.085-37.387 40.084 33.123 40.084 64.279 40.084 68.541 40.085-62.31L518.8 247.15l40.084 83.3 40.084-25.58 40.085-83.628 40.084-83.956"/><clipPath id="aU"><path transform="matrix(1 0 0 -1 77.873 223.21)" d="M-8-8H8V8H-8z"/></clipPath><g clip-path="url(#aU)"><path d="M77.873 226.21a3 3 0 1 0 0-6 3 3 0 0 0 0 6z" fill="#d62728"/><path stroke-linejoin="round" fill="none" stroke="#d62728" d="M77.873 226.21a3 3 0 1 0 0-6 3 3 0 0 0 0 6z"/></g><clipPath id="aV"><path transform="matrix(1 0 0 -1 117.957 169.753)" d="M-8-8H8V8H-8z"/></clipPath><g clip-path="url(#aV)"><path d="M117.957 172.753a3 3 0 1 0 0-6 3 3 0 0 0 0 6z" fill="#d62728"/><path stroke-linejoin="round" fill="none" stroke="#d62728" d="M117.957 172.753a3 3 0 1 0 0-6 3 3 0 0 0 0 6z"/></g><clipPath id="aW"><path transform="matrix(1 0 0 -1 158.042 145.813)" d="M-8-8H8V8H-8z"/></clipPath><g clip-path="url(#aW)"><path d="M158.042 148.813a3 3 0 1 0 0-6 3 3 0 0 0 0 6z" fill="#d62728"/><path stroke-linejoin="round" fill="none" stroke="#d62728" d="M158.042 148.813a3 3 0 1 0 0-6 3 3 0 0 0 0 6z"/></g><clipPath id="aX"><path transform="matrix(1 0 0 -1 198.126 117.281)" d="M-8-8H8V8H-8z"/></clipPath><g clip-path="url(#aX)"><path d="M198.126 120.281a3 3 0 1 0 0-6 3 3 0 0 0 0 6z" fill="#d62728"/><path stroke-linejoin="round" fill="none" stroke="#d62728" d="M198.126 120.281a3 3 0 1 0 0-6 3 3 0 0 0 0 6z"/></g><clipPath id="aY"><path transform="matrix(1 0 0 -1 238.21 206.484)" d="M-8-8H8V8H-8z"/></clipPath><g clip-path="url(#aY)"><path d="M238.21 209.484a3 3 0 1 0 0-6 3 3 0 0 0 0 6z" fill="#d62728"/><path stroke-linejoin="round" fill="none" stroke="#d62728" d="M238.21 209.484a3 3 0 1 0 0-6 3 3 0 0 0 0 6z"/></g><clipPath id="aZ"><path transform="matrix(1 0 0 -1 278.294 147.78)" d="M-8-8H8V8H-8z"/></clipPath><g clip-path="url(#aZ)"><path d="M278.294 150.78a3 3 0 1 0 0-6 3 3 0 0 0 0 6z" fill="#d62728"/><path stroke-linejoin="round" fill="none" stroke="#d62728" d="M278.294 150.78a3 3 0 1 0 0-6 3 3 0 0 0 0 6z"/></g><clipPath id="ba"><path transform="matrix(1 0 0 -1 318.379 110.394)" d="M-8-8H8V8H-8z"/></clipPath><g clip-path="url(#ba)"><path d="M318.379 113.394a3 3 0 1 0 0-6 3 3 0 0 0 0 6z" fill="#d62728"/><path stroke-linejoin="round" fill="none" stroke="#d62728" d="M318.379 113.394a3 3 0 1 0 0-6 3 3 0 0 0 0 6z"/></g><clipPath id="bb"><path transform="matrix(1 0 0 -1 358.463 143.517)" d="M-8-8H8V8H-8z"/></clipPath><g clip-path="url(#bb)"><path d="M358.463 146.517a3 3 0 1 0 0-6 3 3 0 0 0 0 6z" fill="#d62728"/><path stroke-linejoin="round" fill="none" stroke="#d62728" d="M358.463 146.517a3 3 0 1 0 0-6 3 3 0 0 0 0 6z"/></g><clipPath id="bc"><path transform="matrix(1 0 0 -1 398.547 207.796)" d="M-8-8H8V8H-8z"/></clipPath><g clip-path="url(#bc)"><path d="M398.547 210.796a3 3 0 1 0 0-6 3 3 0 0 0 0 6z" fill="#d62728"/><path stroke-linejoin="round" fill="none" stroke="#d62728" d="M398.547 210.796a3 3 0 1 0 0-6 3 3 0 0 0 0 6z"/></g><clipPath id="bd"><path transform="matrix(1 0 0 -1 438.631 276.337)" d="M-8-8H8V8H-8z"/></clipPath><g clip-path="url(#bd)"><path d="M438.631 279.337a3 3 0 1 0 0-6 3 3 0 0 0 0 6z" fill="#d62728"/><path stroke-linejoin="round" fill="none" stroke="#d62728" d="M438.631 279.337a3 3 0 1 0 0-6 3 3 0 0 0 0 6z"/></g><clipPath id="be"><path transform="matrix(1 0 0 -1 478.716 214.027)" d="M-8-8H8V8H-8z"/></clipPath><g clip-path="url(#be)"><path d="M478.716 217.027a3 3 0 1 0 0-6 3 3 0 0 0 0 6z" fill="#d62728"/><path stroke-linejoin="round" fill="none" stroke="#d62728" d="M478.716 217.027a3 3 0 1 0 0-6 3 3 0 0 0 0 6z"/></g><clipPath id="bf"><path transform="matrix(1 0 0 -1 518.8 247.15)" d="M-8-8H8V8H-8z"/></clipPath><g clip-path="url(#bf)"><path d="M518.8 250.15a3 3 0 1 0 0-6 3 3 0 0 0 0 6z" fill="#d62728"/><path stroke-linejoin="round" fill="none" stroke="#d62728" d="M518.8 250.15a3 3 0 1 0 0-6 3 3 0 0 0 0 6z"/></g><clipPath id="bg"><path transform="matrix(1 0 0 -1 558.884 330.45)" d="M-8-8H8V8H-8z"/></clipPath><g clip-path="url(#bg)"><path d="M558.884 333.45a3 3 0 1 0 0-6.001 3 3 0 0 0 0 6z" fill="#d62728"/><path stroke-linejoin="round" fill="none" stroke="#d62728" d="M558.884 333.45a3 3 0 1 0 0-6.001 3 3 0 0 0 0 6z"/></g><clipPath id="bh"><path transform="matrix(1 0 0 -1 598.968 304.87)" d="M-8-8H8V8H-8z"/></clipPath><g clip-path="url(#bh)"><path d="M598.968 307.87a3 3 0 1 0 0-6.001 3 3 0 0 0 0 6z" fill="#d62728"/><path stroke-linejoin="round" fill="none" stroke="#d62728" d="M598.968 307.87a3 3 0 1 0 0-6.001 3 3 0 0 0 0 6z"/></g><clipPath id="bi"><path transform="matrix(1 0 0 -1 639.053 221.242)" d="M-8-8H8V8H-8z"/></clipPath><g clip-path="url(#bi)"><path d="M639.053 224.242a3 3 0 1 0 0-6 3 3 0 0 0 0 6z" fill="#d62728"/><path stroke-linejoin="round" fill="none" stroke="#d62728" d="M639.053 224.242a3 3 0 1 0 0-6 3 3 0 0 0 0 6z"/></g><clipPath id="bj"><path transform="matrix(1 0 0 -1 679.137 137.286)" d="M-8-8H8V8H-8z"/></clipPath><g clip-path="url(#bj)"><path d="M679.137 140.286a3 3 0 1 0 0-6 3 3 0 0 0 0 6z" fill="#d62728"/><path stroke-linejoin="round" fill="none" stroke="#d62728" d="M679.137 140.286a3 3 0 1 0 0-6 3 3 0 0 0 0 6z"/></g></g><clipPath id="bk"><path transform="matrix(1 0 0 -1 0 432)" d="M47.81 82.25H709.2v323.59H47.81z"/></clipPath><g clip-path="url(#bk)"><path stroke-width="1.5" stroke-linecap="square" stroke-linejoin="round" fill="none" stroke="#9467bd" d="M77.873 210.747 117.957 40.87l40.085 121.997 40.084-78.052 40.084 125.605 40.084-97.073 40.085-14.43 40.084 9.51 40.084 90.515 40.084 57.391 40.085-48.208 40.084 36.074 40.084 46.897 40.084 12.462 40.085-65.918 40.084-124.621"/><clipPath id="bl"><path transform="matrix(1 0 0 -1 77.873 210.747)" d="M-8-8H8V8H-8z"/></clipPath><g clip-path="url(#bl)"><path d="M77.873 213.747a3 3 0 1 0 0-6 3 3 0 0 0 0 6z" fill="#9467bd"/><path stroke-linejoin="round" fill="none" stroke="#9467bd" d="M77.873 213.747a3 3 0 1 0 0-6 3 3 0 0 0 0 6z"/></g><clipPath id="bm"><path transform="matrix(1 0 0 -1 117.957 40.869)" d="M-8-8H8V8H-8z"/></clipPath><g clip-path="url(#bm)"><path d="M117.957 43.869a3 3 0 1 0 0-6 3 3 0 0 0 0 6z" fill="#9467bd"/><path stroke-linejoin="round" fill="none" stroke="#9467bd" d="M117.957 43.869a3 3 0 1 0 0-6 3 3 0 0 0 0 6z"/></g><clipPath id="bn"><path transform="matrix(1 0 0 -1 158.042 162.866)" d="M-8-8H8V8H-8z"/></clipPath><g clip-path="url(#bn)"><path d="M158.042 165.866a3 3 0 1 0 0-6 3 3 0 0 0 0 6z" fill="#9467bd"/><path stroke-linejoin="round" fill="none" stroke="#9467bd" d="M158.042 165.866a3 3 0 1 0 0-6 3 3 0 0 0 0 6z"/></g><clipPath id="bo"><path transform="matrix(1 0 0 -1 198.126 84.814)" d="M-8-8H8V8H-8z"/></clipPath><g clip-path="url(#bo)"><path d="M198.126 87.814a3 3 0 1 0 0-6 3 3 0 0 0 0 6z" fill="#9467bd"/><path stroke-linejoin="round" fill="none" stroke="#9467bd" d="M198.126 87.814a3 3 0 1 0 0-6 3 3 0 0 0 0 6z"/></g><clipPath id="bp"><path transform="matrix(1 0 0 -1 238.21 210.42)" d="M-8-8H8V8H-8z"/></clipPath><g clip-path="url(#bp)"><path d="M238.21 213.42a3 3 0 1 0 0-6.001 3 3 0 0 0 0 6z" fill="#9467bd"/><path stroke-linejoin="round" fill="none" stroke="#9467bd" d="M238.21 213.42a3 3 0 1 0 0-6.001 3 3 0 0 0 0 6z"/></g><clipPath id="bq"><path transform="matrix(1 0 0 -1 278.294 113.346)" d="M-8-8H8V8H-8z"/></clipPath><g clip-path="url(#bq)"><path d="M278.294 116.346a3 3 0 1 0 0-6 3 3 0 0 0 0 6z" fill="#9467bd"/><path stroke-linejoin="round" fill="none" stroke="#9467bd" d="M278.294 116.346a3 3 0 1 0 0-6 3 3 0 0 0 0 6z"/></g><clipPath id="br"><path transform="matrix(1 0 0 -1 318.379 98.916)" d="M-8-8H8V8H-8z"/></clipPath><g clip-path="url(#br)"><path d="M318.379 101.916a3 3 0 1 0 0-6 3 3 0 0 0 0 6z" fill="#9467bd"/><path stroke-linejoin="round" fill="none" stroke="#9467bd" d="M318.379 101.916a3 3 0 1 0 0-6 3 3 0 0 0 0 6z"/></g><clipPath id="bs"><path transform="matrix(1 0 0 -1 358.463 108.427)" d="M-8-8H8V8H-8z"/></clipPath><g clip-path="url(#bs)"><path d="M358.463 111.427a3 3 0 1 0 0-6 3 3 0 0 0 0 6z" fill="#9467bd"/><path stroke-linejoin="round" fill="none" stroke="#9467bd" d="M358.463 111.427a3 3 0 1 0 0-6 3 3 0 0 0 0 6z"/></g><clipPath id="bt"><path transform="matrix(1 0 0 -1 398.547 198.941)" d="M-8-8H8V8H-8z"/></clipPath><g clip-path="url(#bt)"><path d="M398.547 201.941a3 3 0 1 0 0-6 3 3 0 0 0 0 6z" fill="#9467bd"/><path stroke-linejoin="round" fill="none" stroke="#9467bd" d="M398.547 201.941a3 3 0 1 0 0-6 3 3 0 0 0 0 6z"/></g><clipPath id="bu"><path transform="matrix(1 0 0 -1 438.631 256.332)" d="M-8-8H8V8H-8z"/></clipPath><g clip-path="url(#bu)"><path d="M438.631 259.332a3 3 0 1 0 0-6 3 3 0 0 0 0 6z" fill="#9467bd"/><path stroke-linejoin="round" fill="none" stroke="#9467bd" d="M438.631 259.332a3 3 0 1 0 0-6 3 3 0 0 0 0 6z"/></g><clipPath id="bv"><path transform="matrix(1 0 0 -1 478.716 208.124)" d="M-8-8H8V8H-8z"/></clipPath><g clip-path="url(#bv)"><path d="M478.716 211.124a3 3 0 1 0 0-6 3 3 0 0 0 0 6z" fill="#9467bd"/><path stroke-linejoin="round" fill="none" stroke="#9467bd" d="M478.716 211.124a3 3 0 1 0 0-6 3 3 0 0 0 0 6z"/></g><clipPath id="bw"><path transform="matrix(1 0 0 -1 518.8 244.198)" d="M-8-8H8V8H-8z"/></clipPath><g clip-path="url(#bw)"><path d="M518.8 247.198a3 3 0 1 0 0-6 3 3 0 0 0 0 6z" fill="#9467bd"/><path stroke-linejoin="round" fill="none" stroke="#9467bd" d="M518.8 247.198a3 3 0 1 0 0-6 3 3 0 0 0 0 6z"/></g><clipPath id="bx"><path transform="matrix(1 0 0 -1 558.884 291.095)" d="M-8-8H8V8H-8z"/></clipPath><g clip-path="url(#bx)"><path d="M558.884 294.095a3 3 0 1 0 0-6 3 3 0 0 0 0 6z" fill="#9467bd"/><path stroke-linejoin="round" fill="none" stroke="#9467bd" d="M558.884 294.095a3 3 0 1 0 0-6 3 3 0 0 0 0 6z"/></g><clipPath id="by"><path transform="matrix(1 0 0 -1 598.968 303.557)" d="M-8-8H8V8H-8z"/></clipPath><g clip-path="url(#by)"><path d="M598.968 306.557a3 3 0 1 0 0-6 3 3 0 0 0 0 6z" fill="#9467bd"/><path stroke-linejoin="round" fill="none" stroke="#9467bd" d="M598.968 306.557a3 3 0 1 0 0-6 3 3 0 0 0 0 6z"/></g><clipPath id="bz"><path transform="matrix(1 0 0 -1 639.053 237.64)" d="M-8-8H8V8H-8z"/></clipPath><g clip-path="url(#bz)"><path d="M639.053 240.64a3 3 0 1 0 0-6.001 3 3 0 0 0 0 6z" fill="#9467bd"/><path stroke-linejoin="round" fill="none" stroke="#9467bd" d="M639.053 240.64a3 3 0 1 0 0-6.001 3 3 0 0 0 0 6z"/></g><clipPath id="bA"><path transform="matrix(1 0 0 -1 679.137 113.018)" d="M-8-8H8V8H-8z"/></clipPath><g clip-path="url(#bA)"><path d="M679.137 116.018a3 3 0 1 0 0-6 3 3 0 0 0 0 6z" fill="#9467bd"/><path stroke-linejoin="round" fill="none" stroke="#9467bd" d="M679.137 116.018a3 3 0 1 0 0-6 3 3 0 0 0 0 6z"/></g></g><clipPath id="bB"><path transform="matrix(1 0 0 -1 0 432)" d="M47.81 82.25H709.2v323.59H47.81z"/></clipPath><g clip-path="url(#bB)"><path stroke-width="1.5" stroke-linecap="square" stroke-linejoin="round" fill="none" stroke="#8c564b" d="m77.873 201.565 40.084-28.86 40.085-58.375 40.084 6.887 40.084 86.579 40.084-71.822 40.085-37.058 40.084 31.155 40.084 103.305 40.084 45.257 40.085-67.886 40.084 34.435 40.084 59.031 40.084-5.903 40.085-68.214 40.084-92.154"/><clipPath id="bC"><path transform="matrix(1 0 0 -1 77.873 201.565)" d="M-8-8H8V8H-8z"/></clipPath><g clip-path="url(#bC)"><path d="M77.873 204.565a3 3 0 1 0 0-6 3 3 0 0 0 0 6z" fill="#8c564b"/><path stroke-linejoin="round" fill="none" stroke="#8c564b" d="M77.873 204.565a3 3 0 1 0 0-6 3 3 0 0 0 0 6z"/></g><clipPath id="bD"><path transform="matrix(1 0 0 -1 117.957 172.705)" d="M-8-8H8V8H-8z"/></clipPath><g clip-path="url(#bD)"><path d="M117.957 175.705a3 3 0 1 0 0-6 3 3 0 0 0 0 6z" fill="#8c564b"/><path stroke-linejoin="round" fill="none" stroke="#8c564b" d="M117.957 175.705a3 3 0 1 0 0-6 3 3 0 0 0 0 6z"/></g><clipPath id="bE"><path transform="matrix(1 0 0 -1 158.042 114.33)" d="M-8-8H8V8H-8z"/></clipPath><g clip-path="url(#bE)"><path d="M158.042 117.33a3 3 0 1 0 0-6 3 3 0 0 0 0 6z" fill="#8c564b"/><path stroke-linejoin="round" fill="none" stroke="#8c564b" d="M158.042 117.33a3 3 0 1 0 0-6 3 3 0 0 0 0 6z"/></g><clipPath id="bF"><path transform="matrix(1 0 0 -1 198.126 121.217)" d="M-8-8H8V8H-8z"/></clipPath><g clip-path="url(#bF)"><path d="M198.126 124.217a3 3 0 1 0 0-6 3 3 0 0 0 0 6z" fill="#8c564b"/><path stroke-linejoin="round" fill="none" stroke="#8c564b" d="M198.126 124.217a3 3 0 1 0 0-6 3 3 0 0 0 0 6z"/></g><clipPath id="bG"><path transform="matrix(1 0 0 -1 238.21 207.796)" d="M-8-8H8V8H-8z"/></clipPath><g clip-path="url(#bG)"><path d="M238.21 210.796a3 3 0 1 0 0-6 3 3 0 0 0 0 6z" fill="#8c564b"/><path stroke-linejoin="round" fill="none" stroke="#8c564b" d="M238.21 210.796a3 3 0 1 0 0-6 3 3 0 0 0 0 6z"/></g><clipPath id="bH"><path transform="matrix(1 0 0 -1 278.294 135.974)" d="M-8-8H8V8H-8z"/></clipPath><g clip-path="url(#bH)"><path d="M278.294 138.974a3 3 0 1 0 0-6 3 3 0 0 0 0 6z" fill="#8c564b"/><path stroke-linejoin="round" fill="none" stroke="#8c564b" d="M278.294 138.974a3 3 0 1 0 0-6 3 3 0 0 0 0 6z"/></g><clipPath id="bI"><path transform="matrix(1 0 0 -1 318.379 98.916)" d="M-8-8H8V8H-8z"/></clipPath><g clip-path="url(#bI)"><path d="M318.379 101.916a3 3 0 1 0 0-6 3 3 0 0 0 0 6z" fill="#8c564b"/><path stroke-linejoin="round" fill="none" stroke="#8c564b" d="M318.379 101.916a3 3 0 1 0 0-6 3 3 0 0 0 0 6z"/></g><clipPath id="bJ"><path transform="matrix(1 0 0 -1 358.463 130.071)" d="M-8-8H8V8H-8z"/></clipPath><g clip-path="url(#bJ)"><path d="M358.463 133.071a3 3 0 1 0 0-6 3 3 0 0 0 0 6z" fill="#8c564b"/><path stroke-linejoin="round" fill="none" stroke="#8c564b" d="M358.463 133.071a3 3 0 1 0 0-6 3 3 0 0 0 0 6z"/></g><clipPath id="bK"><path transform="matrix(1 0 0 -1 398.547 233.376)" d="M-8-8H8V8H-8z"/></clipPath><g clip-path="url(#bK)"><path d="M398.547 236.376a3 3 0 1 0 0-6 3 3 0 0 0 0 6z" fill="#8c564b"/><path stroke-linejoin="round" fill="none" stroke="#8c564b" d="M398.547 236.376a3 3 0 1 0 0-6 3 3 0 0 0 0 6z"/></g><clipPath id="bL"><path transform="matrix(1 0 0 -1 438.631 278.633)" d="M-8-8H8V8H-8z"/></clipPath><g clip-path="url(#bL)"><path d="M438.631 281.633a3 3 0 1 0 0-6 3 3 0 0 0 0 6z" fill="#8c564b"/><path stroke-linejoin="round" fill="none" stroke="#8c564b" d="M438.631 281.633a3 3 0 1 0 0-6 3 3 0 0 0 0 6z"/></g><clipPath id="bM"><path transform="matrix(1 0 0 -1 478.716 210.747)" d="M-8-8H8V8H-8z"/></clipPath><g clip-path="url(#bM)"><path d="M478.716 213.747a3 3 0 1 0 0-6 3 3 0 0 0 0 6z" fill="#8c564b"/><path stroke-linejoin="round" fill="none" stroke="#8c564b" d="M478.716 213.747a3 3 0 1 0 0-6 3 3 0 0 0 0 6z"/></g><clipPath id="bN"><path transform="matrix(1 0 0 -1 518.8 245.182)" d="M-8-8H8V8H-8z"/></clipPath><g clip-path="url(#bN)"><path d="M518.8 248.182a3 3 0 1 0 0-6 3 3 0 0 0 0 6z" fill="#8c564b"/><path stroke-linejoin="round" fill="none" stroke="#8c564b" d="M518.8 248.182a3 3 0 1 0 0-6 3 3 0 0 0 0 6z"/></g><clipPath id="bO"><path transform="matrix(1 0 0 -1 558.884 304.213)" d="M-8-8H8V8H-8z"/></clipPath><g clip-path="url(#bO)"><path d="M558.884 307.213a3 3 0 1 0 0-6 3 3 0 0 0 0 6z" fill="#8c564b"/><path stroke-linejoin="round" fill="none" stroke="#8c564b" d="M558.884 307.213a3 3 0 1 0 0-6 3 3 0 0 0 0 6z"/></g><clipPath id="bP"><path transform="matrix(1 0 0 -1 598.968 298.31)" d="M-8-8H8V8H-8z"/></clipPath><g clip-path="url(#bP)"><path d="M598.968 301.31a3 3 0 1 0 0-6 3 3 0 0 0 0 6z" fill="#8c564b"/><path stroke-linejoin="round" fill="none" stroke="#8c564b" d="M598.968 301.31a3 3 0 1 0 0-6 3 3 0 0 0 0 6z"/></g><clipPath id="bQ"><path transform="matrix(1 0 0 -1 639.053 230.096)" d="M-8-8H8V8H-8z"/></clipPath><g clip-path="url(#bQ)"><path d="M639.053 233.096a3 3 0 1 0 0-6 3 3 0 0 0 0 6z" fill="#8c564b"/><path stroke-linejoin="round" fill="none" stroke="#8c564b" d="M639.053 233.096a3 3 0 1 0 0-6 3 3 0 0 0 0 6z"/></g><clipPath id="bR"><path transform="matrix(1 0 0 -1 679.137 137.942)" d="M-8-8H8V8H-8z"/></clipPath><g clip-path="url(#bR)"><path d="M679.137 140.942a3 3 0 1 0 0-6 3 3 0 0 0 0 6z" fill="#8c564b"/><path stroke-linejoin="round" fill="none" stroke="#8c564b" d="M679.137 140.942a3 3 0 1 0 0-6 3 3 0 0 0 0 6z"/></g></g><path stroke-width=".8" stroke-linecap="square" stroke-miterlimit="10" fill="none" stroke="#000" d="M47.81 349.75V26.16M709.2 349.75V26.16M47.81 349.75H709.2M47.81 26.16H709.2"/><symbol id="bS"><path transform="translate(-.03) scale(.001)" d="M30 547h95L296 88l171 459h95L357 0H235L30 547z"/></symbol><use xlink:href="#P" transform="matrix(12 0 0 -12 273.017 20.16)"/><use xlink:href="#A" transform="matrix(12 0 0 -12 279.773 20.16)"/><use xlink:href="#l" transform="matrix(12 0 0 -12 286.83 20.316)"/><use xlink:href="#E" transform="matrix(12 0 0 -12 294.21 20.316)"/><use xlink:href="#t" transform="matrix(12 0 0 -12 301.17 20.316)"/><use xlink:href="#D" transform="matrix(12 0 0 -12 308.082 20.16)"/><use xlink:href="#w" transform="matrix(12 0 0 -12 313.59 20.16)"/><use xlink:href="#g" transform="matrix(12 0 0 -12 316.458 20.316)"/><use xlink:href="#u" transform="matrix(12 0 0 -12 324.234 20.16)"/><use xlink:href="#Q" transform="matrix(12 0 0 -12 330.75 20.16)"/><use xlink:href="#D" transform="matrix(12 0 0 -12 334.89 20.16)"/><use xlink:href="#w" transform="matrix(12 0 0 -12 340.398 20.16)"/><use xlink:href="#R" transform="matrix(12 0 0 -12 343.698 20.16)"/><use xlink:href="#l" transform="matrix(12 0 0 -12 354.954 20.316)"/><use xlink:href="#Q" transform="matrix(12 0 0 -12 361.674 20.16)"/><use xlink:href="#F" transform="matrix(12 0 0 -12 365.766 20.16)"/><use xlink:href="#g" transform="matrix(12 0 0 -12 370.374 20.316)"/><use xlink:href="#i" transform="matrix(12 0 0 -12 378.15 20.16)"/><use xlink:href="#Q" transform="matrix(12 0 0 -12 381.99 20.16)"/><use xlink:href="#bS" transform="matrix(12 0 0 -12 386.166 20.16)"/><use xlink:href="#e" transform="matrix(12 0 0 -12 393.63 20.316)"/><use xlink:href="#i" transform="matrix(12 0 0 -12 401.358 20.16)"/><use xlink:href="#w" transform="matrix(12 0 0 -12 406.326 20.16)"/><use xlink:href="#g" transform="matrix(12 0 0 -12 409.194 20.316)"/><use xlink:href="#t" transform="matrix(12 0 0 -12 416.898 20.316)"/><use xlink:href="#z" transform="matrix(12 0 0 -12 424.134 20.316)"/><use xlink:href="#Q" transform="matrix(12 0 0 -12 429.738 20.16)"/><use xlink:href="#f" transform="matrix(12 0 0 -12 434.214 20.316)"/><use xlink:href="#e" transform="matrix(12 0 0 -12 441.894 20.316)"/><use xlink:href="#D" transform="matrix(12 0 0 -12 448.854 20.16)"/><use xlink:href="#e" transform="matrix(12 0 0 -12 453.954 20.316)"/><use xlink:href="#z" transform="matrix(12 0 0 -12 461.238 20.316)"/><use xlink:href="#l" transform="matrix(12 0 0 -12 467.502 20.316)"/><use xlink:href="#D" transform="matrix(12 0 0 -12 474.546 20.16)"/><use xlink:href="#z" transform="matrix(12 0 0 -12 479.574 20.316)"/><path d="M54.81 344.75h66.797c1.333 0 2-.667 2-2v-87.032c0-1.333-.667-2-2-2H54.81c-1.333 0-2 .667-2 2v87.031c0 1.334.667 2 2 2z" fill="#fff" fill-opacity=".8"/><path stroke-miterlimit="10" fill="none" stroke="#d5d6d5" stroke-opacity=".8" d="M54.81 344.75h66.797c1.333 0 2-.667 2-2v-87.032c0-1.333-.667-2-2-2H54.81c-1.333 0-2 .667-2 2v87.031c0 1.334.667 2 2 2z"/><path stroke-width="1.5" stroke-linecap="square" stroke-linejoin="round" fill="none" stroke="#1f77b4" d="M56.81 261.812h20"/><path d="M66.81 264.812a3 3 0 1 0 0-6 3 3 0 0 0 0 6z" fill="#1f77b4"/><path stroke-linejoin="round" fill="none" stroke="#1f77b4" d="M66.81 264.812a3 3 0 1 0 0-6 3 3 0 0 0 0 6z"/><use xlink:href="#b" transform="matrix(10 0 0 -10 85.79 265.312)"/><use xlink:href="#i" transform="matrix(10 0 0 -10 93.42 265.312)"/><use xlink:href="#e" transform="matrix(10 0 0 -10 97.22 265.442)"/><use xlink:href="#w" transform="matrix(10 0 0 -10 103.69 265.312)"/><use xlink:href="#u" transform="matrix(10 0 0 -10 106.44 265.312)"/><path stroke-width="1.5" stroke-linecap="square" stroke-linejoin="round" fill="none" stroke="#ff7f0e" d="M56.81 276.484h20"/><path d="M66.81 279.484a3 3 0 1 0 0-6 3 3 0 0 0 0 6z" fill="#ff7f0e"/><path stroke-linejoin="round" fill="none" stroke="#ff7f0e" d="M66.81 279.484a3 3 0 1 0 0-6 3 3 0 0 0 0 6z"/><use xlink:href="#d" transform="matrix(10 0 0 -10 85.47 280.114)"/><use xlink:href="#h" transform="matrix(10 0 0 -10 92.07 282.054)"/><use xlink:href="#l" transform="matrix(10 0 0 -10 98.06 280.114)"/><use xlink:href="#C" transform="matrix(10 0 0 -10 104.6 279.984)"/><use xlink:href="#C" transform="matrix(10 0 0 -10 107.38 279.984)"/><path stroke-width="1.5" stroke-linecap="square" stroke-linejoin="round" fill="none" stroke="#2ca02c" d="M56.81 291.155h20"/><path d="M66.81 294.155a3 3 0 1 0 0-6 3 3 0 0 0 0 6z" fill="#2ca02c"/><path stroke-linejoin="round" fill="none" stroke="#2ca02c" d="M66.81 294.155a3 3 0 1 0 0-6 3 3 0 0 0 0 6z"/><symbol id="bT"><path transform="translate(-.098) scale(.001)" d="M98 729h99V0H98v729z"/></symbol><use xlink:href="#bT" transform="matrix(10 0 0 -10 85.79 294.656)"/><use xlink:href="#p" transform="matrix(10 0 0 -10 88.74 294.656)"/><use xlink:href="#o" transform="matrix(10 0 0 -10 94.77 294.656)"/><use xlink:href="#G" transform="matrix(10 0 0 -10 99.576 294.786)"/><use xlink:href="#H" transform="matrix(10 0 0 -10 107.866 294.656)"/><path stroke-width="1.5" stroke-linecap="square" stroke-linejoin="round" fill="none" stroke="#d62728" d="M56.81 305.827h20"/><path d="M66.81 308.827a3 3 0 1 0 0-6 3 3 0 0 0 0 6z" fill="#d62728"/><path stroke-linejoin="round" fill="none" stroke="#d62728" d="M66.81 308.827a3 3 0 1 0 0-6 3 3 0 0 0 0 6z"/><symbol id="bU"><path transform="matrix(.001 0 0 .001 -.087 .013)" d="M87 729h99V286c0-78 14-135 42-169s74-51 138-51c63 0 109 17 137 51s43 91 43 169v443h99V274c0-96-24-167-71-215S458-13 366-13 204 11 157 59 87 178 87 274v455z"/></symbol><use xlink:href="#bU" transform="matrix(10 0 0 -10 85.68 309.457)"/><use xlink:href="#o" transform="matrix(10 0 0 -10 93.11 309.327)"/><use xlink:href="#p" transform="matrix(10 0 0 -10 98.68 309.327)"/><path stroke-width="1.5" stroke-linecap="square" stroke-linejoin="round" fill="none" stroke="#9467bd" d="M56.81 320.5h20"/><path d="M66.81 323.5a3 3 0 1 0 0-6.001 3 3 0 0 0 0 6z" fill="#9467bd"/><path stroke-linejoin="round" fill="none" stroke="#9467bd" d="M66.81 323.5a3 3 0 1 0 0-6.001 3 3 0 0 0 0 6z"/><use xlink:href="#m" transform="matrix(10 0 0 -10 85.79 324)"/><use xlink:href="#i" transform="matrix(10 0 0 -10 92.58 324)"/><use xlink:href="#e" transform="matrix(10 0 0 -10 96.38 324.13)"/><use xlink:href="#w" transform="matrix(10 0 0 -10 102.85 324)"/><use xlink:href="#u" transform="matrix(10 0 0 -10 105.6 324)"/><path stroke-width="1.5" stroke-linecap="square" stroke-linejoin="round" fill="none" stroke="#8c564b" d="M56.81 335.171h20"/><path d="M66.81 338.171a3 3 0 1 0 0-6 3 3 0 0 0 0 6z" fill="#8c564b"/><path stroke-linejoin="round" fill="none" stroke="#8c564b" d="M66.81 338.171a3 3 0 1 0 0-6 3 3 0 0 0 0 6z"/><symbol id="bV"><path transform="translate(-.098) scale(.001)" d="M444 342c21-8 42-23 62-46 20-24 40-56 60-97L666 0H560l-93 187c-24 48-48 81-70 97-23 16-54 24-93 24H197V0H98v729h223c83 0 145-18 186-52 41-35 62-88 62-158 0-46-11-85-32-115-22-30-53-51-93-62zM197 648V389h124c47 0 83 11 107 33s37 54 37 97c0 42-13 74-37 96s-60 33-107 33H197z"/></symbol><use xlink:href="#o" transform="matrix(10 0 0 -10 85.79 338.671)"/><use xlink:href="#P" transform="matrix(10 0 0 -10 91.36 338.671)"/><use xlink:href="#H" transform="matrix(10 0 0 -10 97.68 338.671)"/><use xlink:href="#bU" transform="matrix(10 0 0 -10 106.2 338.801)"/><use xlink:href="#bV" transform="matrix(10 0 0 -10 113.63 338.671)"/></svg>